# Blender 5.1.2
# www.blender.org
o Sponza_walls
v 914.800415 413.911102 -310.134613
v 914.800415 494.052490 -310.134613
v 914.800781 494.052490 238.679092
v 914.800781 413.911102 238.679092
v -1045.740967 413.911102 -310.134613
v -1045.740967 494.052490 -310.134491
v 914.800415 494.052490 -310.134613
v 914.800415 413.911102 -310.134613
v -1045.740967 413.911102 -310.134613
v -1045.740967 413.911102 238.679504
v -1045.740967 494.052490 238.679504
v -1045.740967 494.052490 -310.134491
v -1045.740967 413.911102 238.679504
v 914.800781 413.911102 238.679092
v 914.800781 494.052490 238.679092
v -1045.740967 494.052490 238.679504
v -246.653702 221.487701 180.130493
v -278.904388 329.257385 180.130493
v -246.653702 495.689606 180.130493
v -214.457596 328.860809 180.130493
v -338.172485 382.467987 180.130493
v -155.134903 381.432098 180.130493
v -434.788788 495.689606 180.130493
v -434.788788 406.419495 180.130493
v -63.616001 495.689606 180.130493
v -526.307678 381.432098 180.130493
v -63.616001 406.419495 180.130493
v 27.902800 382.467987 180.130493
v -617.826416 495.689606 180.130493
v 119.421600 495.689606 180.130493
v -592.549805 328.860809 180.130493
v -617.826416 221.487701 180.130493
v -656.898193 329.257385 180.130493
v -712.543518 377.936310 180.130493
v -805.114014 495.689606 180.130493
v -805.114014 406.419495 180.130493
v -896.632812 381.432098 180.130493
v -998.517822 495.689606 180.130493
v -955.955688 328.860809 180.130493
v -998.517822 221.487701 180.130493
v 87.170799 329.257385 180.130493
v 119.421600 221.487701 180.130493
v 158.453201 329.257385 180.130493
v 217.721298 382.467987 180.130493
v 309.240112 495.689606 180.130493
v 309.240112 406.419495 180.130493
v 400.758911 381.432098 180.130493
v 492.277710 495.689606 180.130493
v 460.081696 328.860809 180.130493
v 492.277710 221.487701 180.130493
v 524.528503 329.257385 180.130493
v 583.796570 382.467987 180.130493
v 675.315430 495.689606 180.130493
v 675.315430 406.419495 180.130493
v 766.834229 381.432098 180.130493
v 869.351074 495.689606 180.130493
v 826.156982 328.860809 180.130493
v 869.351074 221.487701 180.130493
v -998.517822 221.487701 180.130493
v -998.517822 314.004211 119.478401
v -998.517822 495.689606 180.130493
v -998.517822 354.698914 60.825199
v -998.517822 381.163086 2.171900
v -998.517822 495.689606 -35.343700
v -998.517822 381.764801 -35.343700
v 869.351074 221.487701 180.130493
v 869.351074 495.689606 180.130493
v 869.351074 314.004211 119.478401
v 869.351074 354.698914 60.825199
v 869.351074 381.163086 2.171900
v 869.351074 495.689606 -35.343700
v 869.351074 381.764801 -35.343700
v -246.653702 221.487701 -250.817902
v -246.653702 495.689606 -250.817902
v -278.904388 329.257385 -250.817902
v -214.457596 328.860809 -250.817902
v -338.172485 382.467987 -250.817902
v -155.134903 381.432098 -250.817902
v -434.788788 495.689606 -250.817902
v -434.788788 406.419495 -250.817902
v -63.616001 495.689606 -250.817902
v -526.307678 381.432098 -250.817902
v -63.616001 406.419495 -250.817902
v 27.902800 382.467987 -250.817902
v -617.826416 495.689606 -250.817902
v 119.421600 495.689606 -250.817902
v -592.549805 328.860809 -250.817902
v -617.826416 221.487701 -250.817902
v -656.898193 329.257385 -250.817902
v -712.543518 377.936310 -250.817902
v -805.114014 495.689606 -250.817902
v -805.114014 406.419495 -250.817902
v -896.632812 381.432098 -250.817902
v -998.517822 495.689606 -250.817902
v -955.955688 328.860809 -250.817902
v -998.517822 221.487701 -250.817902
v 87.170799 329.257385 -250.817902
v 119.421600 221.487701 -250.817902
v 158.453201 329.257385 -250.817902
v 217.721298 382.467987 -250.817902
v 309.240112 495.689606 -250.817902
v 309.240112 406.419495 -250.817902
v 400.758911 381.432098 -250.817902
v 492.277710 495.689606 -250.817902
v 460.081696 328.860809 -250.817902
v 492.277710 221.487701 -250.817902
v 524.528503 329.257385 -250.817902
v 583.796570 382.467987 -250.817902
v 675.315430 495.689606 -250.817902
v 675.315430 406.419495 -250.817902
v 766.834229 381.432098 -250.817902
v 869.351074 495.689606 -250.817902
v 826.156982 328.860809 -250.817902
v 869.351074 221.487701 -250.817902
v -998.517822 221.487701 -250.817902
v -998.517822 495.689606 -250.817902
v -998.517822 314.004211 -190.165802
v -998.517822 354.698914 -131.512497
v -998.517822 381.163086 -72.859299
v -998.517822 495.689606 -35.343700
v -998.517822 381.764801 -35.343700
v 869.351074 221.487701 -250.817902
v 869.351074 314.004211 -190.165802
v 869.351074 495.689606 -250.817902
v 869.351074 354.698914 -131.512497
v 869.351074 381.163086 -72.859299
v 869.351074 495.689606 -35.343700
v 869.351074 381.764801 -35.343700
v 868.647217 693.951477 185.967300
v 862.329285 693.766785 185.967300
v 868.647217 921.728516 185.967300
v 843.424316 763.707703 185.967300
v 806.407471 796.744385 185.967300
v 764.218994 921.728516 185.967300
v 764.218994 818.829102 185.967300
v 722.030518 796.744385 185.967300
v 677.270630 921.728516 185.967300
v 685.013672 763.707703 185.967300
v 677.270630 735.061523 185.967300
v 669.527588 763.707703 185.967300
v 632.510803 796.744385 185.967300
v 590.322327 921.728516 185.967300
v 590.322327 818.829102 185.967300
v 548.133728 800.441528 185.967300
v 493.674103 921.728516 185.967300
v 511.116913 764.792603 185.967300
v 491.685913 717.518799 185.967300
v 479.933685 744.660583 185.967300
v 452.757294 784.948975 185.967300
v 415.673889 810.102722 185.967300
v 392.267090 921.728516 185.967300
v 392.267090 820.709717 185.967300
v 373.385498 814.666199 185.967300
v 306.219086 921.728516 185.967300
v 332.942810 786.531128 185.967300
v 306.219086 752.452209 185.967300
v 281.446289 776.565674 185.967300
v 250.429901 802.839478 185.967300
v 219.413498 921.728516 185.967300
v 219.413498 815.793274 185.967300
v 183.682907 799.522278 185.967300
v 121.117599 921.728516 185.967300
v 147.952301 766.312622 185.967300
v 121.117599 711.556885 185.967300
v 91.281898 776.273315 185.967300
v 52.392899 803.385376 185.967300
v 22.557301 921.728516 185.967300
v 22.557301 818.286072 185.967300
v -3.660200 805.036926 185.967194
v -66.860703 921.728516 185.967300
v -36.814301 781.220276 185.967194
v -66.858200 751.742676 185.967194
v 868.647217 693.951477 185.967300
v 868.647217 921.728516 185.967300
v 868.647217 694.019897 171.318405
v 868.647217 748.168030 148.588303
v 868.647217 785.997192 119.421402
v 868.647217 921.728516 61.087601
v 868.647217 813.921997 61.087601
v 868.647217 921.728516 -36.075199
v 868.647217 785.997192 2.753700
v 868.647217 748.168030 -26.413200
v 868.647217 733.583801 -36.075199
v 868.647217 748.168030 -45.737301
v 868.647217 785.997192 -74.904198
v 868.647217 813.921997 -133.238007
v 868.647217 921.728516 -133.238007
v 868.647217 785.997192 -191.571899
v 868.647217 921.728516 -259.325806
v 868.647217 748.168030 -220.738800
v 868.647217 694.019897 -240.782898
v 868.647217 693.951477 -259.325806
v 868.647217 693.951477 -259.325806
v 868.647217 921.728516 -259.325806
v 862.329285 693.766785 -259.325806
v 843.424316 763.707703 -259.325806
v 806.407471 796.744385 -259.325806
v 764.218994 921.728516 -259.325806
v 764.218994 818.829102 -259.325806
v 722.030518 796.744385 -259.325806
v 677.270630 921.728516 -259.325806
v 685.013672 763.707703 -259.325806
v 677.270630 735.061523 -259.325806
v 669.527588 763.707703 -259.325806
v 632.510803 796.744385 -259.325806
v 590.322327 921.728516 -259.325806
v 590.322327 818.829102 -259.325806
v 548.133728 800.441528 -259.325806
v 493.674103 921.728516 -259.325806
v 511.116913 764.792603 -259.325806
v 491.685913 717.518799 -259.325806
v 479.933685 744.660583 -259.325806
v 452.757294 784.948975 -259.325806
v 415.673889 810.102722 -259.325806
v 392.267090 921.728516 -259.325806
v 392.267090 820.709717 -259.325806
v 373.385498 814.666199 -259.325806
v 306.219086 921.728516 -259.325806
v 332.942810 786.531128 -259.325806
v 306.219086 752.452209 -259.325806
v 281.446289 776.565674 -259.325806
v 250.429901 802.839478 -259.325806
v 219.413498 921.728516 -259.325806
v 219.413498 815.793274 -259.325806
v 183.682907 799.522278 -259.325806
v 121.117599 921.728516 -259.325806
v 147.952301 766.312622 -259.325806
v 121.117599 711.556885 -259.325806
v 91.281898 776.273315 -259.325806
v 52.392899 803.385376 -259.325806
v 22.557301 921.728516 -259.325806
v 22.557301 818.286072 -259.325806
v -3.660200 805.036926 -259.325714
v -66.858200 921.728516 -259.325806
v -36.814301 781.220276 -259.325714
v -63.085899 751.742676 -259.325714
v -1002.363525 693.951477 185.967300
v -1002.363525 921.728516 185.967300
v -996.045715 693.766785 185.967300
v -971.483826 763.707703 185.967300
v -940.124023 796.744385 185.967300
v -897.935486 921.728516 185.967300
v -897.935486 818.829102 185.967300
v -855.746826 796.744385 185.967300
v -810.987122 921.728516 185.967300
v -818.730103 763.707703 185.967300
v -810.987122 735.061523 185.967300
v -797.016602 763.707703 185.967300
v -766.227295 796.744385 185.967300
v -724.038696 921.728516 185.967300
v -724.038696 818.829102 185.967300
v -681.850098 800.441528 185.967300
v -627.390503 921.728516 185.967300
v -644.833374 764.792603 185.967300
v -618.236572 717.518799 185.967300
v -610.197021 744.660583 185.967300
v -584.158020 784.948975 185.967300
v -549.390381 810.102722 185.967300
v -525.983582 921.728516 185.967300
v -525.983582 820.709717 185.967300
v -507.101898 814.666199 185.967300
v -439.935486 921.728516 185.967300
v -466.659210 786.531128 185.967300
v -432.920013 752.452209 185.967300
v -415.162689 776.565674 185.967300
v -384.146210 802.839478 185.967300
v -353.129913 921.728516 185.967300
v -353.129913 815.793274 185.967300
v -317.399292 799.522278 185.967300
v -254.834000 921.728516 185.967300
v -281.668701 766.312622 185.967300
v -249.225693 711.556885 185.967300
v -220.172699 776.273315 185.967300
v -186.109406 803.385376 185.967300
v -156.273697 921.728516 185.967300
v -156.273697 818.286072 185.967300
v -130.056305 805.036926 185.967194
v -66.860703 921.728516 185.967300
v -96.902199 781.220276 185.967194
v -66.858200 751.742676 185.967194
v -1002.363525 693.951477 185.967300
v -1002.363525 694.019897 171.318405
v -1002.363525 921.728516 185.967300
v -1002.363525 748.168030 148.588303
v -1002.363525 785.997192 119.421402
v -1002.363525 921.728516 61.087601
v -1002.363525 813.921997 61.087601
v -1002.363525 921.728516 -36.075199
v -1002.363525 785.997192 2.753700
v -1002.363525 748.168030 -26.413200
v -1002.363525 733.583801 -36.075199
v -1002.363525 748.168030 -45.737301
v -1002.363525 785.997192 -74.904198
v -1002.363525 813.921997 -133.238007
v -1002.363525 921.728516 -133.238007
v -1002.363525 785.997192 -191.571899
v -1002.363525 921.728516 -259.325806
v -1002.363525 748.168030 -220.738800
v -1002.363525 694.019897 -240.782898
v -1002.363525 693.951477 -259.325806
v -1002.363525 693.951477 -259.325806
v -996.045715 693.766785 -259.325806
v -1002.363525 921.728516 -259.325806
v -972.493408 763.707703 -259.325806
v -940.124023 796.744385 -259.325806
v -897.935486 921.728516 -259.325806
v -897.935486 818.829102 -259.325806
v -855.746826 796.744385 -259.325806
v -810.987122 921.728516 -259.325806
v -818.730103 763.707703 -259.325806
v -810.987122 735.061523 -259.325806
v -795.853516 763.707703 -259.325806
v -766.227295 796.744385 -259.325806
v -724.038696 921.728516 -259.325806
v -724.038696 818.829102 -259.325806
v -681.850098 800.441528 -259.325806
v -627.390503 921.728516 -259.325806
v -644.833374 764.792603 -259.325806
v -619.113770 717.518799 -259.325806
v -610.580811 744.660583 -259.325806
v -584.381592 784.948975 -259.325806
v -549.390381 810.102722 -259.325806
v -525.983582 921.728516 -259.325806
v -525.983582 820.709717 -259.325806
v -507.101898 814.666199 -259.325806
v -439.935486 921.728516 -259.325806
v -466.659210 786.531128 -259.325806
v -432.754395 752.452209 -259.325806
v -415.162689 776.565674 -259.325806
v -384.146210 802.839478 -259.325806
v -353.129913 921.728516 -259.325806
v -353.129913 815.793274 -259.325806
v -317.399292 799.522278 -259.325806
v -254.834000 921.728516 -259.325806
v -281.668701 766.312622 -259.325806
v -250.598801 711.556885 -259.325806
v -220.383408 776.273315 -259.325806
v -186.109406 803.385376 -259.325806
v -156.273697 921.728516 -259.325806
v -156.273697 818.286072 -259.325806
v -130.056305 805.036926 -259.325714
v -66.858200 921.728516 -259.325806
v -96.902199 781.220276 -259.325714
v -63.085899 751.742676 -259.325714
v -1002.376526 1012.854370 -78.964996
v -1002.376526 921.728516 -78.964996
v -1002.376526 921.728516 -253.548599
v -1002.376526 1226.366455 -55.205200
v -1002.376526 1296.710693 -253.548599
v -1002.376526 1217.657349 -34.220699
v -1002.376526 1266.239502 -55.305000
v -1002.376526 1012.854370 -33.890598
v -1002.376526 1296.710693 -36.124901
v -1002.376526 1273.632812 -34.220699
v -1002.376526 1263.729858 -14.145900
v -1002.376526 1012.854370 10.566700
v -1002.376526 1296.710693 181.298706
v -1002.376526 1227.197998 -14.018600
v -1002.376526 921.728516 181.298706
v -1002.376526 921.728516 10.566700
v 868.594177 921.728516 -253.548599
v 868.594177 921.728516 181.298706
v 868.594177 1296.710693 181.298706
v 868.594177 1296.710693 -253.548599
v 260.959503 1012.854370 -253.548599
v 350.416504 1012.854370 -253.548599
v 483.521210 1232.050781 -253.548599
v 350.416595 921.728516 -253.548599
v 492.550507 921.728516 -253.548599
v 507.752289 1216.376587 -253.548599
v 632.113220 921.728516 -253.548599
v 632.113220 1012.854370 -253.548599
v 527.793396 1225.079590 -253.548599
v 527.145203 1264.625488 -253.548599
v 720.992126 1012.854370 -253.548599
v 868.594177 1296.710693 -253.548599
v 868.594177 921.728516 -253.548599
v 720.992126 921.728516 -253.548599
v 587.483215 1296.710693 -253.548599
v 507.752289 1273.077393 -253.548599
v 306.372314 1296.710693 -253.548599
v 485.913788 1262.572754 -253.548599
v 156.772293 1265.134277 -253.548599
v 121.867699 1296.710693 -253.548599
v 158.040695 1224.778809 -253.548599
v 137.194305 1273.077393 -253.548599
v 116.269203 1263.855713 -253.548599
v 137.194305 1216.376587 -253.548599
v 261.345612 921.728516 -253.548599
v -62.637001 1296.710693 -253.548599
v 121.990700 921.728516 -253.548599
v 116.269096 1225.087402 -253.548599
v -17.364201 1012.854370 -253.548599
v -17.364201 921.728516 -253.548599
v -106.392197 1012.854370 -253.548599
v -244.723602 1263.956421 -253.548599
v -247.302200 1296.710693 -253.548599
v -243.276001 1226.142090 -253.548599
v -265.496704 1273.077393 -253.548599
v -285.728485 1262.760254 -253.548599
v -265.496704 1216.376587 -253.548599
v -106.392197 921.728516 -253.548599
v -431.967499 1296.710693 -253.548599
v -247.132095 921.728516 -253.548599
v -390.144012 1012.854370 -253.548599
v -390.144012 921.728516 -253.548599
v -285.991699 1225.868652 -253.548599
v -477.580811 1012.854370 -253.548599
v -611.791321 1230.103760 -253.548599
v -617.487305 1265.985718 -253.548599
v -634.808777 1273.077393 -253.548599
v -634.808777 1216.376587 -253.548599
v -717.172119 1296.710693 -253.548599
v -477.580811 921.728516 -253.548599
v -654.362671 1264.851807 -253.548599
v -618.505127 921.728516 -253.548599
v -1002.376526 1296.710693 -253.548599
v -760.588074 1012.854370 -253.548599
v -760.588074 921.728516 -253.548599
v -659.954590 1232.255615 -253.548599
v -849.975098 1012.854370 -253.548599
v -1002.376526 921.728516 -253.548599
v -849.975098 921.728516 -253.548599
v 156.772293 1265.134277 181.298706
v 306.372314 1296.710693 181.298706
v 485.913788 1262.572754 181.298706
v 507.752289 1273.077393 181.298706
v 587.483276 1296.710693 181.298706
v 527.145325 1264.625488 181.298706
v 868.594177 1296.710693 181.298706
v 121.867699 1296.710693 181.298706
v 721.447693 1012.854370 181.298706
v 868.594177 921.728516 181.298706
v 721.447693 921.728516 181.298706
v 632.113281 1012.854370 181.298706
v 527.793518 1225.079590 181.298706
v 507.752289 1216.376587 181.298706
v 632.113281 921.728516 181.298706
v 492.550507 921.728516 181.298706
v 350.287598 1012.854370 181.298706
v 350.287689 921.728516 181.298706
v 483.521210 1232.050781 181.298706
v 260.959595 1012.854370 181.298706
v 158.040802 1224.778809 181.298706
v 137.194397 1216.376587 181.298706
v 261.345703 921.728516 181.298706
v 121.990799 921.728516 181.298706
v -17.364100 1012.854370 181.298706
v -17.364100 921.728516 181.298706
v 116.269203 1225.087402 181.298706
v 116.269203 1263.855713 181.298706
v 137.194397 1273.077393 181.298706
v -62.636902 1296.710693 181.298706
v -105.170799 1012.854370 181.298706
v -244.723495 1263.956421 181.298706
v -247.302200 1296.710693 181.298706
v -243.275894 1226.142090 181.298706
v -265.496613 1273.077393 181.298706
v -265.496613 1216.376587 181.298706
v -105.170799 921.728516 181.298706
v -285.728394 1262.760254 181.298706
v -247.132004 921.728516 181.298706
v -431.967499 1296.710693 181.298706
v -389.571503 1012.854370 181.298706
v -389.571503 921.728516 181.298706
v -285.991699 1225.868652 181.298706
v -477.580811 1012.854370 181.298706
v -617.487305 1265.985718 181.298706
v -634.808777 1273.077393 181.298706
v -611.791321 1230.103760 181.298706
v -717.171997 1296.710693 181.298706
v -634.808777 1216.376587 181.298706
v -654.362671 1264.851807 181.298706
v -477.580811 921.728516 181.298706
v -1002.376526 1296.710693 181.298706
v -618.505127 921.728516 181.298706
v -761.262878 1012.854370 181.298706
v -761.262878 921.728516 181.298706
v -659.954590 1232.255615 181.298706
v -849.975098 1012.854370 181.298706
v -1002.376526 921.728516 181.298706
v -849.975098 921.728516 181.298706
v -1086.422852 1306.231689 318.900787
v -1045.491699 1314.490234 251.036194
v 935.004211 1314.490112 251.036194
v 997.596191 1306.231689 318.900787
v 997.596191 1306.231689 318.900787
v 935.004211 1314.490112 251.036194
v 935.004211 1314.490112 -332.052887
v 997.596191 1306.231689 -408.146790
v 935.004211 1314.490112 -332.052887
v -1045.491699 1314.490112 -332.052887
v -1086.422852 1306.231689 -408.146790
v 997.596191 1306.231689 -408.146790
v -1045.491699 1314.490112 -332.052887
v -1045.491699 1314.490234 251.036194
v -1086.422852 1306.231689 318.900787
v -1086.422852 1306.231689 -408.146790
v -1086.422852 907.744080 318.900787
v -1086.422852 907.744080 -408.146790
v -1086.422852 1306.231689 -408.146790
v -1086.422852 1306.231689 318.900787
v -1086.422852 907.744080 318.900787
v 997.596130 907.744080 318.900787
v 872.412109 907.744080 183.171494
v -1004.560486 907.744080 183.171494
v 872.412109 907.744080 -255.959106
v -1004.560486 907.744080 -255.959106
v 997.596130 907.744080 -408.146790
v -1086.422852 907.744080 -408.146790
v 997.596130 907.744080 318.900787
v -1086.422852 907.744080 318.900787
v -1086.422852 1306.231689 318.900787
v 997.596191 1306.231689 318.900787
v 997.596130 907.744080 -408.146790
v 997.596130 907.744080 318.900787
v 997.596191 1306.231689 318.900787
v 997.596191 1306.231689 -408.146790
v -1086.422852 907.744080 -408.146790
v 997.596130 907.744080 -408.146790
v 997.596191 1306.231689 -408.146790
v -1086.422852 1306.231689 -408.146790
v -1045.491699 1314.490234 251.036194
v -1004.560486 1303.197388 183.171494
v 872.412109 1303.197388 183.171494
v 935.004211 1314.490112 251.036194
v 935.004211 1314.490112 251.036194
v 872.412109 1303.197388 183.171494
v 872.412109 1303.197388 -255.959106
v 935.004211 1314.490112 -332.052887
v 872.412109 1303.197388 -255.959106
v -1004.560486 1303.197388 -255.959106
v -1045.491699 1314.490112 -332.052887
v 935.004211 1314.490112 -332.052887
v -1004.560486 1303.197388 -255.959106
v -1004.560486 1303.197388 183.171494
v -1045.491699 1314.490234 251.036194
v -1045.491699 1314.490112 -332.052887
v 1302.220825 415.530304 574.706177
v 1302.220825 867.387085 574.706177
v 1302.220825 630.333984 40.619801
v 1302.220825 415.530304 40.619801
v 1302.102173 667.477478 28.809999
v 1301.983521 700.262329 3.254500
v 1301.746216 867.387085 -34.110802
v 1301.746338 715.883118 -34.110802
v 1301.509033 700.262329 -71.476097
v 1301.271729 867.387085 -640.633179
v 1301.390381 668.528625 -97.087898
v 1301.271729 630.333984 -108.841400
v 1301.271729 415.530304 -640.633179
v 1301.271729 415.530304 -108.841400
v -1431.199951 415.530304 574.706177
v -1431.199951 867.387085 574.706177
v 1302.220825 867.387085 574.706177
v 1302.220825 415.530304 574.706177
v -1431.199951 415.530304 -640.633179
v -1431.199951 867.387085 -640.633179
v -1431.199951 867.387085 574.706177
v -1431.199951 415.530304 574.706177
v 1301.271729 415.530304 -640.633179
v 1301.271729 867.387085 -640.633179
v -1431.199951 867.387085 -640.633179
v -1431.199951 415.530304 -640.633179
v -1428.519531 -2.620100 -644.311401
v -138.072601 -2.620100 -644.310974
v -138.072601 213.180801 -644.310974
v -1428.519531 403.447906 -644.311401
v -126.262802 250.324203 -644.192383
v -100.707298 283.109009 -644.073730
v -63.341999 403.447906 -643.836426
v -63.341999 298.729797 -643.836487
v -25.976700 283.109009 -643.599182
v 1302.190674 403.447906 -643.361694
v -0.364900 251.375305 -643.480591
v 11.388500 213.180801 -643.361877
v 1302.190674 -2.620100 -643.361694
v 11.388500 -2.620100 -643.361877
v -1428.519531 403.447906 -644.311401
v -1428.519531 403.447906 574.029297
v -1428.519531 -2.620100 574.029297
v -1428.519531 -2.620100 -644.311401
v -505.759796 274.498688 574.029419
v -505.759796 122.026703 574.029419
v -1428.519531 -2.620100 574.029297
v -1428.519531 403.447906 574.029297
v -143.018097 -2.620100 574.029419
v -254.356598 403.447906 574.029419
v -359.314087 122.026703 574.029419
v -359.314087 274.498688 574.029419
v -143.018097 236.939194 574.029419
v 129.614700 403.447906 574.029480
v 20.304899 236.939194 574.029480
v 234.177704 274.684296 574.029480
v 381.452393 274.684296 574.029480
v 234.177704 121.584702 574.029480
v 1302.190674 403.447906 574.029724
v 20.304899 -2.620100 574.029480
v 381.452393 121.584702 574.029480
v 1302.190674 -2.620100 574.029724
v 1302.190674 403.447906 574.029724
v 1302.190674 403.447906 -643.361694
v 1302.190674 -2.620100 -643.361694
v 1302.190674 -2.620100 574.029724
v -357.127594 119.805099 573.103882
v -357.127594 119.805099 583.672119
v -509.683289 119.805099 583.672119
v -509.683289 119.805099 573.103882
v -509.683289 119.805099 573.103882
v -509.683289 119.805099 583.672119
v -509.683502 277.304413 583.672119
v -509.683289 277.304413 573.103882
v -357.127594 278.487488 573.104004
v -357.127594 278.487488 583.672119
v -357.127594 119.805099 583.672119
v -357.127594 119.805099 573.103882
v -375.600494 278.126801 573.104004
v -375.600494 278.126801 583.672119
v -357.127594 278.487488 583.672119
v -357.127594 278.487488 573.104004
v -387.845886 282.613403 573.104004
v -387.845886 282.613403 583.672119
v -375.600494 278.126801 583.672119
v -375.600494 278.126801 573.104004
v -405.816711 286.824890 573.104004
v -405.816711 286.824890 583.672119
v -387.845886 282.613403 583.672119
v -387.845886 282.613403 573.104004
v -430.466309 289.317505 573.104004
v -430.466309 289.317505 583.672119
v -405.816711 286.824890 583.672119
v -405.816711 286.824890 573.104004
v -441.440887 289.317505 573.104004
v -441.440887 289.317505 583.672119
v -430.466309 289.317505 583.672119
v -430.466309 289.317505 573.104004
v -462.114288 286.814789 573.103882
v -462.114288 286.814789 583.672119
v -441.440887 289.317505 583.672119
v -441.440887 289.317505 573.104004
v -481.039093 282.339111 573.103882
v -481.039093 282.339111 583.672119
v -462.114288 286.814789 583.672119
v -462.114288 286.814789 573.103882
v -496.465302 277.235107 573.103882
v -496.465302 277.235107 583.672119
v -481.039093 282.339111 583.672119
v -481.039093 282.339111 573.103882
v -509.683289 277.304413 573.103882
v -509.683502 277.304413 583.672119
v -496.465302 277.235107 583.672119
v -496.465302 277.235107 573.103882
v 384.121185 119.805099 573.104126
v 384.121307 119.805099 583.672180
v 231.565598 119.805099 583.672180
v 231.565399 119.805099 573.104004
v 231.565399 119.805099 573.104004
v 231.565598 119.805099 583.672180
v 231.565399 277.304413 583.672180
v 231.565399 277.304504 573.104126
v 384.121185 278.487488 573.104126
v 384.121307 278.487488 583.672180
v 384.121307 119.805099 583.672180
v 384.121185 119.805099 573.104126
v 365.648285 278.126892 573.104126
v 365.648407 278.126892 583.672180
v 384.121307 278.487488 583.672180
v 384.121185 278.487488 573.104126
v 353.402802 282.613495 573.104126
v 353.402802 282.613495 583.672180
v 365.648407 278.126892 583.672180
v 365.648285 278.126892 573.104126
v 335.432312 286.825012 573.104126
v 335.432312 286.825012 583.672180
v 353.402802 282.613495 583.672180
v 353.402802 282.613495 573.104126
v 310.782501 289.317596 573.104126
v 310.782593 289.317596 583.672180
v 335.432312 286.825012 583.672180
v 335.432312 286.825012 573.104126
v 299.807892 289.317596 573.104126
v 299.807892 289.317596 583.672180
v 310.782593 289.317596 583.672180
v 310.782501 289.317596 573.104126
v 279.134491 286.814911 573.104126
v 279.134491 286.814911 583.672180
v 299.807892 289.317596 583.672180
v 299.807892 289.317596 573.104126
v 260.209686 282.339203 573.104126
v 260.209686 282.339203 583.672180
v 279.134491 286.814911 583.672180
v 279.134491 286.814911 573.104126
v 244.783401 277.235199 573.104126
v 244.783401 277.235199 583.672180
v 260.209686 282.339203 583.672180
v 260.209686 282.339203 573.104126
v 231.565399 277.304504 573.104126
v 231.565399 277.304413 583.672180
v 244.783401 277.235199 583.672180
v 244.783401 277.235199 573.104126
v -1427.345947 419.963715 -636.975525
v -1427.163330 419.963715 570.746216
v -1427.163330 415.461395 570.746216
v -1427.345947 415.461395 -636.975525
v 1297.636841 419.963715 570.746704
v 1297.636597 419.963715 42.264301
v 1297.636597 415.461395 42.448002
v 1297.636841 415.461395 570.746704
v -1427.163330 419.963715 570.746216
v 1297.636841 419.963715 570.746704
v 1297.636841 415.461395 570.746704
v -1427.163330 415.461395 570.746216
v -1431.717041 424.465912 575.299988
v -1427.163330 419.963715 570.746216
v -1427.345947 419.963715 -636.975525
v -1431.898682 424.465912 -641.530029
v 1302.190430 424.465912 42.048401
v 1297.636597 419.963715 42.264301
v 1297.636841 419.963715 570.746704
v 1302.190552 424.465912 575.300415
v 1302.190552 424.465912 575.300415
v 1297.636841 419.963715 570.746704
v -1427.163330 419.963715 570.746216
v -1431.717041 424.465912 575.299988
v -1431.898682 419.963715 -641.530029
v -1431.898682 415.461395 -641.530029
v -1431.717041 415.461395 575.299988
v -1431.717041 419.963715 575.299988
v -1431.717041 424.465912 575.299988
v -1431.898682 424.465912 -641.530029
v 1302.190430 419.963715 -110.069000
v 1302.190552 415.461395 -110.069099
v 1302.190552 415.461395 -641.602417
v 1302.190552 419.963715 -641.602417
v 1302.190552 424.465912 -641.602417
v 1302.190430 424.465912 -110.069000
v 1302.190552 419.963715 -641.602417
v 1302.190552 415.461395 -641.602417
v -1431.898682 415.461395 -641.530029
v -1431.898682 419.963715 -641.530029
v -1431.898682 424.465912 -641.530029
v 1302.190552 424.465912 -641.602417
v -1431.717041 419.963715 575.299988
v -1431.717041 415.461395 575.299988
v 1302.190552 415.461395 575.300415
v 1302.190552 419.963715 575.300415
v 1302.190552 424.465912 575.300415
v -1431.717041 424.465912 575.299988
v -1427.163330 415.461395 570.746216
v -1431.717041 415.461395 575.299988
v -1431.898682 415.461395 -641.530029
v -1427.345947 415.461395 -636.975525
v 1297.636841 415.461395 570.746704
v 1297.636597 415.461395 42.448002
v 1302.190674 415.461395 42.415798
v 1302.190552 415.461395 575.300415
v 1297.636841 415.461395 570.746704
v 1302.190552 415.461395 575.300415
v -1431.717041 415.461395 575.299988
v -1427.163330 415.461395 570.746216
v -1427.345947 415.461395 -636.975525
v 1297.635986 415.461395 -637.049377
v 1297.635986 419.963715 -637.049377
v -1427.345947 419.963715 -636.975525
v -1427.345947 419.963715 -636.975525
v 1297.635986 419.963715 -637.049377
v 1302.190552 424.465912 -641.602417
v -1431.898682 424.465912 -641.530029
v -1431.898682 415.461395 -641.530029
v 1302.190552 415.461395 -641.602417
v 1297.635986 415.461395 -637.049377
v -1427.345947 415.461395 -636.975525
v 1297.635986 419.963715 -637.049377
v 1297.635986 415.461395 -637.049377
v 1297.636475 415.461395 -110.148399
v 1297.636475 419.963715 -110.148399
v 1302.190430 424.465912 -110.069000
v 1302.190552 424.465912 -641.602417
v 1297.635986 419.963715 -637.049377
v 1297.636475 419.963715 -110.148399
v 1297.635986 415.461395 -637.049377
v 1302.190552 415.461395 -641.602417
v 1302.190552 415.461395 -110.069099
v 1297.636475 415.461395 -110.148399
v 1302.190552 419.963715 575.300415
v 1302.190552 415.461395 575.300415
v 1302.190674 415.461395 42.415798
v 1302.190430 419.963715 42.232101
v 1302.190552 424.465912 575.300415
v 1302.190552 419.963715 575.300415
v 1302.190430 419.963715 42.232101
v 1302.190430 424.465912 42.048401
v -1423.966553 1.122900 -639.756775
v -1423.966064 1.122900 569.475525
v -1423.966064 -3.379400 569.475525
v -1423.966553 -3.379400 -639.756775
v 1297.636841 1.122900 569.476013
v 1297.635986 1.122900 -638.808716
v 1297.635986 -3.379400 -638.808716
v 1297.636841 -3.379400 569.476013
v 1297.635986 1.122900 -638.808716
v 12.162400 1.122900 -639.256592
v 12.162400 -3.379400 -639.256470
v 1297.635986 -3.379400 -638.808716
v -1423.966064 1.122900 569.475525
v 1297.636841 1.122900 569.476013
v 1297.636841 -3.379400 569.476013
v -1423.966064 -3.379400 569.475525
v -1428.519775 5.625100 574.029297
v -1423.966064 1.122900 569.475525
v -1423.966553 1.122900 -639.756775
v -1428.519775 5.625100 -644.311401
v 1302.190552 5.625100 -643.361694
v 1297.635986 1.122900 -638.808716
v 1297.636841 1.122900 569.476013
v 1302.190552 5.625100 574.029724
v 12.082900 5.625100 -643.810425
v 12.162400 1.122900 -639.256592
v 1297.635986 1.122900 -638.808716
v 1302.190552 5.625100 -643.361694
v 1302.190552 5.625100 574.029724
v 1297.636841 1.122900 569.476013
v -1423.966064 1.122900 569.475525
v -1428.519775 5.625100 574.029297
v -1428.519775 1.122900 -644.311401
v -1428.519775 -3.379400 -644.311401
v -1428.519775 -3.379400 574.029297
v -1428.519775 1.122900 574.029297
v -1428.519775 5.625100 574.029297
v -1428.519775 5.625100 -644.311401
v 1302.190552 1.122900 574.029724
v 1302.190552 -3.379400 574.029724
v 1302.190552 -3.379400 -643.361694
v 1302.190552 1.122900 -643.361694
v 1302.190552 5.625100 -643.361694
v 1302.190552 5.625100 574.029724
v -138.697998 1.122900 -643.862793
v -138.697998 -3.379400 -643.862793
v -1428.519775 -3.379400 -644.311401
v -1428.519775 1.122900 -644.311401
v -1428.519775 5.625100 -644.311401
v -138.697998 5.625100 -643.862793
v -1428.519775 1.122900 574.029297
v -1428.519775 -3.379400 574.029297
v 1302.190552 -3.379400 574.029724
v 1302.190552 1.122900 574.029724
v 1302.190552 5.625100 574.029724
v -1428.519775 5.625100 574.029297
v -1423.966064 -3.379400 569.475525
v -1428.519775 -3.379400 574.029297
v -1428.519775 -3.379400 -644.311401
v -1423.966553 -3.379400 -639.756775
v 1297.635986 -3.379400 -638.808716
v 1302.190552 -3.379400 -643.361694
v 1302.190552 -3.379400 574.029724
v 1297.636841 -3.379400 569.476013
v 12.162400 -3.379400 -639.256470
v 12.082900 -3.379400 -643.810303
v 1302.190552 -3.379400 -643.361694
v 1297.635986 -3.379400 -638.808716
v 1297.636841 -3.379400 569.476013
v 1302.190552 -3.379400 574.029724
v -1428.519775 -3.379400 574.029297
v -1423.966064 -3.379400 569.475525
v -1423.966553 1.122900 -639.756775
v -1423.966553 -3.379400 -639.756775
v -138.618500 -3.379400 -639.309021
v -138.618500 1.122900 -639.309082
v -1428.519775 5.625100 -644.311401
v -1423.966553 1.122900 -639.756775
v -138.618500 1.122900 -639.309082
v -138.697998 5.625100 -643.862793
v -1423.966553 -3.379400 -639.756775
v -1428.519775 -3.379400 -644.311401
v -138.697998 -3.379400 -643.862793
v -138.618500 -3.379400 -639.309021
v 1302.190552 1.122900 -643.361694
v 1302.190552 -3.379400 -643.361694
v 12.082900 -3.379400 -643.810303
v 12.082900 1.122900 -643.810425
v 1302.190552 5.625100 -643.361694
v 1302.190552 1.122900 -643.361694
v 12.082900 1.122900 -643.810425
v 12.082900 5.625100 -643.810425
v -1082.361084 1302.448975 314.801514
v -1044.734619 1307.642212 250.659393
v 934.543274 1307.617798 250.624893
v 993.532776 1302.417969 314.832092
v 993.532776 1302.417969 314.832092
v 934.543274 1307.617798 250.624893
v 934.532715 1307.615479 -331.694702
v 993.541077 1302.407471 -404.079712
v 934.532715 1307.615479 -331.694702
v -1044.720703 1307.641113 -331.724396
v -1082.370605 1302.433350 -404.052704
v 993.541077 1302.407471 -404.079712
v -1044.720703 1307.641113 -331.724396
v -1044.734619 1307.642212 250.659393
v -1082.361084 1302.448975 314.801514
v -1082.370605 1302.433350 -404.052704
v -1082.439087 911.727783 314.917114
v -1082.439087 911.727783 -404.163086
v -1082.370605 1302.433350 -404.052704
v -1082.361084 1302.448975 314.801514
v -1082.439087 911.727783 314.917114
v 993.612427 911.727783 314.917114
v 872.412109 914.644104 183.171494
v -1004.560486 914.644104 183.171494
v 993.612427 911.727783 314.917114
v 993.612427 911.727783 -404.163086
v 872.412109 914.644104 -255.959106
v 872.412109 914.644104 183.171494
v -1082.439087 911.727783 -404.163086
v -1004.560486 914.644104 -255.959106
v 872.412109 914.644104 -255.959106
v 993.612427 911.727783 -404.163086
v -1082.439087 911.727783 314.917114
v -1004.560486 914.644104 183.171494
v -1004.560486 914.644104 -255.959106
v -1082.439087 911.727783 -404.163086
v 993.612427 911.727783 314.917114
v -1082.439087 911.727783 314.917114
v -1082.361084 1302.448975 314.801514
v 993.532776 1302.417969 314.832092
v 993.541077 1302.407471 -404.079712
v 993.612427 911.727783 -404.163086
v 993.612427 911.727783 314.917114
v 993.532776 1302.417969 314.832092
v -1082.370605 1302.433350 -404.052704
v -1082.439087 911.727783 -404.163086
v 993.612427 911.727783 -404.163086
v 993.541077 1302.407471 -404.079712
v 935.004211 1314.490112 251.036194
v -1045.491699 1314.490112 251.036194
v -1086.422852 1316.388428 318.900787
v 997.596191 1330.769287 318.900787
v 935.004211 1314.490112 -332.052887
v 935.004211 1314.490112 251.036194
v 997.596191 1330.769287 318.900787
v 997.596191 1330.769287 -408.146790
v -1086.422852 1316.388428 -408.146790
v -1045.491699 1314.490112 -332.052887
v 935.004211 1314.490112 -332.052887
v 997.596191 1330.769287 -408.146790
v -1086.422852 1316.388428 318.900787
v -1045.491699 1314.490112 251.036194
v -1045.491699 1314.490112 -332.052887
v -1086.422852 1316.388428 -408.146790
v -1086.422852 907.744080 318.900787
v -1086.422852 1316.388428 318.900787
v -1086.422852 1316.388428 -408.146790
v -1086.422852 907.744080 -408.146790
v 872.412109 907.744080 183.171494
v 997.596130 907.744080 318.900787
v -1086.422852 907.744080 318.900787
v -1004.560486 907.744080 183.171494
v 872.412109 907.744080 -255.959106
v -1004.560486 907.744080 -255.959106
v 997.596130 907.744080 -408.146790
v -1086.422852 907.744080 -408.146790
v 997.596130 907.744080 318.900787
v 997.596191 1330.769287 318.900787
v -1086.422852 1316.388428 318.900787
v -1086.422852 907.744080 318.900787
v 997.596191 1330.769287 -408.146790
v 997.596191 1330.769287 318.900787
v 997.596130 907.744080 318.900787
v 997.596130 907.744080 -408.146790
v -1086.422852 1316.388428 -408.146790
v 997.596191 1330.769287 -408.146790
v 997.596130 907.744080 -408.146790
v -1086.422852 907.744080 -408.146790
v -1044.734619 1307.642212 250.659393
v -1045.491699 1314.490112 251.036194
v 935.004211 1314.490112 251.036194
v 934.543274 1307.617798 250.624893
v 934.543274 1307.617798 250.624893
v 935.004211 1314.490112 251.036194
v 935.004211 1314.490112 -332.052887
v 934.532715 1307.615479 -331.694702
v 934.532715 1307.615479 -331.694702
v 935.004211 1314.490112 -332.052887
v -1045.491699 1314.490112 -332.052887
v -1044.720703 1307.641113 -331.724396
v -1044.720703 1307.641113 -331.724396
v -1045.491699 1314.490112 -332.052887
v -1045.491699 1314.490112 251.036194
v -1044.734619 1307.642212 250.659393
v 872.412109 914.644104 183.171494
v 872.412109 907.744080 183.171494
v -1004.560486 907.744080 183.171494
v -1004.560486 914.644104 183.171494
v 872.412109 914.644104 -255.959106
v 872.412109 907.744080 -255.959106
v 872.412109 907.744080 183.171494
v 872.412109 914.644104 183.171494
v -1004.560486 914.644104 -255.959106
v -1004.560486 907.744080 -255.959106
v 872.412109 907.744080 -255.959106
v 872.412109 914.644104 -255.959106
v -1004.560486 914.644104 183.171494
v -1004.560486 907.744080 183.171494
v -1004.560486 907.744080 -255.959106
v -1004.560486 914.644104 -255.959106
v -1864.387817 -126.442497 -1136.435547
v 1744.097778 -126.442497 -1136.435547
v 1744.097778 -126.442497 1037.115967
v -1864.387817 -126.442497 1037.115967
v 1744.097778 -126.442497 1037.115967
v 1746.692871 1334.981567 1039.711182
v -1866.982910 1334.981567 1039.711182
v -1864.387817 -126.442497 1037.115967
v 1744.097778 -126.442497 -1136.435547
v 1746.692871 1334.981567 -1139.030518
v 1746.692871 1334.981567 1039.711182
v 1744.097778 -126.442497 1037.115967
v -1864.387817 -126.442497 -1136.435547
v -1866.982910 1334.981567 -1139.030518
v 1746.692871 1334.981567 -1139.030518
v 1744.097778 -126.442497 -1136.435547
v -1864.387817 -126.442497 1037.115967
v -1866.982910 1334.981567 1039.711182
v -1866.982910 1334.981567 -1139.030518
v -1864.387817 -126.442497 -1136.435547
v -1852.840820 -114.895500 -1124.888428
v -1852.840820 -114.895500 1025.569092
v 1732.550781 -114.895500 1025.569092
v 1732.550781 -114.895500 -1124.888428
v 1732.550781 -114.895500 1025.569092
v -1852.840820 -114.895500 1025.569092
v -1852.840820 1347.195801 1025.569092
v 1732.550781 1347.195801 1025.569092
v 1732.550781 -114.895500 -1124.888428
v 1732.550781 -114.895500 1025.569092
v 1732.550781 1347.195801 1025.569092
v 1732.550781 1347.195801 -1124.888428
v -1852.840820 -114.895500 -1124.888428
v 1732.550781 -114.895500 -1124.888428
v 1732.550781 1347.195801 -1124.888428
v -1852.840820 1347.195801 -1124.888428
v -1852.840820 -114.895500 1025.569092
v -1852.840820 -114.895500 -1124.888428
v -1852.840820 1347.195801 -1124.888428
v -1852.840820 1347.195801 1025.569092
v 1746.692871 1334.981567 1039.711182
v 1732.550781 1347.195801 1025.569092
v -1852.840820 1347.195801 1025.569092
v 1746.692871 1334.981567 -1139.030518
v -1866.982910 1334.981567 1039.711182
v 1732.550781 1347.195801 -1124.888428
v -1852.840820 1347.195801 -1124.888428
v -1866.982910 1334.981567 -1139.030518
v -1866.982910 1334.981567 -1139.030518
v -1852.840820 1347.195801 -1124.888428
v 1380.603271 -115.979103 -782.520325
v 1380.603271 -115.979103 674.756775
v -1504.468262 -115.979103 674.756775
v -1504.468262 -115.979103 -782.520325
v 1380.603394 1271.037109 674.756775
v -1504.468262 1271.037109 674.756775
v -1504.468262 -115.979103 674.756775
v 1380.603271 -115.979103 674.756775
v 1380.603394 1271.037109 -782.520325
v 1380.603394 1271.037109 674.756775
v 1380.603271 -115.979103 674.756775
v 1380.603271 -115.979103 -782.520325
v -1504.468262 1271.037109 -782.520325
v 1380.603394 1271.037109 -782.520325
v 1380.603271 -115.979103 -782.520325
v -1504.468262 -115.979103 -782.520325
v -1504.468262 1271.037109 674.756775
v -1504.468262 1271.037109 -782.520325
v -1504.468262 -115.979103 -782.520325
v -1504.468262 -115.979103 674.756775
vn 1.0000 -0.0000 -0.0000
vn -0.0000 -0.0000 -1.0000
vn -1.0000 -0.0000 -0.0000
vn -0.0000 -0.0000 1.0000
vn -0.0000 -0.9927 -0.1208
vn -0.1308 -0.9914 -0.0000
vn -0.0000 -0.9942 0.1079
vn 0.1978 -0.9802 -0.0000
vn -0.0000 1.0000 -0.0000
vn -0.0000 -0.9864 0.1641
vn 0.1775 -0.9841 -0.0000
vn 0.1776 -0.9841 -0.0000
vn -0.0000 -0.9892 -0.1468
vn -0.2660 -0.9640 -0.0000
vn -1.0000 -0.0005 0.0002
vn -1.0000 -0.0012 0.0005
vn -1.0000 -0.0027 0.0012
vn -1.0000 -0.0014 0.0024
vn -1.0000 -0.0000 0.0016
vn -1.0000 -0.0000 0.0063
vn -1.0000 0.0014 0.0024
vn -1.0000 0.0005 0.0002
vn -1.0000 0.0027 0.0012
vn -1.0000 0.0012 0.0005
vn -0.0002 -0.0015 1.0000
vn -0.0000 -0.0002 1.0000
vn -0.0005 -0.0032 1.0000
vn -0.0018 -0.0018 1.0000
vn -0.0015 -0.0000 1.0000
vn -0.0063 -0.0000 1.0000
vn -0.0018 0.0018 1.0000
vn -0.0000 0.0002 1.0000
vn -0.0005 0.0032 1.0000
vn -0.0002 0.0015 1.0000
vn -0.0000 -1.0000 -0.0000
vn -0.0195 0.9998 -0.0000
vn 0.3440 0.9390 -0.0000
vn 0.2282 0.9736 -0.0000
vn 0.1006 0.9949 -0.0000
vn -0.1202 0.9928 -0.0000
vn -0.2302 0.9732 -0.0000
vn -0.2301 0.9732 -0.0000
vn -0.3141 0.9494 -0.0000
vn 0.0052 1.0000 -0.0000
vn 1.0000 -0.0000 -0.0002
vn 0.4051 0.8196 -0.4052
vn 0.4053 0.8196 0.4050
vn 0.4052 0.8196 0.4052
vn -0.7031 0.7111 -0.0000
vn -0.4052 0.8196 -0.4052
vn -0.4052 0.8195 -0.4052
vn -1.0000 -0.0000 0.0001
vn -0.4051 0.8196 0.4052
vn -0.4052 0.8196 0.4051
vn 0.4052 0.8195 0.4052
vn -0.7030 0.7111 -0.0000
vn 1.0000 0.0001 -0.0000
vn -0.0003 -0.0000 1.0000
vn 0.4052 0.8195 -0.4052
vn 0.4052 0.8196 -0.4052
vn 0.4051 0.8196 0.4052
vn -0.0002 0.7111 0.7031
vn 0.4052 0.8196 -0.4051
vn 0.0003 -0.0000 -1.0000
vn -0.0000 -0.9967 -0.0807
vn -0.0878 -0.9961 -0.0000
vn -0.0879 -0.9961 -0.0000
vn -0.0000 -0.9974 0.0718
vn 0.1367 -0.9906 -0.0000
vn 0.1370 -0.9906 -0.0000
vn 1.0000 -0.0002 -0.0000
vn -0.0000 0.9998 0.0221
vn 0.0241 0.9997 -0.0000
vn -0.0000 0.9998 -0.0197
vn -0.0374 0.9993 -0.0000
vn -0.0000 -0.0003 -1.0000
vn -0.0000 -0.0002 -1.0000
vn -1.0000 -0.0002 -0.0000
vn -0.0000 -0.0003 1.0000
vn -0.0035 0.9912 -0.1323
vn -0.0035 0.9912 -0.1321
vn -0.2517 0.9678 -0.0000
vn -0.0035 0.9930 0.1181
vn -0.0035 0.9930 0.1180
vn 0.0463 0.9989 -0.0000
vn -0.0000 0.0550 -0.9985
vn -0.0000 0.0549 -0.9985
vn -0.0000 0.0597 -0.9982
vn -0.9978 0.0669 -0.0000
vn -0.9977 0.0684 -0.0000
vn -0.0000 0.0520 0.9986
vn -0.0000 0.0479 0.9989
vn 0.9937 0.1119 -0.0000
vn 0.9939 0.1099 -0.0000
vn -0.0000 -0.0018 1.0000
vn 1.0000 -0.0018 -0.0000
vn -0.0000 -0.0018 -1.0000
vn -1.0000 -0.0018 -0.0000
vn 0.3685 0.8534 0.3685
vn -0.3685 0.8534 0.3685
vn 0.3685 0.8534 -0.3685
vn -0.3685 0.8535 -0.3685
vn -0.3685 0.8534 -0.3686
vt 16.455500 0.360800
vt 16.455500 0.681900
vt 18.603100 0.681900
vt 18.603100 0.360800
vt 8.643900 0.360900
vt 8.643900 0.681900
vt 6.496300 0.360900
vt 6.496300 0.681900
vt -1.315300 0.360900
vt -1.315300 0.681900
vt 5.180400 -0.557200
vt 5.339700 -0.024800
vt 5.180400 0.797200
vt 5.021400 -0.026800
vt 5.632400 0.238000
vt 4.728400 0.232900
vt 6.109700 0.797200
vt 6.109700 0.356300
vt 4.276300 0.797200
vt 6.561700 0.232900
vt 4.276300 0.356300
vt 3.824300 0.238000
vt 7.013700 0.797200
vt 3.372200 0.797200
vt 6.888900 -0.026800
vt 7.013700 -0.557200
vt 7.206700 -0.024800
vt 7.481600 0.215600
vt 7.938600 0.797200
vt 7.938800 0.356300
vt 8.390700 0.232800
vt 8.856400 0.796500
vt 8.683200 -0.027000
vt 8.859400 -0.557100
vt 3.531500 -0.024800
vt 3.372200 -0.557200
vt 3.179400 -0.024800
vt 2.886700 0.238000
vt 2.434700 0.797200
vt 2.434700 0.356300
vt 1.982600 0.232900
vt 1.530600 0.797200
vt 1.689600 -0.026800
vt 1.530600 -0.557200
vt 1.371300 -0.024800
vt 1.078500 0.238000
vt 0.626500 0.797200
vt 0.626500 0.356300
vt 0.174500 0.232900
vt -0.272100 0.795400
vt -0.118600 -0.026800
vt -0.277600 -0.557200
vt 9.128300 -0.100200
vt 9.418000 0.100800
vt 9.707700 0.231500
vt 9.893100 0.797200
vt 9.893100 0.234500
vt 8.828800 -0.557200
vt 8.828800 0.797200
vt 8.855400 0.796600
vt -0.274100 0.795000
vt -0.088300 -0.445200
vt -0.057000 -0.446100
vt -0.088300 0.681400
vt 0.036500 -0.100200
vt 0.219600 0.063200
vt 0.428200 0.681400
vt 0.428200 0.172500
vt 0.636900 0.063200
vt 0.858300 0.681400
vt 0.820000 -0.100200
vt 0.858300 -0.241900
vt 0.896600 -0.100200
vt 1.079700 0.063200
vt 1.288300 0.681400
vt 1.288300 0.172500
vt 1.497000 0.081500
vt 1.766400 0.681400
vt 1.680100 -0.094800
vt 1.776200 -0.328600
vt 1.834300 -0.194400
vt 1.968800 0.004900
vt 2.152200 0.129300
vt 2.268000 0.681400
vt 2.268000 0.181800
vt 2.361300 0.151900
vt 2.693600 0.681400
vt 2.561400 0.012700
vt 2.693600 -0.155800
vt 2.816100 -0.036600
vt 2.969500 0.093400
vt 3.122900 0.681400
vt 3.122900 0.157500
vt 3.299600 0.077000
vt 3.609100 0.681400
vt 3.476400 -0.087300
vt 3.609100 -0.358100
vt 3.756700 -0.038000
vt 3.949000 0.096100
vt 4.096600 0.681400
vt 4.096600 0.169800
vt 4.226300 0.104200
vt 4.529300 0.681400
vt 4.390300 -0.013600
vt 4.529300 -0.155600
vt 22.723301 -0.445200
vt 22.723301 0.681400
vt 22.673401 -0.444900
vt 22.560900 -0.177000
vt 22.416700 0.010100
vt 22.128201 0.681400
vt 22.128201 0.148200
vt 21.647600 0.681400
vt 21.839600 0.010100
vt 21.695400 -0.177000
vt 21.647600 -0.249200
vt 21.599800 -0.177000
vt 21.455500 0.010100
vt 21.167000 0.148200
vt 21.167000 0.681400
vt 20.878500 0.010100
vt 20.571800 0.681400
vt 20.734200 -0.177000
vt 20.635099 -0.444900
vt 20.571800 -0.445200
vt 20.540600 -0.446100
vt 20.447100 -0.100200
vt 20.264000 0.063200
vt 20.055300 0.681400
vt 20.055300 0.172500
vt 19.846600 0.063200
vt 19.625200 0.681400
vt 19.663500 -0.100200
vt 19.625200 -0.241900
vt 19.587000 -0.100200
vt 19.403900 0.063200
vt 19.195200 0.681400
vt 19.195200 0.172500
vt 18.986500 0.081500
vt 18.717199 0.681400
vt 18.803400 -0.094800
vt 18.707300 -0.328600
vt 18.649200 -0.194400
vt 18.514799 0.004900
vt 18.331400 0.129300
vt 18.215599 0.681400
vt 18.215599 0.181800
vt 18.122200 0.151900
vt 17.790001 0.681400
vt 17.922100 0.012700
vt 17.790001 -0.155800
vt 17.667400 -0.036600
vt 17.514000 0.093400
vt 17.360600 0.681400
vt 17.360600 0.157500
vt 17.183901 0.077000
vt 16.874399 0.681400
vt 17.007200 -0.087300
vt 16.874399 -0.358100
vt 16.726900 -0.038000
vt 16.534500 0.096100
vt 16.386900 0.681400
vt 16.386900 0.169800
vt 16.257299 0.104200
vt 15.954200 0.681400
vt 16.093300 -0.013600
vt 15.972200 -0.155400
vt 0.064400 -0.100200
vt 0.927400 -0.100200
vt 1.811700 -0.328600
vt 1.851400 -0.194400
vt 1.980200 0.004900
vt 2.728300 -0.155800
vt 3.636800 -0.358100
vt 3.780500 -0.038000
vt 20.424101 -0.100200
vt 19.550400 -0.100200
vt 18.676201 -0.328600
vt 18.634001 -0.194400
vt 18.504400 0.004900
vt 17.754499 -0.155800
vt 16.853500 -0.358100
vt 16.704000 -0.038000
vt 15.936700 -0.155600
vt 1.165300 0.448200
vt 1.165300 0.000900
vt 2.022200 0.000900
vt 1.048700 1.496100
vt 2.022200 1.841400
vt 0.945700 1.453400
vt 1.049200 1.691800
vt 0.944100 0.448200
vt 0.955000 1.841400
vt 0.945700 1.728100
vt 0.847200 1.679500
vt 0.722800 0.448200
vt -0.112100 1.841400
vt 0.846500 1.500200
vt -0.112100 0.000900
vt 0.722800 0.000900
vt 11.205100 0.000900
vt 13.339400 0.000900
vt 13.339400 1.841400
vt 11.205100 1.841400
vt 8.222800 0.448200
vt 8.661800 0.448200
vt 9.315100 1.524000
vt 8.661800 0.000900
vt 9.359500 0.000900
vt 9.434100 1.447100
vt 10.044400 0.000900
vt 10.044400 0.448200
vt 9.532400 1.489800
vt 9.529200 1.683900
vt 10.480700 0.448200
vt 10.480700 0.000900
vt 9.825400 1.841400
vt 9.434100 1.725400
vt 8.445700 1.841400
vt 9.326900 1.673800
vt 7.711400 1.686400
vt 7.540100 1.841400
vt 7.717600 1.488300
vt 7.615300 1.725400
vt 7.512600 1.680100
vt 7.615300 1.447100
vt 8.224700 0.000900
vt 6.634500 1.841400
vt 7.540700 0.000900
vt 7.512600 1.489800
vt 6.856700 0.448200
vt 6.856700 0.000900
vt 6.419800 0.448200
vt 5.740800 1.680600
vt 5.728200 1.841400
vt 5.747900 1.495000
vt 5.638900 1.725400
vt 5.539600 1.674700
vt 5.638900 1.447100
vt 6.419800 0.000900
vt 4.821800 1.841400
vt 5.729000 0.000900
vt 5.027100 0.448200
vt 5.027100 0.000900
vt 5.538300 1.493700
vt 4.597900 0.448200
vt 3.939200 1.514500
vt 3.911300 1.690600
vt 3.826200 1.725400
vt 3.826200 1.447100
vt 3.422000 1.841400
vt 4.597900 0.000900
vt 3.730300 1.685000
vt 3.906300 0.000900
vt 3.208900 0.448200
vt 3.208900 0.000900
vt 3.702800 1.525000
vt 2.770200 0.448200
vt 2.770200 0.000900
vt 10.482900 0.448200
vt 10.482900 0.000900
vt 8.661200 0.448200
vt 8.661200 0.000900
vt 6.425800 0.448200
vt 6.425800 0.000900
vt 5.029900 0.448200
vt 5.029900 0.000900
vt 3.205600 0.448200
vt 3.205600 0.000900
vt 0.803300 2.341700
vt 0.889900 2.485300
vt 5.080500 2.485300
vt 5.213000 2.341700
vt 5.080500 3.719100
vt 5.213000 3.880100
vt 0.889900 3.719100
vt 0.803300 3.880100
vt 0.000000 2.341700
vt 0.000000 3.880100
vt 0.803300 1.538400
vt 5.213000 1.538400
vt 4.948100 1.251200
vt 0.976500 1.251200
vt 4.948100 0.322000
vt 0.976500 0.322000
vt 5.213000 0.000000
vt 0.803300 0.000000
vt 6.016300 3.880100
vt 6.016300 2.341700
vt 0.803300 4.683400
vt 5.213000 4.683400
vt 0.976500 2.628900
vt 4.948100 2.628900
vt 4.948100 3.558100
vt 0.976500 3.558100
vt 11.303200 0.000000
vt 11.303200 1.293700
vt 9.774000 0.615000
vt 9.774000 0.000000
vt 9.740200 0.721400
vt 9.667000 0.815200
vt 9.560100 1.293700
vt 9.560100 0.860000
vt 9.453100 0.815200
vt 7.823500 1.293700
vt 9.379700 0.724400
vt 9.346100 0.615000
vt 7.823500 0.000000
vt 9.346100 0.000000
vt 19.129400 0.000000
vt 19.129400 1.293700
vt 22.609100 0.000000
vt 22.609100 1.293700
vt 0.000000 1.293700
vt 0.000000 0.000000
vt 0.000000 0.987700
vt 4.853800 0.987700
vt 4.853800 1.799400
vt 0.000000 2.515100
vt 4.898200 1.939100
vt 4.994300 2.062400
vt 5.134900 2.515100
vt 5.134900 2.121200
vt 5.275400 2.062400
vt 10.271000 2.515100
vt 5.371700 1.943100
vt 5.415900 1.799400
vt 10.271000 0.987700
vt 5.415900 0.987700
vt 29.703600 2.515100
vt 25.121099 2.515100
vt 25.121099 0.987700
vt 29.703600 0.987700
vt 21.650299 2.030000
vt 21.650299 1.456500
vt 20.285900 0.987700
vt 20.704700 2.515100
vt 21.099501 1.456500
vt 21.099501 2.030000
vt 20.285900 1.888800
vt 19.260401 2.515100
vt 19.671600 1.888800
vt 18.867201 2.030700
vt 18.313200 2.030700
vt 18.867201 1.454900
vt 14.850000 2.515100
vt 19.671600 0.987700
vt 18.313200 1.454900
vt 14.850000 0.987700
vt 0.493700 0.000000
vt 0.848100 0.000000
vt 0.848100 0.386100
vt 0.493700 0.389000
vt 0.536600 0.388100
vt 0.565100 0.399100
vt 0.606800 0.409400
vt 0.664100 0.415500
vt 0.689600 0.415500
vt 0.737600 0.409400
vt 0.781600 0.398400
vt 0.817400 0.385900
vt 18.462900 1.096100
vt 22.150400 1.096100
vt 22.150400 1.120600
vt 18.462900 1.120600
vt 6.479000 1.096100
vt 8.086700 1.096100
vt 8.086100 1.120600
vt 6.479000 1.120600
vt -1.820400 1.096100
vt -1.820400 1.120600
vt 22.164301 1.071600
vt 18.449100 1.071600
vt 8.087300 1.071600
vt 6.465100 1.071600
vt 6.492900 1.071600
vt -1.834300 1.071600
vt 18.449100 1.047100
vt 18.449100 1.022600
vt 22.164301 1.022600
vt 22.164301 1.047100
vt 8.551200 1.047100
vt 8.551200 1.022600
vt 10.177500 1.022600
vt 10.177500 1.047100
vt 10.177500 1.071600
vt 8.551200 1.071600
vt 11.029500 1.047100
vt 11.029500 1.022600
vt 18.476801 1.022600
vt 18.476801 1.047100
vt 18.476801 1.071600
vt 11.029500 1.071600
vt -1.834300 1.047100
vt -1.834300 1.022600
vt 6.492900 1.022600
vt 6.492900 1.047100
vt 22.164301 1.125700
vt 18.449100 1.125700
vt 8.086200 1.125700
vt 6.465100 1.125700
vt 6.492900 1.125700
vt -1.834300 1.125700
vt 11.043200 1.120600
vt 11.043200 1.096100
vt 11.041900 1.102900
vt 11.029500 1.078400
vt 18.476801 1.126200
vt 11.030800 1.122900
vt 11.043200 1.117800
vt 10.163600 1.096100
vt 10.163600 1.120600
vt 8.551500 1.120600
vt 8.551500 1.096100
vt 10.177500 1.125700
vt 8.551200 1.125700
vt 6.465100 1.047100
vt 6.465100 1.022600
vt 8.086200 1.022600
vt 8.086800 1.047100
vt 8.333000 1.198600
vt 14.896000 1.198600
vt 14.896000 1.260500
vt 8.333000 1.260500
vt -12.996200 1.198600
vt -6.438300 1.198600
vt -6.438300 1.260500
vt -12.996200 1.260500
vt 0.538500 1.198600
vt 0.538500 1.260500
vt -27.767700 1.198600
vt -27.767700 1.260500
vt 14.920800 1.136700
vt 8.308300 1.136700
vt -6.413600 1.136700
vt -13.021000 1.136700
vt 0.538900 1.136700
vt -6.463100 1.136700
vt -12.971500 1.136700
vt -27.792400 1.136700
vt 8.308300 1.074800
vt 8.308300 1.012800
vt 14.920800 1.012800
vt 14.920800 1.074800
vt -13.021000 1.074800
vt -13.021000 1.012800
vt -6.413600 1.012800
vt -6.413600 1.074800
vt 1.357300 1.074800
vt 1.357300 1.012800
vt 8.357700 1.012800
vt 8.357700 1.074800
vt 8.357700 1.136700
vt 1.357300 1.136700
vt -27.792400 1.074800
vt -27.792400 1.012800
vt -12.971500 1.012800
vt -12.971500 1.074800
vt 14.920800 1.273400
vt 8.308300 1.273400
vt -6.413600 1.273400
vt -13.021000 1.273400
vt 0.538900 1.273300
vt -6.463100 1.272000
vt -12.971500 1.273400
vt -27.792400 1.273400
vt 1.356800 1.260500
vt 1.356800 1.198600
vt 8.357700 1.274700
vt 1.357300 1.273500
vt -6.463100 1.074800
vt -6.463100 1.012800
vt 0.538900 1.012800
vt 0.538900 1.074800
vt 18.410400 2.685700
vt 9.231800 2.685700
vt 9.231800 -2.819400
vt 18.410400 -2.819400
vt 9.231800 -6.575600
vt 18.410400 -6.575600
vt 3.726600 -2.819400
vt 3.726600 -6.575600
vt -5.452000 -2.819400
vt -5.452000 -6.575600
vt 23.915501 -6.575600
vt 23.915501 -2.819400
vt -3.643200 0.000000
vt -3.643200 -3.643200
vt -10.855900 -3.643200
vt -10.855900 0.000000
vt -0.000000 3.558800
vt 7.212700 3.558800
vt 7.212700 0.000000
vt -3.643200 3.558800
vt -10.855900 3.558800
vt -14.499100 3.558800
vt -14.499100 0.000000
s 0
f 1/1/1 2/2/1 3/3/1
f 1/1/1 3/3/1 4/4/1
f 5/5/2 6/6/2 7/2/2
f 5/5/2 7/2/2 8/1/2
f 9/5/3 10/7/3 11/8/3
f 9/5/3 11/8/3 12/6/3
f 13/7/4 14/9/4 15/10/4
f 13/7/4 15/10/4 16/8/4
f 17/11/2 18/12/2 19/13/2
f 17/11/2 19/13/2 20/14/2
f 18/12/2 21/15/2 19/13/2
f 20/14/2 19/13/2 22/16/2
f 21/15/2 23/17/2 19/13/2
f 21/15/2 24/18/2 23/17/2
f 22/16/2 19/13/2 25/19/2
f 26/20/2 23/17/2 24/18/2
f 22/16/2 25/19/2 27/21/2
f 28/22/2 27/21/2 25/19/2
f 26/20/2 29/23/2 23/17/2
f 28/22/2 25/19/2 30/24/2
f 31/25/2 29/23/2 26/20/2
f 32/26/2 29/23/2 31/25/2
f 32/26/2 33/27/2 29/23/2
f 33/27/2 34/28/2 29/23/2
f 34/28/2 35/29/2 29/23/2
f 34/28/2 36/30/2 35/29/2
f 37/31/2 35/29/2 36/30/2
f 37/31/2 38/32/2 35/29/2
f 39/33/2 38/32/2 37/31/2
f 40/34/2 38/32/2 39/33/2
f 41/35/2 28/22/2 30/24/2
f 42/36/2 41/35/2 30/24/2
f 42/36/2 30/24/2 43/37/2
f 43/37/2 30/24/2 44/38/2
f 44/38/2 30/24/2 45/39/2
f 44/38/2 45/39/2 46/40/2
f 47/41/2 46/40/2 45/39/2
f 47/41/2 45/39/2 48/42/2
f 49/43/2 47/41/2 48/42/2
f 50/44/2 49/43/2 48/42/2
f 50/44/2 48/42/2 51/45/2
f 51/45/2 48/42/2 52/46/2
f 52/46/2 48/42/2 53/47/2
f 52/46/2 53/47/2 54/48/2
f 55/49/2 54/48/2 53/47/2
f 55/49/2 53/47/2 56/50/2
f 57/51/2 55/49/2 56/50/2
f 58/52/2 57/51/2 56/50/2
f 59/34/1 60/53/1 61/32/1
f 60/53/1 62/54/1 61/32/1
f 62/54/1 63/55/1 61/32/1
f 63/55/1 64/56/1 61/32/1
f 63/55/1 65/57/1 64/56/1
f 66/58/3 67/59/3 68/53/3
f 68/53/3 67/59/3 69/54/3
f 69/54/3 67/59/3 70/55/3
f 70/55/3 67/59/3 71/56/3
f 70/55/3 71/56/3 72/57/3
f 73/11/4 74/13/4 75/12/4
f 73/11/4 76/14/4 74/13/4
f 75/12/4 74/13/4 77/15/4
f 76/14/4 78/16/4 74/13/4
f 77/15/4 74/13/4 79/17/4
f 77/15/4 79/17/4 80/18/4
f 78/16/4 81/19/4 74/13/4
f 82/20/4 80/18/4 79/17/4
f 78/16/4 83/21/4 81/19/4
f 84/22/4 81/19/4 83/21/4
f 82/20/4 79/17/4 85/23/4
f 84/22/4 86/24/4 81/19/4
f 87/25/4 82/20/4 85/23/4
f 88/26/4 87/25/4 85/23/4
f 88/26/4 85/23/4 89/27/4
f 89/27/4 85/23/4 90/28/4
f 90/28/4 85/23/4 91/29/4
f 90/28/4 91/29/4 92/30/4
f 93/31/4 92/30/4 91/29/4
f 93/31/4 91/29/4 94/60/4
f 95/33/4 93/31/4 94/60/4
f 96/34/4 95/33/4 94/60/4
f 97/35/4 86/24/4 84/22/4
f 98/36/4 86/24/4 97/35/4
f 98/36/4 99/37/4 86/24/4
f 99/37/4 100/38/4 86/24/4
f 100/38/4 101/39/4 86/24/4
f 100/38/4 102/40/4 101/39/4
f 103/41/4 101/39/4 102/40/4
f 103/41/4 104/42/4 101/39/4
f 105/43/4 104/42/4 103/41/4
f 106/44/4 104/42/4 105/43/4
f 106/44/4 107/45/4 104/42/4
f 107/45/4 108/46/4 104/42/4
f 108/46/4 109/47/4 104/42/4
f 108/46/4 110/48/4 109/47/4
f 111/49/4 109/47/4 110/48/4
f 111/49/4 112/61/4 109/47/4
f 113/51/4 112/61/4 111/49/4
f 114/52/4 112/61/4 113/51/4
f 115/34/1 116/60/1 117/53/1
f 117/53/1 116/60/1 118/54/1
f 118/54/1 116/60/1 119/55/1
f 119/55/1 116/60/1 120/56/1
f 119/55/1 120/56/1 121/57/1
f 122/58/3 123/53/3 124/59/3
f 123/53/3 125/54/3 124/59/3
f 125/54/3 126/55/3 124/59/3
f 126/55/3 127/56/3 124/59/3
f 126/55/3 128/57/3 127/56/3
f 129/62/2 130/63/2 131/64/2
f 130/63/2 132/65/2 131/64/2
f 132/65/2 133/66/2 131/64/2
f 133/66/2 134/67/2 131/64/2
f 133/66/2 135/68/2 134/67/2
f 134/67/2 135/68/2 136/69/2
f 134/67/2 136/69/2 137/70/2
f 138/71/2 137/70/2 136/69/2
f 137/70/2 138/71/2 139/72/2
f 139/72/2 140/73/2 137/70/2
f 140/73/2 141/74/2 137/70/2
f 141/74/2 142/75/2 137/70/2
f 141/74/2 143/76/2 142/75/2
f 142/75/2 143/76/2 144/77/2
f 142/75/2 144/77/2 145/78/2
f 146/79/2 145/78/2 144/77/2
f 147/80/2 145/78/2 146/79/2
f 147/80/2 148/81/2 145/78/2
f 148/81/2 149/82/2 145/78/2
f 149/82/2 150/83/2 145/78/2
f 150/83/2 151/84/2 145/78/2
f 150/83/2 152/85/2 151/84/2
f 151/84/2 152/85/2 153/86/2
f 151/84/2 153/86/2 154/87/2
f 153/86/2 155/88/2 154/87/2
f 155/88/2 156/89/2 154/87/2
f 156/89/2 157/90/2 154/87/2
f 157/90/2 158/91/2 154/87/2
f 158/91/2 159/92/2 154/87/2
f 158/91/2 160/93/2 159/92/2
f 159/92/2 160/93/2 161/94/2
f 159/92/2 161/94/2 162/95/2
f 161/94/2 163/96/2 162/95/2
f 163/96/2 164/97/2 162/95/2
f 164/97/2 165/98/2 162/95/2
f 165/98/2 166/99/2 162/95/2
f 166/99/2 167/100/2 162/95/2
f 166/99/2 168/101/2 167/100/2
f 167/100/2 168/101/2 169/102/2
f 167/100/2 169/102/2 170/103/2
f 169/102/2 171/104/2 170/103/2
f 171/104/2 172/105/2 170/103/2
f 173/106/3 174/107/3 175/108/3
f 174/107/3 176/109/3 175/108/3
f 174/107/3 177/110/3 176/109/3
f 178/111/3 177/110/3 174/107/3
f 178/111/3 179/112/3 177/110/3
f 180/113/3 179/112/3 178/111/3
f 180/113/3 181/114/3 179/112/3
f 180/113/3 182/115/3 181/114/3
f 180/113/3 183/116/3 182/115/3
f 184/117/3 183/116/3 180/113/3
f 185/118/3 184/117/3 180/113/3
f 186/119/3 185/118/3 180/113/3
f 186/119/3 180/113/3 187/120/3
f 188/121/3 186/119/3 187/120/3
f 188/121/3 187/120/3 189/122/3
f 189/122/3 190/123/3 188/121/3
f 189/122/3 191/124/3 190/123/3
f 192/125/3 191/124/3 189/122/3
f 193/125/4 194/122/4 195/126/4
f 195/126/4 194/122/4 196/127/4
f 196/127/4 194/122/4 197/128/4
f 198/129/4 197/128/4 194/122/4
f 198/129/4 199/130/4 197/128/4
f 200/131/4 199/130/4 198/129/4
f 200/131/4 198/129/4 201/132/4
f 202/133/4 200/131/4 201/132/4
f 201/132/4 203/134/4 202/133/4
f 203/134/4 201/132/4 204/135/4
f 204/135/4 201/132/4 205/136/4
f 206/137/4 205/136/4 201/132/4
f 206/137/4 207/138/4 205/136/4
f 208/139/4 207/138/4 206/137/4
f 208/139/4 206/137/4 209/140/4
f 210/141/4 208/139/4 209/140/4
f 211/142/4 210/141/4 209/140/4
f 211/142/4 209/140/4 212/143/4
f 212/143/4 209/140/4 213/144/4
f 213/144/4 209/140/4 214/145/4
f 214/145/4 209/140/4 215/146/4
f 214/145/4 215/146/4 216/147/4
f 215/146/4 217/148/4 216/147/4
f 215/146/4 218/149/4 217/148/4
f 217/148/4 218/149/4 219/150/4
f 219/150/4 218/149/4 220/151/4
f 220/151/4 218/149/4 221/152/4
f 221/152/4 218/149/4 222/153/4
f 222/153/4 218/149/4 223/154/4
f 222/153/4 223/154/4 224/155/4
f 223/154/4 225/156/4 224/155/4
f 223/154/4 226/157/4 225/156/4
f 225/156/4 226/157/4 227/158/4
f 227/158/4 226/157/4 228/159/4
f 228/159/4 226/157/4 229/160/4
f 229/160/4 226/157/4 230/161/4
f 230/161/4 226/157/4 231/162/4
f 230/161/4 231/162/4 232/163/4
f 231/162/4 233/164/4 232/163/4
f 231/162/4 234/165/4 233/164/4
f 233/164/4 234/165/4 235/166/4
f 235/166/4 234/165/4 236/167/4
f 237/62/2 238/64/2 239/63/2
f 239/63/2 238/64/2 240/168/2
f 240/168/2 238/64/2 241/66/2
f 242/67/2 241/66/2 238/64/2
f 242/67/2 243/68/2 241/66/2
f 244/69/2 243/68/2 242/67/2
f 244/69/2 242/67/2 245/70/2
f 246/71/2 244/69/2 245/70/2
f 245/70/2 247/72/2 246/71/2
f 247/72/2 245/70/2 248/169/2
f 248/169/2 245/70/2 249/74/2
f 250/75/2 249/74/2 245/70/2
f 250/75/2 251/76/2 249/74/2
f 252/77/2 251/76/2 250/75/2
f 252/77/2 250/75/2 253/78/2
f 254/79/2 252/77/2 253/78/2
f 255/170/2 254/79/2 253/78/2
f 255/170/2 253/78/2 256/171/2
f 256/171/2 253/78/2 257/172/2
f 257/172/2 253/78/2 258/83/2
f 258/83/2 253/78/2 259/84/2
f 258/83/2 259/84/2 260/85/2
f 259/84/2 261/86/2 260/85/2
f 259/84/2 262/87/2 261/86/2
f 261/86/2 262/87/2 263/88/2
f 263/88/2 262/87/2 264/173/2
f 264/173/2 262/87/2 265/90/2
f 265/90/2 262/87/2 266/91/2
f 266/91/2 262/87/2 267/92/2
f 266/91/2 267/92/2 268/93/2
f 267/92/2 269/94/2 268/93/2
f 267/92/2 270/95/2 269/94/2
f 269/94/2 270/95/2 271/96/2
f 271/96/2 270/95/2 272/174/2
f 272/174/2 270/95/2 273/175/2
f 273/175/2 270/95/2 274/99/2
f 274/99/2 270/95/2 275/100/2
f 274/99/2 275/100/2 276/101/2
f 275/100/2 277/102/2 276/101/2
f 275/100/2 278/103/2 277/102/2
f 277/102/2 278/103/2 279/104/2
f 279/104/2 278/103/2 280/105/2
f 281/106/1 282/108/1 283/107/1
f 283/107/1 282/108/1 284/109/1
f 283/107/1 284/109/1 285/110/1
f 285/110/1 286/111/1 283/107/1
f 285/110/1 287/112/1 286/111/1
f 287/112/1 288/113/1 286/111/1
f 287/112/1 289/114/1 288/113/1
f 288/113/1 289/114/1 290/115/1
f 288/113/1 290/115/1 291/116/1
f 292/117/1 288/113/1 291/116/1
f 293/118/1 288/113/1 292/117/1
f 288/113/1 293/118/1 294/119/1
f 288/113/1 294/119/1 295/120/1
f 295/120/1 294/119/1 296/121/1
f 295/120/1 296/121/1 297/122/1
f 297/122/1 296/121/1 298/123/1
f 297/122/1 298/123/1 299/124/1
f 300/125/1 297/122/1 299/124/1
f 301/125/4 302/126/4 303/122/4
f 302/126/4 304/176/4 303/122/4
f 304/176/4 305/128/4 303/122/4
f 305/128/4 306/129/4 303/122/4
f 305/128/4 307/130/4 306/129/4
f 306/129/4 307/130/4 308/131/4
f 306/129/4 308/131/4 309/132/4
f 310/133/4 309/132/4 308/131/4
f 309/132/4 310/133/4 311/134/4
f 311/134/4 312/177/4 309/132/4
f 312/177/4 313/136/4 309/132/4
f 313/136/4 314/137/4 309/132/4
f 313/136/4 315/138/4 314/137/4
f 314/137/4 315/138/4 316/139/4
f 314/137/4 316/139/4 317/140/4
f 318/141/4 317/140/4 316/139/4
f 319/178/4 317/140/4 318/141/4
f 319/178/4 320/179/4 317/140/4
f 320/179/4 321/180/4 317/140/4
f 321/180/4 322/145/4 317/140/4
f 322/145/4 323/146/4 317/140/4
f 322/145/4 324/147/4 323/146/4
f 323/146/4 324/147/4 325/148/4
f 323/146/4 325/148/4 326/149/4
f 325/148/4 327/150/4 326/149/4
f 327/150/4 328/181/4 326/149/4
f 328/181/4 329/152/4 326/149/4
f 329/152/4 330/153/4 326/149/4
f 330/153/4 331/154/4 326/149/4
f 330/153/4 332/155/4 331/154/4
f 331/154/4 332/155/4 333/156/4
f 331/154/4 333/156/4 334/157/4
f 333/156/4 335/158/4 334/157/4
f 335/158/4 336/182/4 334/157/4
f 336/182/4 337/183/4 334/157/4
f 337/183/4 338/161/4 334/157/4
f 338/161/4 339/162/4 334/157/4
f 338/161/4 340/163/4 339/162/4
f 339/162/4 340/163/4 341/164/4
f 339/162/4 341/164/4 342/165/4
f 341/164/4 343/166/4 342/165/4
f 343/166/4 344/184/4 342/165/4
f 345/185/1 346/186/1 347/187/1
f 345/185/1 347/187/1 348/188/1
f 349/189/1 348/188/1 347/187/1
f 345/185/1 348/188/1 350/190/1
f 349/189/1 351/191/1 348/188/1
f 345/185/1 350/190/1 352/192/1
f 353/193/1 351/191/1 349/189/1
f 353/193/1 354/194/1 351/191/1
f 353/193/1 355/195/1 354/194/1
f 356/196/1 352/192/1 350/190/1
f 353/193/1 357/197/1 355/195/1
f 358/198/1 355/195/1 357/197/1
f 356/196/1 350/190/1 358/198/1
f 358/198/1 357/197/1 359/199/1
f 359/199/1 356/196/1 358/198/1
f 359/199/1 360/200/1 356/196/1
f 361/201/3 362/202/3 363/203/3
f 361/201/3 363/203/3 364/204/3
f 365/205/4 366/206/4 367/207/4
f 368/208/4 369/209/4 366/206/4
f 370/210/4 366/206/4 369/209/4
f 370/210/4 367/207/4 366/206/4
f 369/209/4 371/211/4 370/210/4
f 372/212/4 370/210/4 371/211/4
f 372/212/4 373/213/4 370/210/4
f 374/214/4 373/213/4 372/212/4
f 374/214/4 372/212/4 375/215/4
f 376/204/4 374/214/4 375/215/4
f 377/201/4 376/204/4 375/215/4
f 377/201/4 375/215/4 378/216/4
f 374/214/4 376/204/4 379/217/4
f 374/214/4 379/217/4 380/218/4
f 380/218/4 379/217/4 381/219/4
f 380/218/4 381/219/4 382/220/4
f 367/207/4 382/220/4 381/219/4
f 365/205/4 367/207/4 381/219/4
f 365/205/4 381/219/4 383/221/4
f 383/221/4 381/219/4 384/222/4
f 365/205/4 383/221/4 385/223/4
f 383/221/4 384/222/4 386/224/4
f 387/225/4 386/224/4 384/222/4
f 365/205/4 385/223/4 388/226/4
f 365/205/4 388/226/4 389/227/4
f 387/225/4 384/222/4 390/228/4
f 391/229/4 389/227/4 388/226/4
f 392/230/4 387/225/4 390/228/4
f 388/226/4 393/231/4 391/229/4
f 388/226/4 392/230/4 393/231/4
f 394/232/4 391/229/4 393/231/4
f 395/233/4 393/231/4 392/230/4
f 395/233/4 392/230/4 390/228/4
f 395/233/4 390/228/4 396/234/4
f 396/234/4 390/228/4 397/235/4
f 395/233/4 396/234/4 398/236/4
f 396/234/4 397/235/4 399/237/4
f 400/238/4 399/237/4 397/235/4
f 395/233/4 398/236/4 401/239/4
f 395/233/4 401/239/4 402/240/4
f 400/238/4 397/235/4 403/241/4
f 404/242/4 402/240/4 401/239/4
f 401/239/4 405/243/4 404/242/4
f 406/244/4 404/242/4 405/243/4
f 401/239/4 407/245/4 405/243/4
f 407/245/4 400/238/4 403/241/4
f 405/243/4 407/245/4 408/246/4
f 407/245/4 403/241/4 408/246/4
f 403/241/4 409/247/4 408/246/4
f 403/241/4 410/248/4 409/247/4
f 403/241/4 411/249/4 410/248/4
f 408/246/4 409/247/4 412/250/4
f 403/241/4 413/251/4 411/249/4
f 408/246/4 412/250/4 414/252/4
f 415/253/4 411/249/4 413/251/4
f 416/254/4 414/252/4 412/250/4
f 415/253/4 413/251/4 417/189/4
f 412/250/4 418/255/4 416/254/4
f 418/255/4 415/253/4 417/189/4
f 419/256/4 416/254/4 418/255/4
f 418/255/4 420/257/4 415/253/4
f 412/250/4 420/257/4 418/255/4
f 421/258/4 418/255/4 417/189/4
f 422/187/4 421/258/4 417/189/4
f 422/187/4 423/259/4 421/258/4
f 424/221/2 425/219/2 426/220/2
f 427/218/2 426/220/2 425/219/2
f 427/218/2 425/219/2 428/217/2
f 428/217/2 429/214/2 427/218/2
f 428/217/2 430/204/2 429/214/2
f 431/222/2 425/219/2 424/221/2
f 430/204/2 432/260/2 429/214/2
f 432/260/2 430/204/2 433/201/2
f 432/260/2 433/201/2 434/261/2
f 435/212/2 429/214/2 432/260/2
f 435/212/2 436/213/2 429/214/2
f 437/210/2 436/213/2 435/212/2
f 437/210/2 435/212/2 438/211/2
f 439/209/2 437/210/2 438/211/2
f 440/262/2 437/210/2 439/209/2
f 441/263/2 440/262/2 439/209/2
f 440/262/2 442/207/2 437/210/2
f 426/220/2 442/207/2 440/262/2
f 424/221/2 426/220/2 440/262/2
f 424/221/2 440/262/2 443/205/2
f 424/221/2 443/205/2 444/223/2
f 445/226/2 444/223/2 443/205/2
f 445/226/2 443/205/2 446/227/2
f 447/229/2 445/226/2 446/227/2
f 448/231/2 445/226/2 447/229/2
f 449/232/2 448/231/2 447/229/2
f 448/231/2 450/230/2 445/226/2
f 451/225/2 450/230/2 448/231/2
f 431/222/2 424/221/2 452/224/2
f 431/222/2 452/224/2 451/225/2
f 431/222/2 451/225/2 453/228/2
f 451/225/2 448/231/2 454/264/2
f 455/234/2 453/228/2 451/225/2
f 455/234/2 451/225/2 454/264/2
f 456/235/2 453/228/2 455/234/2
f 457/236/2 455/234/2 454/264/2
f 456/235/2 455/234/2 458/237/2
f 459/239/2 457/236/2 454/264/2
f 459/239/2 454/264/2 460/265/2
f 456/235/2 458/237/2 461/238/2
f 462/242/2 459/239/2 460/265/2
f 456/235/2 461/238/2 463/241/2
f 464/266/2 459/239/2 462/242/2
f 465/267/2 464/266/2 462/242/2
f 464/266/2 466/245/2 459/239/2
f 467/246/2 466/245/2 464/266/2
f 467/246/2 461/238/2 466/245/2
f 468/248/2 463/241/2 461/238/2
f 467/246/2 468/248/2 461/238/2
f 463/241/2 468/248/2 469/249/2
f 467/246/2 470/247/2 468/248/2
f 463/241/2 469/249/2 471/251/2
f 472/250/2 470/247/2 467/246/2
f 473/253/2 471/251/2 469/249/2
f 472/250/2 467/246/2 474/252/2
f 473/253/2 475/189/2 471/251/2
f 476/254/2 472/250/2 474/252/2
f 477/268/2 472/250/2 476/254/2
f 473/253/2 477/268/2 475/189/2
f 478/269/2 477/268/2 476/254/2
f 477/268/2 479/257/2 472/250/2
f 473/253/2 479/257/2 477/268/2
f 480/258/2 475/189/2 477/268/2
f 480/258/2 481/187/2 475/189/2
f 480/258/2 482/259/2 481/187/2
f 483/270/5 484/271/5 485/272/5
f 483/270/5 485/272/5 486/273/5
f 487/273/6 488/272/6 489/274/6
f 487/273/6 489/274/6 490/275/6
s 1
f 491/274/7 492/276/7 493/277/7
s 0
f 491/274/7 493/277/7 494/275/7
f 495/276/8 496/271/8 497/270/8
f 495/276/8 497/270/8 498/277/8
f 499/278/1 500/279/1 501/277/1
f 499/278/1 501/277/1 502/270/1
f 503/280/9 504/281/9 505/282/9
f 503/280/9 505/282/9 506/283/9
f 504/281/9 507/284/9 505/282/9
f 503/280/9 506/283/9 508/285/9
f 504/281/9 509/286/9 507/284/9
f 503/280/9 508/285/9 510/287/9
f 510/287/9 507/284/9 509/286/9
f 510/287/9 508/285/9 507/284/9
f 511/281/2 512/280/2 513/270/2
f 511/281/2 513/270/2 514/273/2
f 515/288/3 516/289/3 517/273/3
f 515/288/3 517/273/3 518/275/3
f 519/290/4 520/291/4 521/275/4
f 519/290/4 521/275/4 522/277/4
f 523/271/10 524/292/10 525/293/10
f 523/271/10 525/293/10 526/272/10
f 527/272/11 528/293/11 529/294/11
f 527/272/12 529/294/12 530/274/12
f 531/294/13 532/295/13 533/276/13
f 531/294/13 533/276/13 534/274/13
f 535/295/14 536/292/14 537/271/14
f 535/295/14 537/271/14 538/276/14
s 1
f 539/296/3 540/297/15 541/298/16
f 539/296/3 541/298/16 542/299/3
f 543/300/17 541/298/16 540/297/15
f 544/301/18 543/300/17 540/297/15
f 544/301/18 540/297/15 545/302/19
f 544/301/18 545/302/19 546/303/20
f 545/302/19 547/304/21 546/303/20
f 545/302/19 548/305/22 547/304/21
f 549/306/23 547/304/21 548/305/22
f 550/307/24 549/306/23 548/305/22
f 551/308/3 550/307/24 548/305/22
f 551/308/3 552/309/3 550/307/24
s 0
f 553/310/2 554/311/2 555/297/2
f 553/310/2 555/297/2 556/296/2
f 557/312/1 558/313/1 559/311/1
f 557/312/1 559/311/1 560/310/1
f 561/308/4 562/305/4 563/314/4
f 561/308/4 563/314/4 564/315/4
s 1
f 565/316/4 566/317/4 567/318/25
f 565/316/4 567/318/25 568/319/26
f 569/320/27 568/319/26 567/318/25
f 570/321/28 568/319/26 569/320/27
f 571/322/29 568/319/26 570/321/28
f 571/322/29 570/321/28 572/323/30
f 573/324/31 571/322/29 572/323/30
f 573/324/31 574/325/32 571/322/29
f 575/326/33 574/325/32 573/324/31
f 576/327/34 574/325/32 575/326/33
f 577/328/4 574/325/32 576/327/34
f 577/328/4 576/327/34 578/329/4
s 0
f 579/330/1 580/331/1 581/332/1
f 579/330/1 581/332/1 582/333/1
f 583/334/2 584/335/2 585/332/2
f 583/334/2 585/332/2 586/331/2
f 587/336/2 585/332/2 584/335/2
f 588/337/2 583/334/2 586/331/2
f 587/336/2 584/335/2 589/338/2
f 588/337/2 590/339/2 583/334/2
f 587/336/2 589/338/2 591/340/2
f 590/339/2 591/340/2 589/338/2
f 590/339/2 588/337/2 591/340/2
f 592/341/2 591/340/2 588/337/2
f 592/341/2 593/342/2 591/340/2
f 592/341/2 594/343/2 593/342/2
f 595/344/2 594/343/2 592/341/2
f 596/345/2 593/342/2 594/343/2
f 595/344/2 592/341/2 597/346/2
f 596/345/2 598/347/2 593/342/2
f 599/348/2 595/344/2 597/346/2
f 598/347/2 596/345/2 599/348/2
f 599/348/2 597/346/2 600/349/2
f 598/347/2 599/348/2 600/349/2
f 601/346/3 602/325/3 603/328/3
f 601/346/3 603/328/3 604/349/3
f 605/350/35 606/350/35 607/351/35
f 605/350/35 607/351/35 608/351/35
f 609/351/3 610/351/3 611/352/3
f 609/351/3 611/352/3 612/352/3
f 613/353/1 614/353/1 615/350/1
f 613/353/1 615/350/1 616/350/1
f 617/354/36 618/354/36 619/353/36
f 617/354/36 619/353/36 620/353/36
s 1
f 621/355/37 622/355/37 623/354/37
s 0
f 621/355/37 623/354/37 624/354/37
f 625/356/38 626/356/38 627/355/38
f 625/356/38 627/355/38 628/355/38
f 629/357/39 630/357/39 631/356/39
f 629/357/39 631/356/39 632/356/39
f 633/358/9 634/358/9 635/357/9
f 633/358/9 635/357/9 636/357/9
f 637/359/40 638/359/40 639/358/40
f 637/359/40 639/358/40 640/358/40
f 641/360/41 642/360/41 643/359/41
f 641/360/42 643/359/42 644/359/42
f 645/361/43 646/361/43 647/360/43
f 645/361/43 647/360/43 648/360/43
f 649/352/44 650/352/44 651/361/44
f 649/352/44 651/361/44 652/361/44
f 653/350/35 654/350/35 655/351/35
f 653/350/35 655/351/35 656/351/35
f 657/351/3 658/351/3 659/352/3
f 657/351/3 659/352/3 660/352/3
f 661/353/1 662/353/1 663/350/1
f 661/353/1 663/350/1 664/350/1
f 665/354/36 666/354/36 667/353/36
f 665/354/36 667/353/36 668/353/36
f 669/355/37 670/355/37 671/354/37
f 669/355/37 671/354/37 672/354/37
f 673/356/38 674/356/38 675/355/38
f 673/356/38 675/355/38 676/355/38
f 677/357/39 678/357/39 679/356/39
f 677/357/39 679/356/39 680/356/39
f 681/358/9 682/358/9 683/357/9
f 681/358/9 683/357/9 684/357/9
f 685/359/40 686/359/40 687/358/40
f 685/359/40 687/358/40 688/358/40
f 689/360/41 690/360/41 691/359/41
f 689/360/42 691/359/42 692/359/42
f 693/361/43 694/361/43 695/360/43
f 693/361/43 695/360/43 696/360/43
f 697/352/44 698/352/44 699/361/44
f 697/352/44 699/361/44 700/361/44
f 701/362/45 702/363/45 703/364/45
f 701/362/45 703/364/45 704/365/45
f 705/366/3 706/367/3 707/368/3
f 705/366/3 707/368/3 708/369/3
f 709/370/2 710/366/2 711/369/2
f 709/370/2 711/369/2 712/371/2
s 1
f 713/372/46 714/363/46 715/362/47
f 713/372/46 715/362/47 716/373/48
f 717/374/49 718/367/49 719/366/50
f 717/374/49 719/366/50 720/375/51
f 721/376/51 722/366/50 723/370/46
f 721/376/51 723/370/46 724/377/46
s 0
f 725/378/52 726/379/52 727/380/52
f 725/378/52 727/380/52 728/381/52
f 729/372/52 725/378/52 728/381/52
f 729/372/52 730/373/52 725/378/52
f 731/382/1 732/383/1 733/384/1
f 731/382/1 733/384/1 734/385/1
f 735/386/1 731/382/1 734/385/1
f 735/386/1 736/387/1 731/382/1
f 737/388/2 738/389/2 739/390/2
f 737/388/2 739/390/2 740/391/2
f 741/392/2 737/388/2 740/391/2
f 741/392/2 742/393/2 737/388/2
f 743/394/4 744/395/4 745/396/4
f 743/394/4 745/396/4 746/397/4
f 747/376/4 743/394/4 746/397/4
f 747/376/4 748/377/4 743/394/4
f 749/364/35 750/398/35 751/399/35
f 749/364/35 751/399/35 752/365/35
f 753/369/35 754/368/35 755/400/35
f 753/369/35 755/400/35 756/401/35
f 757/369/35 758/402/35 759/403/35
f 757/369/35 759/403/35 760/371/35
f 761/365/4 762/404/4 763/405/4
f 761/365/4 763/405/4 764/362/4
s 1
f 765/362/47 766/406/53 767/407/54
f 765/362/47 767/407/54 768/392/55
s 0
f 769/408/35 770/409/35 771/410/35
f 769/408/35 771/410/35 772/365/35
f 773/411/3 774/412/3 775/413/3
f 773/411/3 775/413/3 776/414/3
s 1
f 777/387/56 778/386/54 779/411/53
f 777/387/56 779/411/53 780/414/56
s 0
f 781/412/35 782/415/35 783/416/35
f 781/412/35 783/416/35 784/413/35
f 785/417/1 786/418/1 787/419/1
f 785/417/57 787/419/57 788/420/57
f 789/375/1 790/417/1 791/420/1
f 789/375/1 791/420/1 792/374/1
f 793/421/1 794/422/1 795/423/1
f 793/421/1 795/423/1 796/424/1
f 797/425/3 798/426/3 799/427/3
f 797/425/3 799/427/3 800/428/3
f 801/426/58 802/429/58 803/430/58
f 801/426/58 803/430/58 804/427/58
f 805/431/2 806/425/2 807/428/2
f 805/431/2 807/428/2 808/432/2
s 1
f 809/433/59 810/422/60 811/421/61
f 809/433/59 811/421/61 812/434/61
f 813/435/54 814/426/54 815/425/50
f 813/435/54 815/425/50 816/436/51
f 817/437/62 818/429/62 819/426/54
f 817/437/62 819/426/54 820/438/54
f 821/439/51 822/425/50 823/431/63
f 821/439/51 823/431/63 824/440/59
s 0
f 825/441/3 826/442/3 827/443/3
f 825/441/3 827/443/3 828/444/3
f 829/433/3 825/441/3 828/444/3
f 829/433/3 830/434/3 825/441/3
f 831/445/1 832/446/1 833/447/1
f 831/445/1 833/447/1 834/448/1
f 835/435/1 831/445/1 834/448/1
f 835/435/1 836/436/1 831/445/1
f 837/449/64 838/450/64 839/451/64
f 837/449/64 839/451/64 840/452/64
f 841/453/64 837/449/64 840/452/64
f 841/453/64 842/454/64 837/449/64
f 843/455/4 844/456/4 845/457/4
f 843/455/4 845/457/4 846/458/4
f 847/439/4 843/455/4 846/458/4
f 847/439/4 848/440/4 843/455/4
f 849/423/35 850/459/35 851/460/35
f 849/423/35 851/460/35 852/424/35
f 853/427/35 854/461/35 855/462/35
f 853/427/35 855/462/35 856/428/35
f 857/430/35 858/463/35 859/464/35
f 857/430/35 859/464/35 860/427/35
f 861/428/35 862/465/35 863/466/35
f 861/428/35 863/466/35 864/432/35
f 865/421/58 866/424/58 867/467/58
f 865/421/58 867/467/58 868/468/58
s 1
f 869/453/61 870/421/61 871/468/62
f 869/453/61 871/468/62 872/454/62
s 0
f 873/424/35 874/469/35 875/470/35
f 873/424/35 875/470/35 876/467/35
f 877/471/64 878/472/64 879/473/64
f 877/471/64 879/473/64 880/474/64
f 881/438/64 882/471/64 883/474/64
f 881/438/64 883/474/64 884/437/64
f 885/270/65 886/271/65 887/272/65
f 885/270/65 887/272/65 888/273/65
f 889/273/66 890/272/66 891/274/66
f 889/273/67 891/274/67 892/275/67
f 893/274/68 894/276/68 895/277/68
f 893/274/68 895/277/68 896/275/68
f 897/276/69 898/271/69 899/270/69
f 897/276/70 899/270/70 900/277/70
f 901/278/71 902/279/71 903/277/71
f 901/278/71 903/277/71 904/270/71
f 905/280/72 906/281/72 907/282/72
f 905/280/72 907/282/72 908/283/72
f 909/281/73 910/286/73 911/284/73
f 909/281/73 911/284/73 912/282/73
f 913/287/74 914/285/74 915/284/74
f 913/287/74 915/284/74 916/286/74
f 917/280/75 918/283/75 919/285/75
f 917/280/75 919/285/75 920/287/75
f 921/281/76 922/280/76 923/270/76
f 921/281/77 923/270/77 924/273/77
f 925/275/78 926/288/78 927/289/78
f 925/275/78 927/289/78 928/273/78
f 929/277/79 930/290/79 931/291/79
f 929/277/26 931/291/26 932/275/26
s 1
f 933/272/80 934/271/81 935/270/81
f 933/272/80 935/270/81 936/273/80
s 0
f 937/274/82 938/272/82 939/273/82
f 937/274/82 939/273/82 940/275/82
s 1
f 941/277/83 942/276/84 943/274/83
f 941/277/83 943/274/83 944/275/83
s 0
f 945/270/85 946/271/85 947/276/85
f 945/270/85 947/276/85 948/277/85
f 949/278/3 950/270/3 951/277/3
f 949/278/3 951/277/3 952/279/3
f 953/282/35 954/281/35 955/280/35
f 953/282/35 955/280/35 956/283/35
f 957/284/35 954/281/35 953/282/35
f 955/280/35 958/285/35 956/283/35
f 957/284/35 959/286/35 954/281/35
f 955/280/35 960/287/35 958/285/35
f 960/287/35 959/286/35 957/284/35
f 960/287/35 957/284/35 958/285/35
f 961/281/4 962/273/4 963/270/4
f 961/281/4 963/270/4 964/280/4
f 965/275/1 966/273/1 967/289/1
f 965/275/1 967/289/1 968/288/1
f 969/277/2 970/275/2 971/291/2
f 969/277/2 971/291/2 972/290/2
s 1
f 973/271/86 974/271/87 975/272/88
f 973/271/86 975/272/88 976/272/88
f 977/272/89 978/272/89 979/274/90
f 977/272/89 979/274/90 980/274/90
f 981/274/91 982/274/91 983/276/92
f 981/274/91 983/276/92 984/276/92
f 985/276/93 986/276/93 987/271/94
f 985/276/93 987/271/94 988/271/94
s 0
f 989/282/2 990/282/2 991/283/2
f 989/282/2 991/283/2 992/283/2
f 993/284/3 994/284/3 995/282/3
f 993/284/3 995/282/3 996/282/3
f 997/285/4 998/285/4 999/284/4
f 997/285/4 999/284/4 1000/284/4
f 1001/283/1 1002/283/1 1003/285/1
f 1001/283/1 1003/285/1 1004/285/1
f 1005/475/35 1006/476/35 1007/477/35
f 1005/475/35 1007/477/35 1008/478/35
f 1009/477/95 1010/479/95 1011/480/95
f 1009/477/95 1011/480/95 1012/478/95
f 1013/481/96 1014/482/96 1015/479/96
f 1013/481/96 1015/479/96 1016/477/96
f 1017/483/97 1018/484/97 1019/482/97
f 1017/483/97 1019/482/97 1020/481/97
f 1021/478/98 1022/480/98 1023/485/98
f 1021/478/98 1023/485/98 1024/486/98
f 1025/475/9 1026/478/9 1027/477/9
f 1025/475/9 1027/477/9 1028/476/9
f 1029/477/2 1030/478/2 1031/480/2
f 1029/477/2 1031/480/2 1032/479/2
f 1033/481/3 1034/477/3 1035/479/3
f 1033/481/3 1035/479/3 1036/482/3
f 1037/483/4 1038/481/4 1039/482/4
f 1037/483/4 1039/482/4 1040/484/4
f 1041/478/1 1042/486/1 1043/485/1
f 1041/478/1 1043/485/1 1044/480/1
s 1
f 1045/479/99 1046/479/99 1047/480/100
f 1048/482/101 1046/479/99 1045/479/99
f 1045/479/99 1047/480/100 1049/480/100
f 1048/482/101 1050/482/101 1046/479/99
f 1049/480/100 1047/480/100 1051/485/102
f 1049/480/100 1051/485/102 1052/485/102
f 1053/484/103 1050/482/101 1048/482/101
f 1053/484/103 1054/484/102 1050/482/101
s 0
f 1055/487/35 1056/488/35 1057/489/35
f 1055/487/35 1057/489/35 1058/490/35
f 1059/491/4 1060/492/4 1061/493/4
f 1059/491/4 1061/493/4 1062/315/4
f 1063/494/1 1064/491/1 1065/315/1
f 1063/494/1 1065/315/1 1066/487/1
f 1067/495/2 1068/494/2 1069/487/2
f 1067/495/2 1069/487/2 1070/490/2
f 1071/496/3 1072/495/3 1073/490/3
f 1071/496/3 1073/490/3 1074/497/3
