# Blender 5.1.2
# www.blender.org
o Sponza_hanging_lights
v 511.871307 134.340195 -217.913803
v 487.763794 213.697296 -217.913803
v 487.160889 213.514099 -221.487198
v 511.268402 134.156998 -221.487198
v 465.380798 133.751297 -219.700500
v 489.071991 213.319901 -219.700500
v 485.594208 214.354904 -219.700500
v 461.903015 134.786301 -219.700500
v 513.305725 134.776001 -219.700500
v 489.198212 214.132996 -219.700500
v 485.726410 213.078293 -219.700500
v 509.833893 133.721298 -219.700500
v 463.435211 134.411499 -221.487198
v 488.672913 213.503204 -221.487198
v 488.072601 213.694702 -217.913803
v 462.834991 134.602997 -217.913803
v -594.964783 134.340195 -217.913803
v -619.072327 213.697296 -217.913803
v -619.675171 213.514099 -221.487198
v -595.567627 134.156998 -221.487198
v -641.455200 133.751297 -219.700500
v -617.763977 213.319901 -219.700500
v -621.241821 214.354904 -219.700500
v -644.933105 134.786301 -219.700500
v -593.530273 134.776001 -219.700500
v -617.637817 214.132996 -219.700500
v -621.109680 213.078293 -219.700500
v -597.002197 133.721298 -219.700500
v -643.400879 134.411499 -221.487198
v -618.163086 213.503204 -221.487198
v -618.763428 213.694702 -217.913803
v -644.001099 134.602997 -217.913803
v -643.443481 134.340195 141.554993
v -619.336121 213.697296 141.554993
v -618.733215 213.514099 145.128403
v -642.840576 134.156998 145.128403
v -596.953125 133.751297 143.341705
v -620.644287 213.319901 143.341705
v -617.166504 214.354904 143.341705
v -593.475281 134.786301 143.341705
v -644.878113 134.776001 143.341705
v -620.770508 214.132996 143.341797
v -617.298584 213.078293 143.341797
v -641.406128 133.721298 143.341705
v -595.007507 134.411499 145.128403
v -620.245178 213.503204 145.128403
v -619.644897 213.694702 141.554993
v -594.407227 134.602997 141.554993
v 463.392609 134.340195 141.554794
v 487.500000 213.697296 141.554901
v 488.102905 213.514099 145.128296
v 463.995392 134.156998 145.128296
v 509.882904 133.751297 143.341599
v 486.191803 213.319901 143.341599
v 489.669586 214.354904 143.341599
v 513.360779 134.786301 143.341599
v 461.958008 134.776001 143.341599
v 486.065613 214.132996 143.341599
v 489.537506 213.078293 143.341599
v 465.429901 133.721298 143.341599
v 511.828613 134.411499 145.128296
v 486.590790 213.503204 145.128296
v 487.191193 213.694702 141.554901
v 512.428772 134.602997 141.554794
vn -0.9423 -0.2863 0.1737
vn -0.0000 -0.0000 1.0000
vn 0.9382 -0.2994 0.1737
vn 0.9382 -0.2994 0.1736
vn -0.9423 -0.2863 0.1736
vn 0.9423 -0.2863 -0.1736
vn 0.9423 -0.2862 -0.1737
vn -0.0000 -0.0000 -1.0000
vn -0.9382 -0.2994 -0.1737
vn -0.9382 -0.2994 -0.1736
vn 0.9423 -0.2863 -0.1737
vt 0.677000 0.000000
vt 0.677000 3.098200
vt 0.146700 3.098200
vt 0.146700 0.000000
vt 0.678900 3.101300
vt 0.148500 3.103300
vt 0.677400 3.101200
vt 0.147100 3.101200
s 0
f 1/1/1 2/2/1 3/3/1
f 1/1/1 3/3/1 4/4/1
f 5/1/2 6/5/2 7/6/2
f 5/1/2 7/6/2 8/4/2
f 9/1/2 10/2/2 11/3/2
f 9/1/2 11/3/2 12/4/2
f 13/1/3 14/7/3 15/8/3
f 13/1/4 15/8/4 16/4/4
f 17/1/5 18/2/5 19/3/5
f 17/1/1 19/3/1 20/4/1
f 21/1/2 22/5/2 23/6/2
f 21/1/2 23/6/2 24/4/2
f 25/1/2 26/2/2 27/3/2
f 25/1/2 27/3/2 28/4/2
f 29/1/3 30/7/3 31/8/3
f 29/1/4 31/8/4 32/4/4
f 33/1/6 34/2/6 35/3/6
f 33/1/7 35/3/7 36/4/7
f 37/1/8 38/5/8 39/6/8
f 37/1/8 39/6/8 40/4/8
f 41/1/8 42/2/8 43/3/8
f 41/1/8 43/3/8 44/4/8
f 45/1/9 46/7/9 47/8/9
f 45/1/10 47/8/10 48/4/10
f 49/1/11 50/2/11 51/3/11
f 49/1/6 51/3/6 52/4/6
f 53/1/8 54/5/8 55/6/8
f 53/1/8 55/6/8 56/4/8
f 57/1/8 58/2/8 59/3/8
f 57/1/8 59/3/8 60/4/8
f 61/1/9 62/7/9 63/8/9
f 61/1/10 63/8/10 64/4/10
