# Blender 5.1.2
# www.blender.org
o Sponza_random_thing
v -8.262900 256.730988 568.658386
v -15.320700 260.575989 571.496826
v -15.320800 339.745209 571.496826
v -8.263000 348.197388 568.658386
v -119.407303 256.730988 575.505188
v -119.407303 256.730988 568.658386
v -8.262900 256.730988 568.658386
v -8.262900 256.730988 575.505188
v -119.407303 348.197388 575.505188
v -119.407303 348.197388 568.658386
v -119.407303 256.730988 568.658386
v -119.407303 256.730988 575.505188
v -8.263000 348.197388 575.505188
v -8.263000 348.197388 568.658386
v -119.407303 348.197388 568.658386
v -119.407303 348.197388 575.505188
v -8.262900 256.730988 575.505188
v -8.262900 256.730988 568.658386
v -8.263000 348.197388 568.658386
v -8.263000 348.197388 575.505188
v -15.320800 339.745209 571.496826
v -15.320700 260.575989 571.496826
v -111.897598 260.575897 571.496826
v -111.897598 339.745209 571.496826
v -8.263000 348.197388 568.658386
v -15.320800 339.745209 571.496826
v -111.897598 339.745209 571.496826
v -119.407303 348.197388 568.658386
v -119.407303 256.730988 568.658386
v -111.897598 260.575897 571.496826
v -15.320700 260.575989 571.496826
v -8.262900 256.730988 568.658386
v -119.407303 256.730988 568.658386
v -119.407303 348.197388 568.658386
v -111.897598 339.745209 571.496826
v -111.897598 260.575897 571.496826
vn -0.3731 -0.0000 -0.9278
vn -0.0000 -1.0000 -0.0000
vn -1.0000 -0.0000 -0.0000
vn -0.0000 1.0000 -0.0000
vn 1.0000 -0.0000 -0.0000
vn -0.0000 -0.0000 -1.0000
vn -0.0000 -0.3183 -0.9480
vn -0.0000 -0.3184 -0.9480
vn -0.0000 0.5939 -0.8045
vn 0.3536 -0.0000 -0.9354
vt 0.068400 0.176300
vt 0.092900 0.208500
vt 0.092900 0.871400
vt 0.068400 0.903700
vt 0.937000 0.119000
vt 0.937000 0.176300
vt 0.068400 0.119000
vt 0.994300 0.903700
vt 0.937000 0.903700
vt 0.994300 0.176300
vt 0.068400 0.961000
vt 0.937000 0.961000
vt 0.011100 0.176300
vt 0.011100 0.903700
vt 0.901500 0.208500
vt 0.901500 0.871400
s 0
f 1/1/1 2/2/1 3/3/1
f 1/1/1 3/3/1 4/4/1
f 5/5/2 6/6/2 7/1/2
f 5/5/2 7/1/2 8/7/2
f 9/8/3 10/9/3 11/6/3
f 9/8/3 11/6/3 12/10/3
f 13/11/4 14/4/4 15/9/4
f 13/11/4 15/9/4 16/12/4
f 17/13/5 18/1/5 19/4/5
f 17/13/5 19/4/5 20/14/5
f 21/3/6 22/2/6 23/15/6
f 21/3/6 23/15/6 24/16/6
f 25/4/7 26/3/7 27/16/7
f 25/4/8 27/16/8 28/9/8
f 29/6/9 30/15/9 31/2/9
f 29/6/9 31/2/9 32/1/9
f 33/6/10 34/9/10 35/16/10
f 33/6/10 35/16/10 36/15/10
