# Blender 5.1.2
# www.blender.org
o Sponza_doors
v -155.329193 229.013397 567.143799
v -165.660995 239.243301 554.269775
v -64.841599 239.243301 554.269775
v -64.820999 228.479706 567.143799
v 26.418100 227.941696 567.143799
v 37.047199 239.243301 554.269775
v -128.851898 199.315598 567.143799
v -128.098907 5.800000 567.143799
v -154.213104 -2.134900 567.143799
v -155.329193 229.013397 567.143799
v -64.263199 -2.134900 567.143799
v -64.820999 228.479706 567.143799
v -64.387100 5.800000 567.143799
v -65.096100 199.315598 567.143799
v -0.675300 5.800000 567.143799
v -0.675300 199.315598 567.143799
v 25.686800 -2.134900 567.143799
v 26.418100 227.941696 567.143799
v -13.248000 188.283203 574.758728
v -12.361800 190.498993 574.758728
v -11.586300 191.606903 574.758728
v -11.475500 185.845901 574.758728
v -8.816500 187.286102 574.758728
v -6.379300 186.732193 574.758728
v -13.469600 193.157898 574.758728
v -12.583400 196.924698 574.758728
v -12.472500 199.315598 574.758728
v -0.675300 199.315598 574.758728
v -4.828200 184.073303 574.758728
v -3.166400 176.207306 574.758728
v -0.675300 175.210205 574.758728
v -4.717400 178.977097 574.758728
v -118.041000 190.772003 586.181213
v -118.844704 191.522095 586.181213
v -117.826797 192.915100 586.181213
v -118.094597 188.146698 586.181213
v -65.096100 199.315598 586.181213
v -120.184196 187.182297 586.181213
v -123.988297 186.860794 586.181213
v -122.059402 188.093094 586.181213
v -126.774300 177.645294 586.181213
v -128.098907 5.800000 586.181213
v -128.756104 174.698898 586.181213
v -64.387100 5.800000 586.181213
v -117.719597 198.058701 586.181213
v -118.041000 195.433304 586.181213
v -118.630501 196.504898 586.181213
v -117.719597 199.315598 586.181213
v -0.675300 5.800000 586.181213
v -12.472500 199.315598 586.181213
v -12.583400 196.924698 586.181213
v -13.469600 193.157898 586.181213
v -13.248000 188.283203 586.181213
v -12.361800 190.498993 586.181213
v -11.586300 191.606903 586.181213
v -11.475500 185.845901 586.181213
v -3.166400 176.207306 586.181213
v -0.675300 175.210205 586.181213
v -4.717400 178.977097 586.181213
v -6.379300 186.732193 586.181213
v -8.816500 187.286102 586.181213
v -4.828200 184.073303 586.181213
v -126.774300 177.645294 586.181213
v -125.274200 182.681702 586.181213
v -123.988297 186.860794 586.181213
v -118.630501 196.504898 574.758728
v -118.041000 195.433304 574.758728
v -117.826797 192.915100 574.758728
v -128.851898 199.315598 574.758728
v -117.719597 198.058701 574.758728
v -117.719597 199.315598 574.758728
v -118.844704 191.522095 574.758728
v -118.041000 190.772003 574.758728
v -120.184196 187.182297 574.758728
v -118.094597 188.146698 574.758728
v -122.059402 188.093094 574.758728
v -123.988297 186.860794 574.758728
v -128.756104 174.698898 574.758728
v -125.274200 182.681702 574.758728
v -126.774300 177.645294 574.758728
v -128.851898 199.315598 567.143799
v -65.096100 199.315598 567.143799
v -117.719597 199.315598 574.758728
v -128.851898 199.315598 574.758728
v -65.096100 199.315598 586.181213
v -117.719597 199.315598 586.181213
v -12.472500 199.315598 574.758728
v -12.472500 199.315598 586.181213
v -0.675300 199.315598 567.143799
v -0.675300 199.315598 574.758728
v -0.675300 199.315598 567.143799
v -0.675300 5.800000 567.143799
v -0.675300 175.210205 574.758728
v -0.675300 199.315598 574.758728
v -0.675300 175.210205 586.181213
v -0.675300 5.800000 586.181213
v -0.675300 175.210205 574.758728
v -0.675300 175.210205 586.181213
v -3.166400 176.207306 586.181213
v -3.166400 176.207306 574.758728
v -4.717400 178.977097 586.181213
v -4.717400 178.977097 574.758728
v -4.828200 184.073303 586.181213
v -4.828200 184.073303 574.758728
v -6.379300 186.732193 586.181213
v -6.379300 186.732193 574.758728
v -64.387100 5.800000 567.143799
v -64.387100 5.800000 586.181213
v -0.675300 5.800000 586.181213
v -0.675300 5.800000 567.143799
v -128.098907 5.800000 567.143799
v -128.098907 5.800000 586.181213
v -128.756104 174.698898 574.758728
v -128.756104 174.698898 586.181213
v -128.098907 5.800000 586.181213
v -128.098907 5.800000 567.143799
v -128.851898 199.315598 567.143799
v -128.851898 199.315598 574.758728
v -126.774300 177.645294 574.758728
v -126.774300 177.645294 586.181213
v -128.756104 174.698898 586.181213
v -128.756104 174.698898 574.758728
v -125.274200 182.681702 574.758728
v -125.274200 182.681702 586.181213
v -123.988297 186.860794 574.758728
v -123.988297 186.860794 586.181213
v -122.059402 188.093094 574.758728
v -122.059402 188.093094 586.181213
v -120.184196 187.182297 574.758728
v -120.184196 187.182297 586.181213
v -122.059402 188.093094 586.181213
v -122.059402 188.093094 574.758728
v -118.094597 188.146698 574.758728
v -118.094597 188.146698 586.181213
v -120.184196 187.182297 586.181213
v -120.184196 187.182297 574.758728
v -118.041000 190.772003 574.758728
v -118.041000 190.772003 586.181213
v -118.094597 188.146698 586.181213
v -118.094597 188.146698 574.758728
v -118.844704 191.522095 574.758728
v -118.844704 191.522095 586.181213
v -118.041000 190.772003 586.181213
v -118.041000 190.772003 574.758728
v -117.826797 192.915100 574.758728
v -117.826797 192.915100 586.181213
v -118.844704 191.522095 586.181213
v -118.844704 191.522095 574.758728
v -118.041000 195.433304 574.758728
v -118.041000 195.433304 586.181213
v -118.630501 196.504898 574.758728
v -118.630501 196.504898 586.181213
v -117.719597 198.058701 574.758728
v -117.719597 198.058701 586.181213
v -118.630501 196.504898 586.181213
v -118.630501 196.504898 574.758728
v -117.719597 199.315598 574.758728
v -117.719597 199.315598 586.181213
v -12.583400 196.924698 574.758728
v -12.583400 196.924698 586.181213
v -12.472500 199.315598 586.181213
v -12.472500 199.315598 574.758728
v -13.469600 193.157898 574.758728
v -13.469600 193.157898 586.181213
v -11.586300 191.606903 574.758728
v -11.586300 191.606903 586.181213
v -13.469600 193.157898 586.181213
v -13.469600 193.157898 574.758728
v -12.361800 190.498993 574.758728
v -12.361800 190.498993 586.181213
v -11.586300 191.606903 586.181213
v -11.586300 191.606903 574.758728
v -13.248000 188.283203 574.758728
v -13.248000 188.283203 586.181213
v -11.475500 185.845901 574.758728
v -11.475500 185.845901 586.181213
v -13.248000 188.283203 586.181213
v -13.248000 188.283203 574.758728
v -8.816500 187.286102 574.758728
v -8.816500 187.286102 586.181213
v -11.475500 185.845901 586.181213
v -11.475500 185.845901 574.758728
v -6.379300 186.732193 574.758728
v -6.379300 186.732193 586.181213
v -64.849701 243.564301 554.269775
v 41.111099 243.564301 554.269775
v 37.047199 239.243301 554.269775
v -64.841599 239.243301 554.269775
v -165.660995 239.243301 554.269775
v -170.024902 243.564301 554.269775
v 26.418100 227.941696 567.143799
v 37.047199 239.243301 554.269775
v 39.079201 239.243301 598.566284
v 27.327600 228.210693 605.013489
v 41.111099 243.564301 554.269775
v 41.111099 243.564301 598.562317
v -155.329193 229.013397 567.143799
v -156.238800 229.282394 605.013611
v -167.692902 239.243301 598.566284
v -165.660995 239.243301 554.269775
v -169.724899 243.564301 554.269775
v -169.724899 243.564301 598.562317
v -154.213104 -2.134900 567.143799
v -153.303604 -1.866000 605.013611
v -156.238800 229.282394 605.013611
v -155.329193 229.013397 567.143799
v -64.263199 -2.134900 567.143799
v -63.353600 -1.866000 605.013611
v -153.303604 -1.866000 605.013611
v -154.213104 -2.134900 567.143799
v 25.686800 -2.134900 567.143799
v 26.596300 -1.866000 605.013611
v 26.418100 227.941696 567.143799
v 27.327600 228.210693 605.013489
v 26.596300 -1.866000 605.013611
v 25.686800 -2.134900 567.143799
v -430.466309 289.317505 573.104004
v -405.816711 286.824890 573.104004
v -419.811493 268.293915 573.103882
v -433.806396 269.282104 573.103882
v -399.455292 264.984894 573.103882
v -441.440887 289.317505 573.104004
v -387.845886 282.613403 573.104004
v -454.321808 268.017212 573.103882
v -462.114288 286.814789 573.103882
v -475.791107 264.011993 573.103882
v -481.039093 282.339111 573.103882
v -496.465302 277.235107 573.103882
v -488.831787 259.048187 573.103882
v -509.683289 277.304413 573.103882
v -508.110809 255.962997 573.103882
v -380.848511 259.702393 573.103882
v -375.600494 278.126801 573.104004
v -509.683289 119.805099 573.103882
v -357.127594 278.487488 573.104004
v -360.468414 255.962997 573.104004
v -508.110809 123.064903 573.103882
v -503.328094 251.480194 573.103882
v -364.977112 251.426498 573.103882
v -503.518097 127.234802 573.103882
v -364.739685 127.559402 573.103882
v -360.468414 123.064903 573.103882
v -357.127594 119.805099 573.103882
v -360.327606 123.064903 573.103882
v -360.468414 123.208298 573.103882
v -475.791107 264.011993 589.752686
v -454.321686 268.017212 589.752686
v -433.806396 269.282104 589.752686
v -380.848511 259.702301 589.752686
v -488.831787 259.048187 589.752686
v -399.455292 264.984802 589.752686
v -419.811493 268.293793 589.752686
v -498.925201 131.404694 577.457825
v -498.545410 246.997299 577.457886
v -488.980011 238.031799 582.137878
v -489.739502 139.744598 582.137878
v -503.518097 127.234802 573.103882
v -503.328094 251.480194 573.103882
v -489.739502 139.744598 589.752686
v -488.980011 238.031693 589.752686
v -378.503113 237.817001 589.752625
v -377.553986 140.613007 589.752808
v -380.848511 259.702393 573.103882
v -380.848511 259.702301 589.752686
v -399.455292 264.984802 589.752686
v -399.455292 264.984894 573.103882
v -419.811493 268.293793 589.752686
v -419.811493 268.293915 573.103882
v -433.806396 269.282104 589.752686
v -433.806396 269.282104 573.103882
v -454.321686 268.017212 589.752686
v -454.321808 268.017212 573.103882
v -475.791107 264.011993 589.752686
v -475.791107 264.011993 573.103882
v -488.831787 259.048187 589.752686
v -488.831787 259.048187 573.103882
v -488.831787 259.048187 573.103882
v -488.831787 259.048187 589.752686
v -380.848511 259.702301 589.752686
v -380.848511 259.702393 573.103882
v -378.503113 237.817001 582.137817
v -378.503113 237.817001 589.752625
v -488.980011 238.031693 589.752686
v -488.980011 238.031799 582.137878
v -377.553986 140.613007 582.137878
v -377.553986 140.613007 589.752808
v -378.503113 237.817001 589.752625
v -378.503113 237.817001 582.137817
v -489.739502 139.744598 582.137878
v -489.739502 139.744598 589.752686
v -377.553986 140.613007 589.752808
v -377.553986 140.613007 582.137878
v -488.980011 238.031799 582.137878
v -488.980011 238.031693 589.752686
v -489.739502 139.744598 589.752686
v -489.739502 139.744598 582.137878
v -489.739502 139.744598 582.137878
v -377.553986 140.613007 582.137878
v -369.011200 131.910599 577.457886
v -498.925201 131.404694 577.457825
v -364.739685 127.559402 573.103882
v -503.518097 127.234802 573.103882
v -377.553986 140.613007 582.137878
v -378.503113 237.817001 582.137817
v -369.485687 246.889999 577.457825
v -369.011200 131.910599 577.457886
v -364.977112 251.426498 573.103882
v -364.739685 127.559402 573.103882
v -378.503113 237.817001 582.137817
v -488.980011 238.031799 582.137878
v -498.545410 246.997299 577.457886
v -369.485687 246.889999 577.457825
v -503.328094 251.480194 573.103882
v -364.977112 251.426498 573.103882
v 310.782501 289.317596 573.104126
v 335.432312 286.825012 573.104126
v 321.437408 268.293915 573.104004
v 307.442413 269.282196 573.104004
v 341.793610 264.984985 573.104004
v 299.807892 289.317596 573.104126
v 353.402802 282.613495 573.104126
v 286.927094 268.017303 573.104004
v 279.134491 286.814911 573.104126
v 265.457611 264.012085 573.104004
v 260.209686 282.339203 573.104126
v 244.783401 277.235199 573.104126
v 252.417007 259.048309 573.104004
v 231.565399 277.304504 573.104126
v 233.137894 255.963104 573.104126
v 360.400299 259.702515 573.104004
v 365.648285 278.126892 573.104126
v 231.565399 119.805099 573.104004
v 384.121185 278.487488 573.104126
v 380.780396 255.963104 573.104126
v 233.137894 123.064903 573.104004
v 237.920700 251.480194 573.104126
v 376.271698 251.426605 573.104126
v 237.730804 127.234901 573.104004
v 376.509003 127.559502 573.104126
v 380.780396 123.065002 573.104126
v 384.121185 119.805099 573.104126
v 380.921112 123.065002 573.104126
v 380.780396 123.208397 573.104126
v 265.457611 264.012085 589.752930
v 286.927094 268.017303 589.752930
v 307.442413 269.282196 589.752930
v 360.400391 259.702393 589.752808
v 252.417007 259.048309 589.752930
v 341.793610 264.984894 589.752808
v 321.437408 268.293915 589.752930
v 242.323593 131.404800 577.457886
v 242.703400 246.997406 577.458008
v 252.268707 238.031799 582.138123
v 251.509293 139.744705 582.138123
v 237.730804 127.234901 573.104004
v 237.920700 251.480194 573.104126
v 251.509293 139.744705 589.752930
v 252.268707 238.031799 589.752930
v 362.745697 237.817093 589.752808
v 363.694702 140.613007 589.752930
v 360.400299 259.702515 573.104004
v 360.400391 259.702393 589.752808
v 341.793610 264.984894 589.752808
v 341.793610 264.984985 573.104004
v 321.437408 268.293915 589.752930
v 321.437408 268.293915 573.104004
v 307.442413 269.282196 589.752930
v 307.442413 269.282196 573.104004
v 286.927094 268.017303 589.752930
v 286.927094 268.017303 573.104004
v 265.457611 264.012085 589.752930
v 265.457611 264.012085 573.104004
v 252.417007 259.048309 589.752930
v 252.417007 259.048309 573.104004
v 252.417007 259.048309 573.104004
v 252.417007 259.048309 589.752930
v 360.400391 259.702393 589.752808
v 360.400299 259.702515 573.104004
v 362.745697 237.817093 582.137878
v 362.745697 237.817093 589.752808
v 252.268707 238.031799 589.752930
v 252.268707 238.031799 582.138123
v 363.694702 140.613007 582.138123
v 363.694702 140.613007 589.752930
v 362.745697 237.817093 589.752808
v 362.745697 237.817093 582.137878
v 251.509293 139.744705 582.138123
v 251.509293 139.744705 589.752930
v 363.694702 140.613007 589.752930
v 363.694702 140.613007 582.138123
v 252.268707 238.031799 582.138123
v 252.268707 238.031799 589.752930
v 251.509293 139.744705 589.752930
v 251.509293 139.744705 582.138123
v 251.509293 139.744705 582.138123
v 363.694702 140.613007 582.138123
v 372.237488 131.910706 577.458008
v 242.323593 131.404800 577.457886
v 376.509003 127.559502 573.104126
v 237.730804 127.234901 573.104004
v 363.694702 140.613007 582.138123
v 362.745697 237.817093 582.137878
v 371.763092 246.890106 577.457886
v 372.237488 131.910706 577.458008
v 376.271698 251.426605 573.104126
v 376.509003 127.559502 573.104126
v 362.745697 237.817093 582.137878
v 252.268707 238.031799 582.138123
v 242.703400 246.997406 577.458008
v 371.763092 246.890106 577.457886
v 237.920700 251.480194 573.104126
v 376.271698 251.426605 573.104126
v 13.023600 106.090897 -632.635071
v 7.558300 106.090897 -638.422729
v 7.607300 -2.215500 -638.422729
v 13.023600 -2.215500 -632.635071
v 13.023600 181.805298 -632.635071
v 7.328400 181.805298 -638.422729
v 13.023600 214.397202 -632.635071
v 7.229400 214.397202 -638.422729
v 10.928500 226.063202 -632.635071
v 4.926000 223.939301 -638.422729
v -0.332400 245.722397 -638.422729
v 3.306600 248.618805 -632.635071
v -16.487101 267.032806 -638.422729
v -11.936900 271.359314 -632.635071
v -31.267000 280.781586 -638.422729
v -27.180500 285.595215 -632.635071
v -48.452801 290.405609 -638.422729
v -47.505402 295.763702 -632.635071
v -64.655296 293.842804 -638.422729
v -64.655296 300.385712 -632.635071
v -79.008904 296.503204 -632.635071
v -89.355103 285.249908 -638.422729
v -94.252602 289.847504 -632.635071
v -105.166100 273.563507 -638.422729
v -110.851196 277.645294 -632.635071
v -119.258499 255.346497 -638.422729
v -125.756104 259.341888 -632.635071
v -128.882706 236.785706 -638.422729
v -135.918503 238.265396 -632.635071
v -134.038498 214.397202 -638.422729
v -140.446899 214.397202 -632.635071
v -140.446899 181.805298 -632.635071
v -133.986694 181.805298 -638.422729
v -133.866592 106.090897 -638.422729
v -140.446899 106.090897 -632.635071
v -140.446899 -2.215500 -632.635071
v -133.694702 -2.215500 -638.422729
v -64.655296 274.428406 -650.927124
v -64.655296 214.397202 -650.927124
v -13.858400 214.397202 -650.927124
v -15.456300 224.410797 -650.927124
v -21.801800 240.087997 -650.927124
v -33.559700 256.138397 -650.927124
v -47.743801 266.963104 -650.927124
v -64.655296 206.867294 -650.927124
v -12.656700 206.867294 -650.927002
v -114.699203 214.397202 -650.927185
v -115.678101 206.867294 -650.927185
v -107.279701 240.274597 -650.927124
v -113.251999 225.530594 -650.927185
v -77.791603 268.642792 -650.927124
v -95.148598 256.325012 -650.927124
v -12.361500 4.526400 -649.822021
v -11.910600 106.090897 -649.822021
v -64.655296 106.090897 -649.822021
v -64.655296 4.526400 -649.822021
v -115.434898 4.526400 -649.822021
v -116.336502 106.090897 -649.822021
v -64.655296 181.805298 -649.822021
v -11.669800 160.356293 -649.822021
v -13.004000 160.529099 -649.822021
v -15.583500 162.879303 -649.822021
v -17.016600 167.293198 -649.822021
v -19.309401 170.617798 -649.822021
v -21.545000 170.503204 -649.822021
v -22.462299 171.707001 -649.822021
v -113.887604 161.764999 -649.822021
v -116.819702 160.531403 -649.822021
v -106.876701 169.056396 -649.822021
v -111.531998 165.522797 -649.822021
v -109.905403 169.112396 -649.822021
v -105.306297 170.795105 -649.822021
v -21.602400 174.171799 -649.822021
v -23.035400 175.146301 -649.822021
v -105.194099 175.113693 -649.822021
v -106.596298 173.319000 -649.822021
v -105.194099 177.805893 -649.822021
v -105.923203 176.908493 -649.822021
v -105.081902 181.805298 -649.822021
v -23.150101 178.356293 -649.822021
v -23.264799 181.805298 -649.822021
v -22.347500 177.496506 -649.822021
v -106.596298 173.319000 -643.286499
v -105.194099 175.113693 -643.286499
v -105.923203 176.908493 -643.286499
v -105.081902 181.805298 -643.286499
v -105.194099 177.805893 -643.286499
v -109.905403 169.112396 -643.286499
v -105.306297 170.795105 -643.286499
v -106.876701 169.056396 -643.286499
v -111.531998 165.522797 -643.286499
v -116.819702 160.531403 -643.286499
v -117.008499 181.805298 -643.286499
v -113.887604 161.764999 -643.286499
v -13.004000 160.529099 -643.286377
v -11.669800 160.356293 -643.286377
v -11.574600 181.805298 -643.286377
v -17.016600 167.293198 -643.286377
v -15.583500 162.879303 -643.286377
v -19.309401 170.617798 -643.286377
v -23.264799 181.805298 -643.286377
v -23.150101 178.356293 -643.286377
v -22.347500 177.496506 -643.286377
v -21.602400 174.171799 -643.286377
v -23.035400 175.146301 -643.286377
v -21.545000 170.503204 -643.286377
v -22.462299 171.707001 -643.286377
v -11.574600 181.805298 -638.422729
v -11.574600 181.805298 -643.286377
v -11.669800 160.356293 -643.286377
v -11.910600 106.090897 -638.422729
v -11.910600 106.090897 -649.822021
v -11.669800 160.356293 -649.822021
v -12.361500 4.526400 -638.422729
v -12.361500 4.526400 -649.822021
v -117.008499 181.805298 -638.422729
v -117.008499 181.805298 -643.286499
v -105.081902 181.805298 -643.286499
v -64.655296 181.805298 -638.422729
v -64.655296 181.805298 -649.822021
v -105.081902 181.805298 -649.822021
v -23.264799 181.805298 -643.286377
v -23.264799 181.805298 -649.822021
v -11.574600 181.805298 -638.422729
v -11.574600 181.805298 -643.286377
v -105.194099 177.805893 -649.822021
v -105.081902 181.805298 -649.822021
v -105.081902 181.805298 -643.286499
v -105.194099 177.805893 -643.286499
v -105.923203 176.908493 -649.822021
v -105.923203 176.908493 -643.286499
v -23.264799 181.805298 -649.822021
v -23.150101 178.356293 -649.822021
v -23.150101 178.356293 -643.286377
v -23.264799 181.805298 -643.286377
v -23.150101 178.356293 -649.822021
v -22.347500 177.496506 -649.822021
v -22.347500 177.496506 -643.286377
v -23.150101 178.356293 -643.286377
v -22.347500 177.496506 -649.822021
v -23.035400 175.146301 -649.822021
v -23.035400 175.146301 -643.286377
v -22.347500 177.496506 -643.286377
v -23.035400 175.146301 -649.822021
v -21.602400 174.171799 -649.822021
v -21.602400 174.171799 -643.286377
v -23.035400 175.146301 -643.286377
v -21.602400 174.171799 -649.822021
v -22.462299 171.707001 -649.822021
v -22.462299 171.707001 -643.286377
v -21.602400 174.171799 -643.286377
v -22.462299 171.707001 -649.822021
v -21.545000 170.503204 -649.822021
v -21.545000 170.503204 -643.286377
v -22.462299 171.707001 -643.286377
v -21.545000 170.503204 -649.822021
v -19.309401 170.617798 -649.822021
v -19.309401 170.617798 -643.286377
v -21.545000 170.503204 -643.286377
v -19.309401 170.617798 -649.822021
v -17.016600 167.293198 -649.822021
v -17.016600 167.293198 -643.286377
v -19.309401 170.617798 -643.286377
v -17.016600 167.293198 -649.822021
v -15.583500 162.879303 -649.822021
v -15.583500 162.879303 -643.286377
v -17.016600 167.293198 -643.286377
v -15.583500 162.879303 -649.822021
v -13.004000 160.529099 -649.822021
v -13.004000 160.529099 -643.286377
v -15.583500 162.879303 -643.286377
v -13.004000 160.529099 -649.822021
v -11.669800 160.356293 -649.822021
v -11.669800 160.356293 -643.286377
v -13.004000 160.529099 -643.286377
v -12.361500 4.526400 -649.822021
v -64.655296 4.526400 -649.822021
v -64.655296 4.526400 -638.422729
v -12.361500 4.526400 -638.422729
v -115.434898 4.526400 -638.422729
v -115.434898 4.526400 -649.822021
v -115.434898 4.526400 -649.822021
v -116.336502 106.090897 -649.822021
v -116.336502 106.090897 -638.422729
v -115.434898 4.526400 -638.422729
v -116.819702 160.531403 -643.286499
v -116.819702 160.531403 -649.822021
v -117.008499 181.805298 -638.422729
v -117.008499 181.805298 -643.286499
v -116.819702 160.531403 -649.822021
v -113.887604 161.764999 -649.822021
v -113.887604 161.764999 -643.286499
v -116.819702 160.531403 -643.286499
v -111.531998 165.522797 -643.286499
v -111.531998 165.522797 -649.822021
v -109.905403 169.112396 -643.286499
v -109.905403 169.112396 -649.822021
v -109.905403 169.112396 -649.822021
v -106.876701 169.056396 -649.822021
v -106.876701 169.056396 -643.286499
v -109.905403 169.112396 -643.286499
v -106.876701 169.056396 -649.822021
v -105.306297 170.795105 -649.822021
v -105.306297 170.795105 -643.286499
v -106.876701 169.056396 -643.286499
v -105.306297 170.795105 -649.822021
v -106.596298 173.319000 -649.822021
v -106.596298 173.319000 -643.286499
v -105.306297 170.795105 -643.286499
v -106.596298 173.319000 -649.822021
v -105.194099 175.113693 -649.822021
v -105.194099 175.113693 -643.286499
v -106.596298 173.319000 -643.286499
v -105.194099 175.113693 -649.822021
v -105.923203 176.908493 -649.822021
v -105.923203 176.908493 -643.286499
v -105.194099 175.113693 -643.286499
v -12.656700 206.867294 -650.927002
v -64.655296 206.867294 -650.927124
v -64.655296 206.867294 -638.422729
v -12.656700 206.867294 -638.422607
v -115.678101 206.867294 -638.422729
v -115.678101 206.867294 -650.927185
v -115.678101 206.867294 -650.927185
v -114.699203 214.397202 -650.927185
v -114.699203 214.397202 -638.422729
v -115.678101 206.867294 -638.422729
v -113.251999 225.530594 -638.422729
v -113.251999 225.530594 -650.927185
v -107.279701 240.274597 -638.422729
v -107.279701 240.274597 -650.927124
v -95.148598 256.325012 -638.422729
v -95.148598 256.325012 -650.927124
v -95.148598 256.325012 -650.927124
v -77.791603 268.642792 -650.927124
v -77.791603 268.642792 -638.422729
v -95.148598 256.325012 -638.422729
v -64.655296 274.428406 -638.422729
v -64.655296 274.428406 -650.927124
v -64.655296 274.428406 -650.927124
v -47.743801 266.963104 -650.927124
v -47.743801 266.963104 -638.422729
v -64.655296 274.428406 -638.422729
v -33.559700 256.138397 -638.422729
v -33.559700 256.138397 -650.927124
v -21.801800 240.087997 -638.422729
v -21.801800 240.087997 -650.927124
v -15.456300 224.410797 -638.422729
v -15.456300 224.410797 -650.927124
v -13.858400 214.397202 -638.422729
v -13.858400 214.397202 -650.927124
v -12.656700 206.867294 -638.422607
v -12.656700 206.867294 -650.927002
v 13.023600 -2.215500 -651.538513
v 13.023600 -2.215500 -632.635071
v 7.607300 -2.215500 -638.422729
v -64.655296 -2.215500 -651.538513
v -64.655296 -2.215500 -638.422729
v -140.446899 -2.215500 -651.538513
v -133.694702 -2.215500 -638.422729
v -140.446899 -2.215500 -632.635071
v -140.446899 106.090897 -651.538513
v -140.446899 -2.215500 -651.538513
v -140.446899 -2.215500 -632.635071
v -140.446899 106.090897 -632.635071
v -140.446899 181.805298 -651.538513
v -140.446899 181.805298 -632.635071
v -140.446899 214.397202 -651.538513
v -140.446899 214.397202 -632.635071
v -135.918503 238.265396 -651.538513
v -135.918503 238.265396 -632.635071
v -125.756104 259.341888 -651.538513
v -125.756104 259.341888 -632.635071
v 13.023600 181.805298 -651.538513
v 13.023600 214.397202 -651.538513
v 13.023600 214.397202 -632.635071
v 13.023600 181.805298 -632.635071
v 10.928500 226.063202 -632.635071
v 10.928500 226.063202 -651.538513
v 3.306600 248.618805 -632.635071
v 3.306600 248.618805 -651.538513
v -11.936900 271.359314 -632.635071
v -11.936900 271.359314 -651.538513
v -27.180500 285.595215 -632.635071
v -27.180500 285.595215 -651.538513
v -47.505402 295.763702 -632.635071
v -47.505402 295.763702 -651.538513
v -64.655296 300.385712 -632.635071
v -64.655296 300.385712 -651.538513
v -79.008904 296.503204 -632.635071
v -79.008904 296.503204 -651.538513
v -94.252602 289.847504 -632.635071
v -94.252602 289.847504 -651.538513
v -110.851196 277.645294 -632.635071
v -110.851196 277.645294 -651.538513
v -125.756104 259.341888 -632.635071
v -125.756104 259.341888 -651.538513
v 13.023600 -2.215500 -651.538513
v 13.023600 106.090897 -651.538513
v 13.023600 106.090897 -632.635071
v 13.023600 -2.215500 -632.635071
v 13.023600 181.805298 -632.635071
v 13.023600 181.805298 -651.538513
v 7.558300 106.090897 -638.422729
v -11.910600 106.090897 -638.422729
v -12.361500 4.526400 -638.422729
v 7.607300 -2.215500 -638.422729
v 7.328400 181.805298 -638.422729
v -64.655296 -2.215500 -638.422729
v -64.655296 4.526400 -638.422729
v -115.434898 4.526400 -638.422729
v -133.694702 -2.215500 -638.422729
v -133.866592 106.090897 -638.422729
v -116.336502 106.090897 -638.422729
v -117.008499 181.805298 -638.422729
v -11.574600 181.805298 -638.422729
v -133.986694 181.805298 -638.422729
v -12.656700 206.867294 -638.422607
v 7.229400 214.397202 -638.422729
v -64.655296 181.805298 -638.422729
v -13.858400 214.397202 -638.422729
v -64.655296 206.867294 -638.422729
v 4.926000 223.939301 -638.422729
v -15.456300 224.410797 -638.422729
v -0.332400 245.722397 -638.422729
v -21.801800 240.087997 -638.422729
v -16.487101 267.032806 -638.422729
v -33.559700 256.138397 -638.422729
v -31.267000 280.781586 -638.422729
v -47.743801 266.963104 -638.422729
v -48.452801 290.405609 -638.422729
v -64.655296 274.428406 -638.422729
v -64.655296 293.842804 -638.422729
v -89.355103 285.249908 -638.422729
v -77.791603 268.642792 -638.422729
v -105.166100 273.563507 -638.422729
v -95.148598 256.325012 -638.422729
v -119.258499 255.346497 -638.422729
v -107.279701 240.274597 -638.422729
v -128.882706 236.785706 -638.422729
v -113.251999 225.530594 -638.422729
v -134.038498 214.397202 -638.422729
v -114.699203 214.397202 -638.422729
v -115.678101 206.867294 -638.422729
v 1302.408691 414.249390 -105.462303
v 1302.408691 522.555786 -105.413300
v 1296.621094 522.555786 -110.878601
v 1296.621094 414.249390 -110.878601
v 1296.621094 598.270203 -110.878601
v 1302.408691 598.270203 -105.183403
v 1296.621094 630.862122 -110.878601
v 1302.408691 630.862122 -105.084396
v 1296.621094 642.528076 -108.783501
v 1302.408691 640.404175 -102.780998
v 1302.408691 662.187317 -97.522598
v 1296.621094 665.083679 -101.161697
v 1302.408691 683.497681 -81.367897
v 1296.621094 687.824219 -85.917999
v 1302.408691 697.246521 -66.588097
v 1296.621094 702.060120 -70.674400
v 1302.408691 706.870483 -49.402199
v 1296.621094 712.228577 -50.349602
v 1302.408691 710.307678 -33.199699
v 1296.621094 716.850586 -33.199699
v 1296.621094 712.968079 -18.846100
v 1302.408691 701.714783 -8.499800
v 1296.621094 706.312378 -3.602400
v 1302.408691 690.028381 7.311200
v 1296.621094 694.110229 12.996200
v 1302.408691 671.811279 21.403601
v 1296.621094 675.806824 27.901100
v 1302.408691 653.250610 31.027700
v 1296.621094 654.730286 38.063499
v 1302.408691 630.862122 36.183399
v 1296.621094 630.862122 42.591999
v 1296.621094 598.270203 42.591900
v 1302.408691 598.270203 36.131699
v 1302.408691 522.555786 36.011600
v 1296.621094 522.555786 42.591900
v 1296.621094 414.249390 42.591900
v 1302.408691 414.249390 35.839699
v 1314.913086 672.603271 -64.295303
v 1314.913086 656.552917 -76.053200
v 1314.913086 640.875671 -82.398697
v 1314.913086 630.862122 -33.199699
v 1314.913086 630.862122 -83.996597
v 1314.913086 690.893311 -33.199699
v 1314.913086 683.427979 -50.111198
v 1314.913086 685.107727 -20.063299
v 1314.913086 656.739502 9.424700
v 1314.913086 672.789917 -2.706500
v 1314.913086 641.995483 15.396900
v 1314.913086 630.862122 16.844299
v 1314.913086 623.332214 -33.199699
v 1314.912964 623.332214 -85.198196
v 1314.913086 623.332214 17.823099
v 1313.807861 522.555786 -33.199699
v 1313.807861 522.555786 -85.944298
v 1313.807861 420.991302 -85.493599
v 1313.807861 420.991302 -33.199699
v 1313.807861 420.991302 17.580000
v 1313.807861 522.555786 18.481501
v 1313.807861 598.270203 -33.199699
v 1313.807861 576.996277 18.964800
v 1313.807861 578.229919 16.032600
v 1313.807861 585.521179 9.021700
v 1313.807861 581.987671 13.676900
v 1313.807861 585.577271 12.050400
v 1313.807861 587.259888 7.451300
v 1313.807861 591.578613 7.339100
v 1313.807861 589.783875 8.741300
v 1313.807861 594.270813 7.339100
v 1313.807861 593.373413 8.068200
v 1313.807861 598.270203 7.226900
v 1313.807861 598.270203 -74.590202
v 1313.807861 594.821228 -74.704903
v 1313.807861 591.611206 -74.819504
v 1313.807861 593.961426 -75.507401
v 1313.807861 590.636719 -76.252602
v 1313.807861 588.171875 -75.392799
v 1313.807861 586.968079 -76.309898
v 1313.807861 579.344177 -82.271400
v 1313.807861 583.758118 -80.838402
v 1313.807861 587.082703 -78.545502
v 1313.807861 576.994019 -84.850899
v 1313.807861 576.821228 -86.185204
v 1307.272461 585.577271 12.050400
v 1307.272461 581.987671 13.676900
v 1307.272461 578.229919 16.032600
v 1307.272461 598.270203 19.153601
v 1307.272461 576.996277 18.964800
v 1307.272461 593.373413 8.068200
v 1307.272461 594.270813 7.339100
v 1307.272461 598.270203 7.226900
v 1307.272461 589.783875 8.741300
v 1307.272461 591.578613 7.339100
v 1307.272461 585.521179 9.021700
v 1307.272461 587.259888 7.451300
v 1307.272339 576.994019 -84.850899
v 1307.272339 579.344177 -82.271400
v 1307.272339 583.758118 -80.838402
v 1307.272339 598.270203 -86.280403
v 1307.272339 576.821228 -86.185204
v 1307.272461 598.270203 -74.590202
v 1307.272461 590.636719 -76.252602
v 1307.272461 587.082703 -78.545502
v 1307.272461 588.171875 -75.392799
v 1307.272461 586.968079 -76.309898
v 1307.272461 593.961426 -75.507401
v 1307.272461 591.611206 -74.819504
v 1307.272461 594.821228 -74.704903
v 1302.408691 598.270203 -86.280403
v 1302.408691 522.555786 -85.944298
v 1307.272339 576.821228 -86.185204
v 1307.272339 598.270203 -86.280403
v 1313.807861 522.555786 -85.944298
v 1313.807861 576.821228 -86.185204
v 1302.408691 420.991302 -85.493599
v 1313.807861 420.991302 -85.493599
v 1302.408691 598.270203 19.153601
v 1302.408691 598.270203 -33.199699
v 1307.272461 598.270203 7.226900
v 1307.272461 598.270203 19.153601
v 1313.807861 598.270203 -33.199699
v 1313.807861 598.270203 7.226900
v 1307.272461 598.270203 -74.590202
v 1313.807861 598.270203 -74.590202
v 1302.408691 598.270203 -86.280403
v 1307.272339 598.270203 -86.280403
v 1307.272461 598.270203 7.226900
v 1313.807861 598.270203 7.226900
v 1313.807861 594.270813 7.339100
v 1307.272461 594.270813 7.339100
v 1313.807861 593.373413 8.068200
v 1307.272461 593.373413 8.068200
v 1307.272461 594.821228 -74.704903
v 1313.807861 594.821228 -74.704903
v 1313.807861 598.270203 -74.590202
v 1307.272461 598.270203 -74.590202
v 1307.272461 593.961426 -75.507401
v 1313.807861 593.961426 -75.507401
v 1313.807861 594.821228 -74.704903
v 1307.272461 594.821228 -74.704903
v 1307.272461 591.611206 -74.819504
v 1313.807861 591.611206 -74.819504
v 1313.807861 593.961426 -75.507401
v 1307.272461 593.961426 -75.507401
v 1307.272461 590.636719 -76.252602
v 1313.807861 590.636719 -76.252602
v 1313.807861 591.611206 -74.819504
v 1307.272461 591.611206 -74.819504
v 1307.272461 588.171875 -75.392799
v 1313.807861 588.171875 -75.392799
v 1313.807861 590.636719 -76.252602
v 1307.272461 590.636719 -76.252602
v 1307.272461 586.968079 -76.309898
v 1313.807861 586.968079 -76.309898
v 1313.807861 588.171875 -75.392799
v 1307.272461 588.171875 -75.392799
v 1307.272461 587.082703 -78.545502
v 1313.807861 587.082703 -78.545502
v 1313.807861 586.968079 -76.309898
v 1307.272461 586.968079 -76.309898
v 1307.272339 583.758118 -80.838402
v 1313.807861 583.758118 -80.838402
v 1313.807861 587.082703 -78.545502
v 1307.272461 587.082703 -78.545502
v 1307.272339 579.344177 -82.271400
v 1313.807861 579.344177 -82.271400
v 1313.807861 583.758118 -80.838402
v 1307.272339 583.758118 -80.838402
v 1307.272339 576.994019 -84.850899
v 1313.807861 576.994019 -84.850899
v 1313.807861 579.344177 -82.271400
v 1307.272339 579.344177 -82.271400
v 1307.272339 576.821228 -86.185204
v 1313.807861 576.821228 -86.185204
v 1313.807861 576.994019 -84.850899
v 1307.272339 576.994019 -84.850899
v 1302.408691 420.991302 -33.199699
v 1313.807861 420.991302 -33.199699
v 1313.807861 420.991302 -85.493599
v 1302.408691 420.991302 -85.493599
v 1302.408691 420.991302 17.580000
v 1313.807861 420.991302 17.580000
v 1302.408691 522.555786 18.481501
v 1313.807861 522.555786 18.481501
v 1313.807861 420.991302 17.580000
v 1302.408691 420.991302 17.580000
v 1307.272461 576.996277 18.964800
v 1313.807861 576.996277 18.964800
v 1302.408691 598.270203 19.153601
v 1307.272461 598.270203 19.153601
v 1307.272461 578.229919 16.032600
v 1313.807861 578.229919 16.032600
v 1313.807861 576.996277 18.964800
v 1307.272461 576.996277 18.964800
v 1307.272461 581.987671 13.676900
v 1313.807861 581.987671 13.676900
v 1307.272461 585.577271 12.050400
v 1313.807861 585.577271 12.050400
v 1307.272461 585.521179 9.021700
v 1313.807861 585.521179 9.021700
v 1313.807861 585.577271 12.050400
v 1307.272461 585.577271 12.050400
v 1307.272461 587.259888 7.451300
v 1313.807861 587.259888 7.451300
v 1313.807861 585.521179 9.021700
v 1307.272461 585.521179 9.021700
v 1307.272461 589.783875 8.741300
v 1313.807861 589.783875 8.741300
v 1313.807861 587.259888 7.451300
v 1307.272461 587.259888 7.451300
v 1307.272461 591.578613 7.339100
v 1313.807861 591.578613 7.339100
v 1313.807861 589.783875 8.741300
v 1307.272461 589.783875 8.741300
v 1307.272461 593.373413 8.068200
v 1313.807861 593.373413 8.068200
v 1313.807861 591.578613 7.339100
v 1307.272461 591.578613 7.339100
v 1302.408691 623.332214 -33.199699
v 1314.913086 623.332214 -33.199699
v 1314.912964 623.332214 -85.198196
v 1302.408569 623.332214 -85.198196
v 1302.408691 623.332214 17.823200
v 1314.913086 623.332214 17.823099
v 1302.408691 630.862122 16.844299
v 1314.913086 630.862122 16.844299
v 1314.913086 623.332214 17.823099
v 1302.408691 623.332214 17.823200
v 1302.408691 641.995483 15.396900
v 1314.913086 641.995483 15.396900
v 1302.408691 656.739502 9.424700
v 1314.913086 656.739502 9.424700
v 1302.408691 672.789917 -2.706500
v 1314.913086 672.789917 -2.706500
v 1302.408691 685.107727 -20.063299
v 1314.913086 685.107727 -20.063299
v 1314.913086 672.789917 -2.706500
v 1302.408691 672.789917 -2.706500
v 1302.408691 690.893311 -33.199699
v 1314.913086 690.893311 -33.199699
v 1302.408691 683.427979 -50.111198
v 1314.913086 683.427979 -50.111198
v 1314.913086 690.893311 -33.199699
v 1302.408691 690.893311 -33.199699
v 1302.408691 672.603271 -64.295303
v 1314.913086 672.603271 -64.295303
v 1302.408691 656.552917 -76.053200
v 1314.913086 656.552917 -76.053200
v 1302.408691 640.875671 -82.398697
v 1314.913086 640.875671 -82.398697
v 1302.408691 630.862122 -83.996597
v 1314.913086 630.862122 -83.996597
v 1302.408569 623.332214 -85.198196
v 1314.912964 623.332214 -85.198196
v 1302.408691 414.249390 -105.462303
v 1296.621094 414.249390 -110.878601
v 1315.524414 414.249390 -110.878601
v 1302.408691 414.249390 -33.199699
v 1315.524414 414.249390 -33.199699
v 1302.408691 414.249390 35.839699
v 1315.524414 414.249390 42.591900
v 1296.621094 414.249390 42.591900
v 1296.621094 414.249390 42.591900
v 1315.524414 414.249390 42.591900
v 1315.524414 522.555786 42.591900
v 1296.621094 522.555786 42.591900
v 1315.524414 598.270203 42.591900
v 1296.621094 598.270203 42.591900
v 1315.524414 630.862122 42.591999
v 1296.621094 630.862122 42.591999
v 1315.524414 654.730286 38.063499
v 1296.621094 654.730286 38.063499
v 1315.524414 675.806824 27.901100
v 1296.621094 675.806824 27.901100
v 1296.621094 630.862122 -110.878601
v 1315.524414 630.862122 -110.878601
v 1315.524414 598.270203 -110.878601
v 1296.621094 598.270203 -110.878601
v 1296.621094 642.528076 -108.783501
v 1315.524414 642.528076 -108.783501
v 1296.621094 665.083679 -101.161697
v 1315.524414 665.083679 -101.161697
v 1296.621094 687.824219 -85.917999
v 1315.524414 687.824219 -85.917999
v 1296.621094 702.060120 -70.674400
v 1315.524414 702.060120 -70.674400
v 1296.621094 712.228577 -50.349602
v 1315.524414 712.228577 -50.349602
v 1296.621094 716.850586 -33.199699
v 1315.524414 716.850586 -33.199699
v 1296.621094 712.968079 -18.846100
v 1315.524414 712.968079 -18.846100
v 1296.621094 706.312378 -3.602400
v 1315.524414 706.312378 -3.602400
v 1296.621094 694.110229 12.996200
v 1315.524414 694.110229 12.996200
v 1296.621094 675.806824 27.901100
v 1315.524414 675.806824 27.901100
v 1296.621094 522.555786 -110.878601
v 1315.524414 522.555786 -110.878601
v 1315.524414 414.249390 -110.878601
v 1296.621094 414.249390 -110.878601
v 1296.621094 598.270203 -110.878601
v 1315.524414 598.270203 -110.878601
v 1302.408691 420.991302 -85.493599
v 1302.408691 522.555786 -85.944298
v 1302.408691 522.555786 -105.413300
v 1302.408691 414.249390 -105.462303
v 1302.408691 598.270203 -105.183403
v 1302.408691 414.249390 -33.199699
v 1302.408691 420.991302 -33.199699
v 1302.408691 420.991302 17.580000
v 1302.408691 414.249390 35.839699
v 1302.408691 522.555786 36.011600
v 1302.408691 522.555786 18.481501
v 1302.408691 598.270203 19.153601
v 1302.408691 598.270203 -86.280403
v 1302.408691 598.270203 36.131699
v 1302.408569 623.332214 -85.198196
v 1302.408691 630.862122 -105.084396
v 1302.408691 598.270203 -33.199699
v 1302.408691 630.862122 -83.996597
v 1302.408691 623.332214 -33.199699
v 1302.408691 640.404175 -102.780998
v 1302.408691 640.875671 -82.398697
v 1302.408691 662.187317 -97.522598
v 1302.408691 656.552917 -76.053200
v 1302.408691 683.497681 -81.367897
v 1302.408691 672.603271 -64.295303
v 1302.408691 697.246521 -66.588097
v 1302.408691 683.427979 -50.111198
v 1302.408691 706.870483 -49.402199
v 1302.408691 690.893311 -33.199699
v 1302.408691 710.307678 -33.199699
v 1302.408691 701.714783 -8.499800
v 1302.408691 685.107727 -20.063299
v 1302.408691 690.028381 7.311200
v 1302.408691 672.789917 -2.706500
v 1302.408691 671.811279 21.403601
v 1302.408691 656.739502 9.424700
v 1302.408691 653.250610 31.027700
v 1302.408691 641.995483 15.396900
v 1302.408691 630.862122 36.183399
v 1302.408691 630.862122 16.844299
v 1302.408691 623.332214 17.823200
vn -0.0004 -0.7816 -0.6238
vn -0.0000 -0.7829 -0.6221
vn -0.0040 -0.7672 -0.6414
vn -0.0045 -0.7672 -0.6414
vn -0.0004 -0.7529 -0.6582
vn -0.0000 -0.7515 -0.6597
vn -0.0000 -0.0000 -1.0000
vn -0.0000 0.0001 -1.0000
vn -0.0000 -0.0001 -1.0000
vn -0.0000 -1.0000 -0.0000
vn -1.0000 -0.0000 -0.0000
vn -0.3716 -0.9284 -0.0000
vn -0.6598 -0.7515 -0.0000
vn -0.9648 -0.2630 -0.0000
vn -0.9624 -0.2715 -0.0000
vn -0.8638 -0.5039 -0.0000
vn -0.0000 1.0000 -0.0000
vn 0.9900 -0.1412 -0.0000
vn 0.9571 -0.2898 -0.0000
vn 1.0000 0.0039 -0.0000
vn 0.9044 -0.4267 -0.0000
vn 0.9570 -0.2900 -0.0000
vn 0.9900 -0.1413 -0.0000
vn 0.7958 -0.6055 -0.0000
vn 0.5384 -0.8427 -0.0000
vn -0.4369 -0.8995 -0.0000
vn 0.4190 -0.9080 -0.0000
vn 0.9998 -0.0204 -0.0000
vn 0.6823 0.7311 -0.0000
vn 0.9629 -0.2697 -0.0000
vn 0.8074 -0.5900 -0.0000
vn 0.9571 0.2897 -0.0000
vn 0.8762 0.4820 -0.0000
vn 0.9651 -0.2620 -0.0000
vn 0.8627 -0.5057 -0.0000
vn 1.0000 -0.0000 -0.0000
vn -0.9904 0.1383 -0.0000
vn -0.9989 0.0463 -0.0000
vn -0.9734 0.2290 -0.0000
vn -0.6357 -0.7719 -0.0000
vn -0.8797 0.4756 -0.0000
vn -0.8797 0.4755 -0.0000
vn -0.8192 0.5734 -0.0000
vn -0.8192 0.5735 -0.0000
vn -0.9285 0.3714 -0.0000
vn -0.9285 0.3713 -0.0000
vn -0.8087 -0.5882 -0.0000
vn -0.8088 -0.5881 -0.0000
vn 0.1360 -0.9907 -0.0000
vn 0.4763 -0.8793 -0.0000
vn -0.2216 -0.9751 -0.0000
vn 0.7035 -0.7102 -0.0280
vn 0.7211 -0.6920 -0.0331
vn 0.7930 -0.6092 -0.0103
vn 0.6811 -0.7321 -0.0112
vn 0.7424 -0.6692 -0.0312
vn 0.9049 -0.4255 -0.0000
vn -0.6774 -0.7351 -0.0272
vn -0.6529 -0.7574 -0.0103
vn -0.7794 -0.6264 -0.0097
vn -0.7121 -0.7013 -0.0327
vn -0.7424 -0.6692 -0.0312
vn -0.9049 -0.4256 -0.0000
vn -0.9997 -0.0119 0.0191
vn -0.9996 -0.0127 0.0241
vn -0.9998 -0.0056 -0.0190
vn -0.9997 -0.0048 -0.0240
vn -0.0000 -1.0000 0.0071
vn 0.9997 -0.0032 -0.0240
vn 0.6260 -0.0026 -0.7798
vn 0.6108 -0.0012 -0.7918
vn 0.4392 -0.0015 -0.8984
vn 0.4565 -0.0035 -0.8897
vn 0.6882 -0.0022 -0.7255
vn 0.6727 -0.0010 -0.7400
vn -0.2731 -0.9620 -0.0000
vn -0.2171 -0.9761 -0.0000
vn -0.1156 -0.9933 -0.0000
vn -0.0045 -1.0000 -0.0000
vn 0.1227 -0.9924 -0.0000
vn 0.2707 -0.9627 -0.0000
vn 0.3557 -0.9346 -0.0000
vn -0.0061 1.0000 -0.0000
vn -0.0019 -1.0000 -0.0000
vn -1.0000 -0.0098 -0.0000
vn -0.0077 1.0000 -0.0000
vn 1.0000 -0.0077 -0.0000
vn -0.0020 0.4903 -0.8716
vn -0.0036 0.4709 -0.8822
vn -0.0030 0.6454 -0.7639
vn -0.0018 0.6669 -0.7451
vn -0.0027 0.7068 -0.7074
vn -0.0017 0.7231 -0.6907
vn -0.4810 -0.0021 -0.8767
vn -0.4571 -0.0045 -0.8894
vn -0.6335 -0.0033 -0.7737
vn -0.6555 -0.0016 -0.7552
vn -0.6943 -0.0028 -0.7196
vn -0.7145 -0.0014 -0.6996
vn -0.0004 -0.4583 -0.8888
vn -0.0009 -0.4635 -0.8861
vn -0.0007 -0.6397 -0.7687
vn -0.0003 -0.6323 -0.7747
vn -0.0006 -0.6968 -0.7173
vn -0.0003 -0.6923 -0.7216
vn 0.6726 -0.0010 -0.7400
vn 0.2706 -0.9627 -0.0000
vn -0.0030 0.6453 -0.7639
vn -0.0017 0.7231 -0.6908
vn -0.6554 -0.0016 -0.7552
vn -0.6943 -0.0028 -0.7197
vn -0.7271 -0.0002 0.6865
vn -0.7266 -0.0002 0.6871
vn -0.7300 -0.0000 0.6834
vn -0.7301 -0.0000 0.6833
vn -0.7133 -0.0010 0.7009
vn -0.7123 -0.0012 0.7019
vn -0.7059 -0.0614 0.7057
vn -0.6962 -0.0741 0.7140
vn -0.6771 -0.1618 0.7179
vn -0.6558 -0.1583 0.7382
vn -0.6902 -0.3468 0.6351
vn -0.6827 -0.3666 0.6320
vn -0.5218 -0.4470 0.7266
vn -0.5148 -0.4411 0.7351
vn -0.3968 -0.5486 0.7359
vn -0.4021 -0.5531 0.7297
vn -0.2500 -0.6823 0.6870
vn -0.2391 -0.6838 0.6894
vn 0.0134 -0.6601 0.7511
vn 0.0003 -0.6626 0.7490
vn 0.2123 -0.6093 0.7640
vn 0.3129 -0.5812 0.7512
vn 0.3419 -0.5726 0.7451
vn 0.4441 -0.4669 0.7647
vn 0.4494 -0.4536 0.7696
vn 0.5089 -0.3331 0.7938
vn 0.5108 -0.3314 0.7932
vn 0.5887 -0.2143 0.7794
vn 0.6024 -0.2038 0.7718
vn 0.6625 -0.0680 0.7459
vn 0.6690 -0.0603 0.7408
vn 0.6673 0.0009 0.7448
vn 0.6673 0.0011 0.7448
vn 0.6604 0.0001 0.7509
vn 0.6604 -0.0000 0.7509
vn 0.6513 0.0010 0.7588
vn 0.6508 0.0010 0.7593
vn -0.0000 -0.0000 1.0000
vn -0.0000 0.0001 1.0000
vn -0.0000 -0.0001 1.0000
vn -1.0000 0.0044 -0.0000
vn 0.9376 -0.3477 -0.0000
vn 0.9996 -0.0280 -0.0000
vn 0.7761 -0.6306 -0.0000
vn -0.9994 -0.0332 -0.0000
vn -0.9242 -0.3820 -0.0000
vn -0.9241 -0.3821 -0.0000
vn -0.9241 -0.3822 -0.0000
vn -0.7310 -0.6824 -0.0000
vn -0.9597 0.2809 -0.0000
vn -0.5623 -0.8269 -0.0000
vn -0.9442 0.3294 -0.0000
vn -0.7954 -0.6061 -0.0000
vn 0.0512 -0.9987 -0.0000
vn -0.8232 -0.5677 -0.0000
vn -0.8965 -0.4430 -0.0000
vn -0.8966 -0.4428 -0.0000
vn -0.8404 -0.5420 -0.0000
vn -0.8403 -0.5422 -0.0000
vn -0.4205 -0.9073 -0.0000
vn -0.8402 -0.5422 -0.0000
vn -0.4204 -0.9074 -0.0000
vn -0.1284 -0.9917 -0.0000
vn 1.0000 0.0089 -0.0000
vn 0.3878 -0.9217 -0.0000
vn 0.6477 -0.7619 -0.0000
vn 0.8811 -0.4730 -0.0000
vn 0.9108 -0.4127 -0.0000
vn -0.0185 -0.9998 -0.0000
vn 0.7421 -0.6703 -0.0000
vn 0.8904 0.4551 -0.0000
vn 0.7880 -0.6157 -0.0000
vn 0.9265 0.3764 -0.0000
vn 0.9917 -0.1289 -0.0000
vn 0.9671 -0.2542 -0.0000
vn 0.8698 -0.4934 -0.0000
vn 0.6965 -0.7176 -0.0000
vn 0.6964 -0.7177 -0.0000
vn 0.4934 -0.8698 -0.0000
vn 0.4031 -0.9152 -0.0000
vn -0.4038 -0.9148 -0.0000
vn -0.5088 -0.8609 -0.0000
vn -0.7140 -0.7001 -0.0000
vn -0.8735 -0.4868 -0.0000
vn -0.9634 -0.2681 -0.0000
vn -0.9875 -0.1576 -0.0000
vn -0.9956 0.0936 -0.0000
vn -0.9497 0.3130 -0.0000
vn -0.8439 0.5365 -0.0000
vn 0.9961 0.0887 -0.0000
vn 0.9685 0.2491 -0.0000
vn 0.8969 0.4423 -0.0000
vn 0.8968 0.4423 -0.0000
vn 0.7616 0.6481 -0.0000
vn 0.5709 0.8210 -0.0000
vn 0.3556 0.9346 -0.0000
vn -0.0005 1.0000 -0.0000
vn -0.3315 0.9434 -0.0000
vn -0.4993 0.8664 -0.0000
vn -0.6894 0.7244 -0.0000
vn -0.8438 0.5366 -0.0000
vn -0.6834 -0.0000 0.7300
vn -0.6871 -0.0002 0.7266
vn -0.6865 -0.0002 0.7271
vn -0.6833 -0.0000 0.7301
vn -0.7009 -0.0010 0.7133
vn -0.7019 -0.0012 0.7123
vn -0.7057 -0.0614 0.7059
vn -0.7140 -0.0741 0.6962
vn -0.7179 -0.1618 0.6771
vn -0.7382 -0.1583 0.6557
vn -0.6351 -0.3468 0.6902
vn -0.6321 -0.3666 0.6827
vn -0.7266 -0.4470 0.5218
vn -0.7351 -0.4411 0.5148
vn -0.7359 -0.5486 0.3968
vn -0.7297 -0.5531 0.4021
vn -0.6870 -0.6823 0.2500
vn -0.6894 -0.6838 0.2391
vn -0.7510 -0.6601 -0.0134
vn -0.7490 -0.6626 -0.0003
vn -0.7640 -0.6093 -0.2123
vn -0.7512 -0.5812 -0.3129
vn -0.7451 -0.5726 -0.3419
vn -0.7647 -0.4669 -0.4441
vn -0.7696 -0.4536 -0.4494
vn -0.7938 -0.3331 -0.5089
vn -0.7932 -0.3314 -0.5108
vn -0.7794 -0.2143 -0.5887
vn -0.7718 -0.2038 -0.6024
vn -0.7460 -0.0680 -0.6625
vn -0.7408 -0.0603 -0.6690
vn -0.7448 0.0009 -0.6673
vn -0.7448 0.0011 -0.6673
vn -0.7509 0.0001 -0.6604
vn -0.7509 -0.0000 -0.6604
vn -0.7588 0.0010 -0.6513
vn -0.7593 0.0010 -0.6508
vn -1.0000 -0.0000 -0.0001
vn -1.0000 -0.0000 0.0002
vn -1.0000 -0.0000 -0.0002
vn -1.0000 -0.0000 0.0001
vn -1.0000 -0.0002 0.0002
vn -0.0000 0.0044 1.0000
vn -0.0000 -0.0280 -0.9996
vn -0.0000 -0.3478 -0.9376
vn -0.0000 -0.3477 -0.9376
vn -0.0000 -0.6306 -0.7761
vn -0.0000 -0.3820 0.9242
vn -0.0000 -0.3820 0.9241
vn -0.0000 -0.0332 0.9994
vn -0.0000 -0.6823 0.7310
vn -0.0000 -0.3822 0.9241
vn -0.0000 0.2809 0.9597
vn -0.0000 -0.8269 0.5623
vn -0.0000 0.3294 0.9442
vn -0.0000 -0.6060 0.7955
vn -0.0000 -0.9987 -0.0512
vn -0.0000 -0.4430 0.8965
vn -0.0000 -0.4429 0.8965
vn -0.0000 -0.5677 0.8232
vn -0.0000 -0.5678 0.8232
vn -0.0000 -0.5420 0.8404
vn -0.0001 -0.5420 0.8404
vn -0.0000 -0.4428 0.8966
vn -0.0000 -0.9073 0.4205
vn -0.0000 -0.5422 0.8403
vn -0.0000 -0.9917 0.1284
vn -0.0000 -0.9074 0.4203
vn -0.0000 0.0089 -1.0000
vn -0.0000 -0.7619 -0.6477
vn -0.0000 -0.9217 -0.3878
vn -0.0000 -0.4730 -0.8811
vn -0.0000 -0.4127 -0.9109
vn -0.0000 -0.9998 0.0185
vn -0.0000 -0.6703 -0.7421
vn -0.0000 0.4551 -0.8904
vn -0.0000 -0.6157 -0.7880
vn -0.0000 0.3764 -0.9265
vn -0.0000 -0.1289 -0.9917
vn -0.0000 -0.2542 -0.9671
vn -0.0000 -0.2543 -0.9671
vn -0.0000 -0.4934 -0.8698
vn -0.0000 -0.7176 -0.6965
vn -0.0000 -0.8698 -0.4934
vn -0.0000 -0.7177 -0.6964
vn -0.0000 -0.9152 -0.4031
vn -0.0000 -0.8609 0.5088
vn -0.0000 -0.9148 0.4038
vn -0.0000 -0.7001 0.7140
vn -0.0000 -0.4868 0.8735
vn -0.0000 -0.2681 0.9634
vn -0.0000 -0.1576 0.9875
vn -0.0000 0.0936 0.9956
vn -0.0000 0.3130 0.9497
vn -0.0000 0.5365 0.8439
vn -0.0000 0.0887 -0.9961
vn -0.0000 0.2491 -0.9685
vn -0.0000 0.4423 -0.8969
vn -0.0000 0.4423 -0.8968
vn -0.0000 0.6481 -0.7616
vn -0.0000 0.8210 -0.5709
vn -0.0000 0.9346 -0.3556
vn -0.0000 1.0000 0.0004
vn -0.0000 1.0000 0.0005
vn -0.0000 0.9434 0.3315
vn -0.0000 0.8664 0.4993
vn -0.0000 0.7244 0.6894
vn -0.0000 0.5366 0.8438
vt 0.906800 0.962800
vt 0.930000 0.986400
vt 0.703700 0.986400
vt 0.703600 0.961500
vt 0.498800 0.960300
vt 0.475000 0.986400
vt 0.847400 0.894200
vt 0.845700 0.447400
vt 0.904300 0.429000
vt 0.702400 0.429000
vt 0.702700 0.447400
vt 0.704300 0.894200
vt 0.559700 0.447400
vt 0.559700 0.894200
vt 0.500500 0.429000
vt 0.587900 0.868700
vt 0.585900 0.873800
vt 0.584100 0.876400
vt 0.583900 0.863100
vt 0.577900 0.866400
vt 0.572500 0.865100
vt 0.588400 0.880000
vt 0.586400 0.888700
vt 0.586100 0.894200
vt 0.569000 0.859000
vt 0.565200 0.840800
vt 0.559700 0.838500
vt 0.568700 0.847200
vt 0.823100 0.874500
vt 0.824900 0.876200
vt 0.822600 0.879400
vt 0.823200 0.868400
vt 0.827900 0.866200
vt 0.836500 0.865400
vt 0.832100 0.868300
vt 0.842700 0.844200
vt 0.847200 0.837300
vt 0.822400 0.891300
vt 0.823100 0.885200
vt 0.824400 0.887700
vt 0.822400 0.894200
vt 0.839300 0.855800
vt 0.505900 0.946700
vt 0.505900 0.777600
vt 0.526100 0.917100
vt 0.526100 0.946700
vt 0.556400 0.777600
vt 0.556400 0.917100
vt 0.526100 0.638100
vt 0.556400 0.638100
vt 0.505900 0.606800
vt 0.526100 0.606800
vt 0.505900 1.011400
vt 0.505900 0.498200
vt 0.526100 0.947500
vt 0.526100 1.011400
vt 0.556400 0.947500
vt 0.556400 0.498200
vt 0.505900 0.755200
vt 0.556400 0.755200
vt 0.556400 0.924100
vt 0.505900 0.924100
vt 0.505900 0.586300
vt 0.556400 0.586300
vt 0.536200 0.883000
vt 0.505900 0.883000
vt 0.505900 0.435100
vt 0.556400 0.435100
vt 0.556400 0.948300
vt 0.536200 0.948300
vt 0.703700 0.996400
vt 0.465900 0.996400
vt 0.939800 0.996400
vt 0.816800 0.986400
vt 0.805200 0.962100
vt 0.928200 0.996400
vt 0.816000 0.996400
vt 0.018600 0.002200
vt 0.059200 0.002800
vt 0.059100 0.482700
vt 0.018600 0.482100
vt 0.021600 0.230700
vt 0.062100 0.231300
vt 0.059200 0.417900
vt 0.018600 0.417400
vt 0.024500 0.044100
vt 0.065100 0.044600
vt 0.028000 0.010100
vt 0.068600 0.010700
vt 0.065100 0.488300
vt 0.024500 0.487700
vt 0.664100 0.415500
vt 0.606800 0.409400
vt 0.639400 0.364000
vt 0.671900 0.366400
vt 0.592100 0.355900
vt 0.689600 0.415500
vt 0.565100 0.399100
vt 0.719500 0.363300
vt 0.737600 0.409400
vt 0.769400 0.353500
vt 0.781600 0.398400
vt 0.817400 0.385900
vt 0.799700 0.341300
vt 0.848100 0.386100
vt 0.844500 0.333800
vt 0.548800 0.342900
vt 0.536600 0.388100
vt 0.848100 0.000000
vt 0.493700 0.389000
vt 0.501500 0.333800
vt 0.844500 0.008000
vt 0.833400 0.322800
vt 0.512000 0.322700
vt 0.833800 0.018200
vt 0.511400 0.019000
vt 0.501500 0.008000
vt 0.493700 0.000000
vt 0.501200 0.008000
vt 0.501500 0.008300
vt 0.823100 0.028400
vt 0.822300 0.311800
vt 0.800000 0.289800
vt 0.801800 0.048900
vt 0.543400 0.289300
vt 0.541200 0.051000
vt 0.440800 0.167200
vt 0.472600 0.167200
vt 0.472600 0.203700
vt 0.440800 0.203700
vt 0.472600 0.242600
vt 0.440800 0.242600
vt 0.472600 0.268900
vt 0.440800 0.268900
vt 0.472600 0.307600
vt 0.440800 0.307600
vt 0.472600 0.348700
vt 0.440800 0.348700
vt 0.472600 0.375100
vt 0.440800 0.375100
vt 0.472600 0.578100
vt 0.440800 0.578100
vt 0.440800 0.081700
vt 0.472600 0.081700
vt 0.472600 0.289300
vt 0.440800 0.289300
vt 0.440800 0.089100
vt 0.472600 0.089100
vt 0.472600 0.281900
vt 0.440800 0.281900
vt 0.440800 0.080100
vt 0.472600 0.080100
vt 0.472600 0.290900
vt 0.440800 0.290900
vt 0.440800 0.088000
vt 0.472600 0.088000
vt 0.472600 0.283000
vt 0.440800 0.283000
vt 0.521300 0.029700
vt 0.522400 0.311500
vt -0.000000 0.336100
vt 0.017500 0.336100
vt 0.017400 0.000000
vt 0.000000 0.000000
vt -0.000000 0.571100
vt 0.018300 0.571100
vt -0.000000 0.672200
vt 0.018600 0.672200
vt 0.006700 0.708400
vt 0.026000 0.701800
vt 0.042900 0.769400
vt 0.031200 0.778400
vt 0.094700 0.835600
vt 0.080100 0.849000
vt 0.142200 0.878200
vt 0.129000 0.893200
vt 0.197300 0.908100
vt 0.194300 0.924700
vt 0.249300 0.918800
vt 0.249300 0.939100
vt 0.295400 0.927000
vt 0.328600 0.892100
vt 0.344300 0.906400
vt 0.379300 0.855800
vt 0.397600 0.868500
vt 0.424600 0.799300
vt 0.445400 0.811700
vt 0.455500 0.741700
vt 0.478000 0.746300
vt 0.472000 0.672200
vt 0.492600 0.672200
vt 0.492600 0.571100
vt 0.471800 0.571100
vt 0.471500 0.336100
vt 0.492600 0.336100
vt 0.492600 0.000000
vt 0.470900 0.000000
vt 0.249300 0.858500
vt 0.249300 0.672200
vt 0.086300 0.672200
vt 0.091400 0.703300
vt 0.111800 0.751900
vt 0.149500 0.801700
vt 0.195000 0.835300
vt 0.249300 0.648800
vt 0.082400 0.648800
vt 0.409900 0.672200
vt 0.413100 0.648800
vt 0.386100 0.752500
vt 0.405300 0.706800
vt 0.291500 0.840600
vt 0.347200 0.802300
vt 0.081500 0.020900
vt 0.080000 0.336100
vt 0.249300 0.336100
vt 0.249300 0.020900
vt 0.412300 0.020900
vt 0.415200 0.336100
vt 0.249300 0.571100
vt 0.079300 0.504500
vt 0.083500 0.505000
vt 0.091800 0.512300
vt 0.096400 0.526000
vt 0.103800 0.536400
vt 0.111000 0.536000
vt 0.113900 0.539700
vt 0.407300 0.508900
vt 0.416700 0.505100
vt 0.384800 0.531500
vt 0.399800 0.520500
vt 0.394500 0.531700
vt 0.379800 0.536900
vt 0.111100 0.547400
vt 0.115700 0.550400
vt 0.379400 0.550300
vt 0.383900 0.544700
vt 0.379400 0.558700
vt 0.381800 0.555900
vt 0.379100 0.571100
vt 0.116100 0.560400
vt 0.116500 0.571100
vt 0.113500 0.557700
vt 0.417300 0.571100
vt 0.078900 0.571100
vt 0.026100 0.567200
vt 0.041000 0.567200
vt 0.041000 0.501500
vt 0.026100 0.335300
vt 0.061000 0.335300
vt 0.061000 0.501500
vt 0.026100 0.024100
vt 0.061000 0.024100
vt 0.434500 0.520700
vt 0.454400 0.520700
vt 0.454400 0.471900
vt 0.434500 0.306200
vt 0.481200 0.306200
vt 0.481200 0.471900
vt 0.454400 0.136600
vt 0.481200 0.136600
vt 0.434500 0.088700
vt 0.454400 0.088700
vt 0.022400 0.347800
vt 0.022400 0.371600
vt 0.061100 0.371600
vt 0.061100 0.347800
vt 0.022400 0.341000
vt 0.061100 0.341000
vt 0.061100 0.370000
vt 0.061100 0.349400
vt 0.022400 0.349400
vt 0.022400 0.370000
vt 0.061100 0.363200
vt 0.061100 0.356200
vt 0.022400 0.356200
vt 0.022400 0.363200
vt 0.061100 0.367000
vt 0.061100 0.352400
vt 0.022400 0.352400
vt 0.022400 0.367000
vt 0.061100 0.364800
vt 0.061100 0.354600
vt 0.022400 0.354600
vt 0.022400 0.364800
vt 0.061100 0.367400
vt 0.061100 0.352000
vt 0.022400 0.352000
vt 0.022400 0.367400
vt 0.061100 0.364200
vt 0.061100 0.355200
vt 0.022400 0.355200
vt 0.022400 0.364200
vt 0.022400 0.353100
vt 0.022400 0.366300
vt 0.061100 0.366300
vt 0.061100 0.353100
vt 0.061100 0.373400
vt 0.061100 0.345900
vt 0.022400 0.345900
vt 0.022400 0.373400
vt 0.061100 0.363700
vt 0.061100 0.355700
vt 0.022400 0.355700
vt 0.022400 0.363700
vt 0.151100 0.019000
vt 0.255400 0.019000
vt 0.255400 0.003700
vt 0.151100 0.003700
vt 0.356600 0.003700
vt 0.356600 0.019000
vt 0.435000 0.021200
vt 0.435000 0.337100
vt 0.470400 0.337100
vt 0.470400 0.021200
vt 0.455300 0.506400
vt 0.435000 0.506400
vt 0.470400 0.572600
vt 0.455300 0.572600
vt 0.022400 0.198900
vt 0.022400 0.217700
vt 0.061100 0.217700
vt 0.061100 0.198900
vt 0.061100 0.244000
vt 0.022400 0.244000
vt 0.061100 0.267400
vt 0.022400 0.267400
vt 0.022400 0.285300
vt 0.061100 0.285300
vt 0.022400 0.299200
vt 0.061100 0.299200
vt 0.022400 0.316000
vt 0.061100 0.316000
vt 0.022400 0.329500
vt 0.061100 0.329500
vt 0.068600 0.429300
vt 0.068600 0.290500
vt 0.028200 0.290500
vt 0.028200 0.429300
vt 0.028200 0.154200
vt 0.068600 0.154200
vt 0.068600 0.134100
vt 0.028200 0.134100
vt 0.028200 0.104400
vt 0.068600 0.104400
vt 0.028200 0.065000
vt 0.068600 0.065000
vt 0.028200 0.022200
vt 0.068600 0.022200
vt 0.068600 0.725200
vt 0.068600 0.678900
vt 0.028200 0.678900
vt 0.028200 0.725200
vt 0.028200 0.643800
vt 0.068600 0.643800
vt 0.068600 0.598700
vt 0.028200 0.598700
vt 0.028200 0.560800
vt 0.068600 0.560800
vt 0.028200 0.518000
vt 0.068600 0.518000
vt 0.028200 0.476100
vt 0.068600 0.476100
vt 0.028200 0.449400
vt 0.068600 0.449400
vt 0.017700 0.549700
vt 0.063600 0.549700
vt 0.063600 0.530800
vt 0.017700 0.277700
vt 0.063600 0.277700
vt 0.017700 0.012300
vt 0.063600 0.036000
vt 0.063600 0.012300
vt 0.017700 0.415700
vt 0.017700 0.708200
vt 0.063600 0.708200
vt 0.063600 0.415700
vt 0.017700 0.211300
vt 0.063600 0.211300
vt 0.017700 0.123300
vt 0.063600 0.123300
vt 0.017700 0.058800
vt 0.063600 0.058800
vt 0.017700 0.001900
vt 0.063600 0.001900
vt 0.017700 0.000700
vt 0.017700 0.114900
vt 0.063600 0.114900
vt 0.063600 0.000700
vt 0.063600 0.155700
vt 0.017700 0.155700
vt 0.063600 0.234700
vt 0.017700 0.234700
vt 0.063600 0.314300
vt 0.017700 0.314300
vt 0.063600 0.367700
vt 0.017700 0.367700
vt 0.063600 0.438900
vt 0.017700 0.438900
vt 0.063600 0.498900
vt 0.017700 0.498900
vt 0.063600 0.549200
vt 0.017700 0.549200
vt 0.063600 0.602600
vt 0.017700 0.602600
vt 0.063600 0.660700
vt 0.017700 0.660700
vt 0.063600 0.724800
vt 0.017700 0.724800
vt 0.017700 0.008300
vt 0.017700 0.387600
vt 0.063600 0.387600
vt 0.063600 0.008300
vt 0.063600 0.652700
vt 0.017700 0.652700
vt 0.249300 0.000000
s 1
f 1/1/1 2/2/2 3/3/3
f 1/1/1 3/3/3 4/4/4
f 5/5/5 4/4/4 3/3/3
f 5/5/5 3/3/3 6/6/6
s 0
f 7/7/7 8/8/7 9/9/7
f 7/7/7 9/9/7 10/1/7
f 11/10/7 9/9/7 8/8/7
f 12/4/7 7/7/7 10/1/7
f 11/10/7 8/8/7 13/11/7
f 12/4/7 14/12/7 7/7/7
f 11/10/7 13/11/7 15/13/7
f 12/4/7 16/14/7 14/12/7
f 11/10/7 15/13/7 17/15/7
f 17/15/7 15/13/7 16/14/7
f 12/4/7 18/5/7 16/14/7
f 17/15/7 16/14/7 18/5/7
f 19/16/7 20/17/7 21/18/7
f 22/19/7 19/16/7 23/20/7
f 19/16/7 21/18/7 23/20/7
f 21/18/7 24/21/7 23/20/7
f 21/18/7 25/22/7 26/23/7
f 21/18/7 26/23/7 27/24/7
f 21/18/7 27/24/7 28/14/7
f 28/14/7 24/21/7 21/18/7
f 28/14/7 29/25/7 24/21/7
f 28/14/7 30/26/7 29/25/7
f 28/14/7 31/27/7 30/26/7
f 30/26/7 32/28/7 29/25/7
f 33/29/7 34/30/7 35/31/7
f 33/29/8 35/31/8 36/32/8
f 36/32/7 35/31/7 37/12/7
f 36/32/7 37/12/7 38/33/7
f 39/34/9 40/35/9 38/33/9
f 41/36/7 39/34/7 38/33/7
f 37/12/7 41/36/7 38/33/7
f 42/8/7 43/37/7 41/36/7
f 37/12/7 42/8/7 41/36/7
f 37/12/7 44/11/7 42/8/7
f 45/38/7 37/12/7 35/31/7
f 46/39/7 45/38/7 35/31/7
f 46/39/7 47/40/7 45/38/7
f 45/38/7 48/41/7 37/12/7
f 37/12/7 49/13/7 44/11/7
f 37/12/7 50/24/7 51/23/7
f 37/12/7 51/23/7 52/22/7
f 37/12/7 52/22/7 53/16/7
f 37/12/7 53/16/7 49/13/7
f 52/22/7 54/17/7 53/16/7
f 52/22/7 55/18/7 54/17/7
f 56/19/7 49/13/7 53/16/7
f 57/26/7 58/27/7 49/13/7
f 57/26/7 49/13/7 59/28/7
f 56/19/7 59/28/7 49/13/7
f 56/19/7 60/21/7 59/28/7
f 56/19/7 61/20/7 60/21/7
f 60/21/7 62/25/7 59/28/7
f 63/36/7 64/42/7 65/34/7
f 66/40/7 67/39/7 68/31/7
f 66/40/7 68/31/7 69/7/7
f 70/38/7 66/40/7 69/7/7
f 70/38/7 69/7/7 71/41/7
f 68/31/7 72/30/7 69/7/7
f 72/30/7 73/29/7 69/7/7
f 73/29/7 74/33/7 69/7/7
f 73/29/7 75/32/7 74/33/7
f 74/33/7 76/35/7 69/7/7
f 77/34/7 69/7/7 76/35/7
f 77/34/7 78/37/7 69/7/7
f 79/42/7 78/37/7 77/34/7
f 79/42/7 80/36/7 78/37/7
f 81/43/10 82/44/10 83/45/10
f 81/43/10 83/45/10 84/46/10
f 83/45/10 82/44/10 85/47/10
f 83/45/10 85/47/10 86/48/10
f 87/49/10 85/47/10 82/44/10
f 87/49/10 88/50/10 85/47/10
f 89/51/10 87/49/10 82/44/10
f 89/51/10 90/52/10 87/49/10
f 91/53/11 92/54/11 93/55/11
f 91/53/11 93/55/11 94/56/11
f 92/54/11 95/57/11 93/55/11
f 92/54/11 96/58/11 95/57/11
s 1
f 97/27/12 98/27/12 99/26/13
f 97/27/12 99/26/13 100/26/13
f 100/26/13 99/26/13 101/28/14
f 100/26/13 101/28/14 102/28/14
f 102/28/14 101/28/14 103/25/15
f 102/28/14 103/25/15 104/25/15
f 104/25/15 103/25/15 105/21/16
f 104/25/15 105/21/16 106/21/16
s 0
f 107/59/17 108/60/17 109/61/17
f 107/59/17 109/61/17 110/62/17
f 111/63/17 108/60/17 107/59/17
f 111/63/17 112/64/17 108/60/17
s 1
f 113/65/18 114/66/19 115/67/20
f 113/65/18 115/67/20 116/68/20
f 117/69/20 113/65/18 116/68/20
f 117/69/20 118/70/20 113/65/18
f 119/36/21 120/36/21 121/37/22
f 119/36/21 121/37/22 122/37/23
f 123/42/19 120/36/21 119/36/21
f 123/42/19 124/42/19 120/36/21
f 125/34/24 124/42/19 123/42/19
f 125/34/24 126/34/24 124/42/19
f 127/35/25 126/34/24 125/34/24
f 127/35/25 128/35/25 126/34/24
s 0
f 129/33/26 130/33/26 131/35/26
f 129/33/26 131/35/26 132/35/26
f 133/32/27 134/32/27 135/33/27
f 133/32/27 135/33/27 136/33/27
f 137/29/28 138/29/28 139/32/28
f 137/29/28 139/32/28 140/32/28
f 141/30/29 142/30/29 143/29/29
f 141/30/29 143/29/29 144/29/29
s 1
f 145/31/30 146/31/30 147/30/31
f 145/31/30 147/30/31 148/30/31
f 149/39/32 146/31/30 145/31/30
f 149/39/32 150/39/32 146/31/30
f 151/40/33 150/39/32 149/39/32
f 151/40/33 152/40/33 150/39/32
f 153/38/34 154/38/34 155/40/35
f 153/38/34 155/40/35 156/40/35
f 157/41/36 154/38/34 153/38/34
f 157/41/36 158/41/36 154/38/34
f 159/23/37 160/23/37 161/24/38
f 159/23/37 161/24/38 162/24/38
f 163/22/39 160/23/37 159/23/37
f 163/22/39 164/22/39 160/23/37
s 0
f 165/18/40 166/18/40 167/22/40
f 165/18/40 167/22/40 168/22/40
s 1
f 169/17/41 170/17/42 171/18/43
f 169/17/41 171/18/43 172/18/44
f 173/16/45 170/17/42 169/17/41
f 173/16/45 174/16/46 170/17/42
s 0
f 175/19/47 176/19/47 177/16/47
f 175/19/48 177/16/48 178/16/48
s 1
f 179/20/49 180/20/49 181/19/50
f 179/20/49 181/19/50 182/19/50
f 183/21/51 180/20/49 179/20/49
f 183/21/51 184/21/51 180/20/49
s 0
f 185/71/7 186/72/7 187/6/7
f 185/71/7 187/6/7 188/3/7
f 189/2/7 185/71/7 188/3/7
f 189/2/7 190/73/7 185/71/7
s 1
f 191/1/52 192/2/53 193/74/54
f 191/1/52 193/74/54 194/75/55
f 195/76/56 193/74/54 192/2/53
f 195/76/56 196/77/57 193/74/54
f 197/1/58 198/75/59 199/74/60
f 197/1/58 199/74/60 200/2/61
f 199/74/60 201/76/62 200/2/61
f 199/74/60 202/77/63 201/76/62
f 203/78/64 204/79/65 205/80/66
f 203/78/64 205/80/66 206/81/67
s 0
f 207/82/68 208/83/68 209/84/68
f 207/82/68 209/84/68 210/85/68
f 211/86/68 208/83/68 207/82/68
f 211/86/68 212/87/68 208/83/68
f 213/88/69 214/89/69 215/90/69
f 213/88/69 215/90/69 216/91/69
f 217/92/7 218/93/7 219/94/7
f 217/92/7 219/94/7 220/95/7
f 218/93/7 221/96/7 219/94/7
f 220/95/7 222/97/7 217/92/7
f 218/93/7 223/98/7 221/96/7
f 224/99/7 222/97/7 220/95/7
f 224/99/7 225/100/7 222/97/7
f 224/99/7 226/101/7 225/100/7
f 226/101/7 227/102/7 225/100/7
f 226/101/7 228/103/7 227/102/7
f 229/104/7 228/103/7 226/101/7
f 229/104/7 230/105/7 228/103/7
f 230/105/7 229/104/7 231/106/7
f 223/98/7 232/107/7 221/96/7
f 232/107/7 231/106/7 229/104/7
f 223/98/7 233/108/7 232/107/7
f 234/109/7 230/105/7 231/106/7
f 233/108/7 235/110/7 232/107/7
f 232/107/7 235/110/7 236/111/7
f 232/107/7 236/111/7 231/106/7
f 234/109/7 231/106/7 237/112/7
f 237/112/7 231/106/7 238/113/7
f 236/111/7 238/113/7 231/106/7
f 236/111/7 239/114/7 238/113/7
f 237/112/7 238/113/7 240/115/7
f 241/116/7 239/114/7 236/111/7
f 242/117/7 234/109/7 237/112/7
f 242/117/7 237/112/7 240/115/7
f 242/117/7 243/118/7 234/109/7
f 242/117/7 244/119/7 243/118/7
f 235/110/7 243/118/7 244/119/7
f 242/117/7 240/115/7 245/120/7
f 241/116/7 245/120/7 240/115/7
f 245/120/7 244/119/7 242/117/7
f 241/116/7 236/111/7 245/120/7
f 235/110/7 244/119/7 245/120/7
f 235/110/7 245/120/7 236/111/7
f 246/101/7 247/99/7 248/95/7
f 246/101/7 248/95/7 249/107/7
f 250/104/7 246/101/7 249/107/7
f 248/95/7 251/96/7 249/107/7
f 248/95/7 252/94/7 251/96/7
s 1
f 253/121/70 254/122/71 255/123/72
f 253/121/70 255/123/72 256/124/73
f 257/115/74 254/122/71 253/121/70
f 257/115/74 258/113/75 254/122/71
s 0
f 259/124/7 260/123/7 261/125/7
f 259/124/7 261/125/7 262/126/7
s 1
f 263/127/76 264/128/76 265/129/77
f 263/127/76 265/129/77 266/130/77
f 266/130/77 265/129/77 267/131/78
f 266/130/77 267/131/78 268/132/78
f 268/132/78 267/131/78 269/133/79
f 268/132/78 269/133/79 270/134/79
f 270/134/79 269/133/79 271/135/80
f 270/134/79 271/135/80 272/136/80
f 272/136/80 271/135/80 273/137/81
f 272/136/80 273/137/81 274/138/81
f 274/138/81 273/137/81 275/139/82
f 274/138/81 275/139/82 276/140/82
s 0
f 277/140/83 278/139/83 279/141/83
f 277/140/83 279/141/83 280/142/83
f 281/143/84 282/144/84 283/145/84
f 281/143/84 283/145/84 284/146/84
f 285/147/85 286/148/85 287/149/85
s 1
f 285/147/85 287/149/85 288/150/85
s 0
f 289/151/86 290/152/86 291/153/86
f 289/151/86 291/153/86 292/154/86
f 293/155/87 294/156/87 295/157/87
f 293/155/87 295/157/87 296/158/87
s 1
f 297/124/88 298/126/89 299/159/90
f 297/124/88 299/159/90 300/121/91
f 301/116/92 300/121/91 299/159/90
f 301/116/92 302/115/93 300/121/91
f 303/126/94 304/125/95 305/160/96
f 303/126/94 305/160/96 306/159/97
f 306/159/97 305/160/96 307/114/98
f 306/159/97 307/114/98 308/116/99
f 309/125/100 310/123/101 311/122/102
f 309/125/100 311/122/102 312/160/103
f 312/160/103 311/122/102 313/113/104
f 312/160/103 313/113/104 314/114/105
s 0
f 315/92/7 316/93/7 317/94/7
f 315/92/7 317/94/7 318/95/7
f 316/93/7 319/96/7 317/94/7
f 318/95/7 320/97/7 315/92/7
f 316/93/7 321/98/7 319/96/7
f 322/99/7 320/97/7 318/95/7
f 322/99/7 323/100/7 320/97/7
f 322/99/7 324/101/7 323/100/7
f 324/101/7 325/102/7 323/100/7
f 324/101/7 326/103/7 325/102/7
f 327/104/7 326/103/7 324/101/7
f 327/104/7 328/105/7 326/103/7
f 328/105/7 327/104/7 329/106/7
f 321/98/7 330/107/7 319/96/7
f 330/107/7 329/106/7 327/104/7
f 321/98/7 331/108/7 330/107/7
f 332/109/7 328/105/7 329/106/7
f 331/108/7 333/110/7 330/107/7
f 330/107/7 333/110/7 334/111/7
f 330/107/7 334/111/7 329/106/7
f 332/109/7 329/106/7 335/112/7
f 335/112/7 329/106/7 336/113/7
f 334/111/7 336/113/7 329/106/7
f 334/111/7 337/114/7 336/113/7
f 335/112/7 336/113/7 338/115/7
f 339/116/7 337/114/7 334/111/7
f 340/117/7 332/109/7 335/112/7
f 340/117/7 335/112/7 338/115/7
f 340/117/7 341/118/7 332/109/7
s 1
f 340/117/8 342/119/8 341/118/8
s 0
f 333/110/7 341/118/7 342/119/7
f 340/117/7 338/115/7 343/120/7
f 339/116/7 343/120/7 338/115/7
f 343/120/7 342/119/7 340/117/7
f 339/116/7 334/111/7 343/120/7
f 333/110/7 342/119/7 343/120/7
f 333/110/7 343/120/7 334/111/7
f 344/101/7 345/99/7 346/95/7
f 344/101/7 346/95/7 347/107/7
f 348/104/7 344/101/7 347/107/7
f 346/95/7 349/96/7 347/107/7
f 346/95/8 350/94/8 349/96/8
s 1
f 351/121/70 352/122/71 353/123/72
f 351/121/70 353/123/72 354/124/73
f 355/115/74 352/122/71 351/121/70
f 355/115/74 356/113/106 352/122/71
s 0
f 357/124/7 358/123/7 359/125/7
f 357/124/7 359/125/7 360/126/7
s 1
f 361/127/76 362/128/76 363/129/77
f 361/127/76 363/129/77 364/130/77
f 364/130/77 363/129/77 365/131/78
f 364/130/77 365/131/78 366/132/78
f 366/132/78 365/131/78 367/133/79
f 366/132/78 367/133/79 368/134/79
f 368/134/79 367/133/79 369/135/80
f 368/134/79 369/135/80 370/136/80
f 370/136/80 369/135/80 371/137/107
f 370/136/80 371/137/107 372/138/81
f 372/138/81 371/137/107 373/139/82
f 372/138/81 373/139/82 374/140/82
s 0
f 375/140/83 376/139/83 377/141/83
f 375/140/83 377/141/83 378/142/83
f 379/143/84 380/144/84 381/145/84
f 379/143/84 381/145/84 382/146/84
f 383/147/85 384/148/85 385/149/85
f 383/147/85 385/149/85 386/150/85
f 387/151/86 388/152/86 389/153/86
f 387/151/86 389/153/86 390/154/86
f 391/155/87 392/156/87 393/157/87
f 391/155/87 393/157/87 394/158/87
s 1
f 395/124/88 396/126/89 397/159/108
f 395/124/88 397/159/108 398/121/91
f 399/116/92 398/121/91 397/159/108
f 399/116/92 400/115/109 398/121/91
f 401/126/94 402/125/95 403/160/96
f 401/126/94 403/160/96 404/159/110
f 404/159/110 403/160/96 405/114/111
f 404/159/110 405/114/111 406/116/99
f 407/125/100 408/123/101 409/122/102
f 407/125/100 409/122/102 410/160/103
f 410/160/103 409/122/102 411/113/104
f 410/160/103 411/113/104 412/114/105
f 413/161/112 414/162/113 415/163/114
f 413/161/112 415/163/114 416/164/115
f 414/162/113 413/161/112 417/165/116
f 414/162/113 417/165/116 418/166/117
f 418/166/117 417/165/116 419/167/118
f 418/166/117 419/167/118 420/168/119
f 421/169/120 420/168/119 419/167/118
f 421/169/120 422/170/121 420/168/119
f 423/171/122 422/170/121 421/169/120
f 423/171/122 421/169/120 424/172/123
f 425/173/124 423/171/122 424/172/123
f 425/173/124 424/172/123 426/174/125
f 427/175/126 425/173/124 426/174/125
f 427/175/126 426/174/125 428/176/127
f 429/177/128 427/175/126 428/176/127
f 429/177/128 428/176/127 430/178/129
f 430/178/129 431/179/130 429/177/128
f 430/178/129 432/180/131 431/179/130
f 433/181/132 431/179/130 432/180/131
f 434/182/133 431/179/130 433/181/132
f 434/182/133 433/181/132 435/183/134
f 436/184/135 434/182/133 435/183/134
f 436/184/135 435/183/134 437/185/136
f 438/186/137 436/184/135 437/185/136
f 438/186/137 437/185/136 439/187/138
f 440/188/139 438/186/137 439/187/138
f 440/188/139 439/187/138 441/189/140
f 442/190/141 440/188/139 441/189/140
f 442/190/141 441/189/140 443/191/142
f 442/190/141 443/191/142 444/192/143
f 442/190/141 444/192/143 445/193/144
f 446/194/145 445/193/144 444/192/143
f 446/194/145 444/192/143 447/195/146
f 446/194/145 447/195/146 448/196/147
f 446/194/145 448/196/147 449/197/148
s 0
f 450/198/149 451/199/149 452/200/149
f 452/200/149 453/201/149 454/202/149
f 452/200/149 454/202/149 455/203/149
f 450/198/149 452/200/149 455/203/149
f 456/204/150 450/198/150 455/203/150
f 457/205/149 452/200/149 451/199/149
f 457/205/149 458/206/149 452/200/149
f 457/205/149 451/199/149 459/207/149
f 459/207/149 451/199/149 450/198/149
f 457/205/149 459/207/149 460/208/149
f 461/209/149 459/207/149 450/198/149
f 461/209/149 462/210/149 459/207/149
f 461/209/149 450/198/149 463/211/149
f 461/209/149 463/211/149 464/212/149
f 465/213/149 466/214/149 467/215/149
f 465/213/149 467/215/149 468/216/149
f 469/217/149 468/216/149 467/215/149
f 469/217/149 467/215/149 470/218/149
f 471/219/149 467/215/149 466/214/149
f 470/218/149 467/215/149 471/219/149
f 466/214/149 472/220/149 473/221/149
f 471/219/149 466/214/149 473/221/149
f 471/219/151 473/221/151 474/222/151
f 474/222/149 475/223/149 476/224/149
f 474/222/149 476/224/149 477/225/149
f 471/219/149 474/222/149 477/225/149
f 471/219/149 477/225/149 478/226/149
f 479/227/149 480/228/149 470/218/149
f 479/227/149 470/218/149 471/219/149
f 471/219/149 481/229/149 479/227/149
f 482/230/149 479/227/149 481/229/149
f 482/230/149 481/229/149 483/231/149
f 471/219/149 484/232/149 481/229/149
f 478/226/149 485/233/149 486/234/149
f 471/219/149 478/226/149 486/234/149
f 487/235/149 488/236/149 484/232/149
f 487/235/149 484/232/149 471/219/149
f 471/219/149 489/237/149 487/235/149
f 489/237/149 490/238/149 487/235/149
f 471/219/149 491/239/149 489/237/149
f 492/240/149 471/219/149 486/234/149
f 492/240/149 493/241/149 471/219/149
f 494/242/149 492/240/149 486/234/149
f 495/236/149 496/235/149 497/238/149
s 1
f 495/236/149 497/238/149 498/239/149
s 0
f 497/238/149 499/237/149 498/239/149
f 498/239/149 500/231/149 495/236/149
f 501/232/149 495/236/149 500/231/149
f 501/232/149 500/231/149 502/229/149
f 498/239/151 503/230/151 500/231/151
f 498/239/149 504/228/149 503/230/149
f 498/239/149 505/243/149 504/228/149
f 504/228/149 506/227/149 503/230/149
f 507/221/149 508/220/149 509/244/149
f 507/221/149 510/223/149 511/222/149
f 507/221/149 509/244/149 510/223/149
f 509/244/149 512/224/149 510/223/149
f 509/244/149 513/241/149 514/240/149
f 509/244/149 514/240/149 515/242/149
f 509/244/149 516/233/149 512/224/149
f 515/242/149 516/233/149 509/244/149
f 515/242/149 517/234/149 516/233/149
f 516/233/149 518/225/149 512/224/149
f 516/233/149 519/226/149 518/225/149
f 520/245/152 521/246/152 522/247/152
f 520/245/152 522/247/152 523/248/152
f 522/247/152 524/249/152 523/248/152
f 522/247/152 525/250/152 524/249/152
f 524/249/152 526/251/152 523/248/152
f 524/249/152 527/252/152 526/251/152
f 528/253/10 529/254/10 530/255/10
f 528/253/10 530/255/10 531/256/10
f 530/255/10 532/257/10 531/256/10
f 530/255/10 533/258/10 532/257/10
f 532/257/10 534/259/10 531/256/10
f 532/257/10 535/260/10 534/259/10
f 534/259/10 536/261/10 531/256/10
f 534/259/10 537/262/10 536/261/10
s 1
f 538/263/153 539/264/154 540/265/154
f 538/263/153 540/265/154 541/266/153
f 542/267/155 538/263/153 541/266/153
f 542/267/155 541/266/153 543/268/155
f 544/269/156 545/270/157 546/271/158
f 544/269/156 546/271/158 547/272/156
f 548/273/159 549/274/160 550/275/160
f 548/273/159 550/275/160 551/276/159
s 0
f 552/277/161 553/278/161 554/279/161
f 552/277/161 554/279/161 555/280/161
f 556/281/162 557/282/162 558/283/162
f 556/281/162 558/283/162 559/284/162
f 560/285/163 561/286/163 562/287/163
f 560/285/163 562/287/163 563/288/163
f 564/289/164 565/290/164 566/291/164
f 564/289/164 566/291/164 567/292/164
f 568/293/165 569/294/165 570/295/165
f 568/293/165 570/295/165 571/296/165
s 1
f 572/265/166 573/266/167 574/263/167
f 572/265/166 574/263/167 575/264/166
f 576/297/168 577/298/169 578/299/169
f 576/297/168 578/299/169 579/300/168
f 580/269/170 581/270/171 582/271/171
f 580/269/170 582/271/171 583/272/172
f 584/301/173 585/302/174 586/303/174
f 584/301/173 586/303/174 587/304/173
s 0
f 588/305/17 589/306/17 590/307/17
f 588/305/17 590/307/17 591/308/17
f 589/306/17 592/309/17 590/307/17
f 589/306/17 593/310/17 592/309/17
f 594/311/175 595/312/175 596/313/175
f 594/311/175 596/313/175 597/314/175
f 595/312/175 598/315/175 596/313/175
f 595/312/175 599/316/175 598/315/175
f 598/315/175 600/317/175 596/313/175
f 598/315/175 601/318/175 600/317/175
s 1
f 602/319/176 603/320/177 604/321/177
f 602/319/176 604/321/177 605/322/176
f 603/320/177 606/323/178 604/321/177
f 603/320/177 607/324/178 606/323/178
f 607/324/178 608/325/179 606/323/178
f 607/324/178 609/326/179 608/325/179
s 0
f 610/326/180 611/327/180 612/328/180
f 610/326/180 612/328/180 613/325/180
s 1
f 614/327/181 615/329/181 616/330/181
s 0
f 614/327/181 616/330/181 617/328/181
f 618/329/182 619/331/182 620/332/182
f 618/329/182 620/332/182 621/330/182
s 1
f 622/331/183 623/333/183 624/334/183
f 622/331/183 624/334/183 625/332/183
s 0
f 626/333/184 627/267/184 628/268/184
f 626/333/184 628/268/184 629/334/184
f 630/335/17 631/336/17 632/337/17
f 630/335/17 632/337/17 633/338/17
f 631/336/17 634/339/17 632/337/17
f 631/336/17 635/340/17 634/339/17
f 636/340/185 637/341/185 638/342/185
f 636/340/185 638/342/185 639/339/185
s 1
f 637/341/185 640/343/186 638/342/185
f 637/341/185 641/344/186 640/343/186
f 641/344/186 642/345/187 640/343/186
f 641/344/186 643/346/187 642/345/187
f 643/346/187 644/347/188 642/345/187
f 643/346/187 645/348/188 644/347/188
f 646/349/189 647/350/190 648/351/190
f 646/349/189 648/351/190 649/352/189
f 647/350/190 650/353/191 648/351/190
f 647/350/190 651/354/191 650/353/191
f 652/354/192 653/355/193 654/356/193
f 652/354/192 654/356/193 655/353/192
f 653/355/193 656/357/194 654/356/193
f 653/355/193 657/358/194 656/357/194
f 657/358/194 658/359/195 656/357/194
f 657/358/194 659/360/195 658/359/195
f 659/360/195 660/361/196 658/359/195
f 659/360/195 661/362/196 660/361/196
f 661/362/196 662/363/197 660/361/196
f 661/362/196 663/364/197 662/363/197
s 0
f 663/364/197 664/338/197 662/363/197
f 663/364/197 665/335/197 664/338/197
f 666/365/10 667/366/10 668/367/10
f 666/365/10 668/367/10 669/368/10
f 670/369/10 669/368/10 668/367/10
f 671/370/10 669/368/10 670/369/10
f 671/370/10 670/369/10 672/371/10
f 673/372/10 671/370/10 672/371/10
f 674/373/11 675/374/11 676/375/11
f 674/373/11 676/375/11 677/376/11
f 678/377/11 674/373/11 677/376/11
f 678/377/11 677/376/11 679/378/11
s 1
f 680/379/198 678/377/11 679/378/11
f 680/379/198 679/378/11 681/380/198
f 682/381/199 680/379/198 681/380/198
f 682/381/199 681/380/198 683/382/199
f 684/383/200 682/381/199 683/382/199
f 684/383/200 683/382/199 685/384/200
f 686/385/36 687/386/201 688/387/201
f 686/385/36 688/387/201 689/388/36
f 687/386/201 690/389/202 688/387/201
f 687/386/201 691/390/202 690/389/202
f 691/390/202 692/391/203 690/389/202
f 691/390/202 693/392/204 692/391/203
f 693/392/204 694/393/205 692/391/203
f 693/392/204 695/394/205 694/393/205
f 695/394/205 696/395/206 694/393/205
f 695/394/205 697/396/206 696/395/206
f 697/396/206 698/397/207 696/395/206
f 697/396/206 699/398/207 698/397/207
f 699/398/207 700/399/208 698/397/207
f 699/398/207 701/400/208 700/399/208
f 701/400/208 702/401/209 700/399/208
f 701/400/208 703/402/209 702/401/209
f 703/402/209 704/403/210 702/401/209
f 703/402/209 705/404/210 704/403/210
f 705/404/210 706/405/211 704/403/210
f 705/404/210 707/406/211 706/405/211
f 707/406/211 708/407/212 706/405/211
f 707/406/211 709/408/212 708/407/212
s 0
f 710/409/36 711/410/36 712/411/36
f 710/409/36 712/411/36 713/412/36
f 711/410/36 714/413/36 712/411/36
f 711/410/36 715/414/36 714/413/36
f 716/162/149 717/214/149 718/213/149
f 716/162/149 718/213/149 719/163/149
f 720/166/149 717/214/149 716/162/149
f 718/213/149 721/415/149 719/163/149
f 718/213/149 722/216/149 721/415/149
f 723/217/149 721/415/149 722/216/149
f 723/217/149 724/197/149 721/415/149
f 725/194/149 724/197/149 723/217/149
f 725/194/149 723/217/149 726/218/149
f 725/194/149 726/218/149 727/243/149
f 720/166/149 728/244/149 717/214/149
f 725/194/149 727/243/149 729/193/149
f 720/166/149 730/206/149 728/244/149
f 720/166/149 731/168/149 730/206/149
f 730/206/149 732/219/149 728/244/149
f 730/206/149 731/168/149 733/200/149
f 730/206/149 734/205/149 732/219/149
f 735/170/149 733/200/149 731/168/149
f 736/201/149 733/200/149 735/170/149
f 736/201/149 735/170/149 737/171/149
f 738/202/149 736/201/149 737/171/149
f 738/202/149 737/171/149 739/173/149
f 740/203/149 738/202/149 739/173/149
f 740/203/149 739/173/149 741/175/149
f 742/204/149 740/203/149 741/175/149
f 742/204/149 741/175/149 743/177/149
f 743/177/149 744/198/149 742/204/149
f 743/177/149 745/179/149 744/198/149
f 746/182/149 744/198/149 745/179/149
f 746/182/149 747/211/149 744/198/149
f 748/184/149 747/211/149 746/182/149
f 748/184/149 749/212/149 747/211/149
f 750/186/149 749/212/149 748/184/149
f 750/186/149 751/209/149 749/212/149
f 752/188/149 751/209/149 750/186/149
f 752/188/149 753/210/149 751/209/149
f 754/190/149 753/210/149 752/188/149
f 754/190/149 755/207/149 753/210/149
f 754/190/149 756/208/149 755/207/149
f 729/193/149 756/208/149 754/190/149
f 729/193/149 727/243/149 756/208/149
f 756/208/149 727/243/149 732/219/149
f 756/208/149 732/219/149 734/205/149
s 1
f 757/163/213 758/162/214 759/161/215
f 757/163/213 759/161/215 760/164/216
f 761/165/217 759/161/215 758/162/214
f 761/165/217 758/162/214 762/166/218
f 763/167/219 761/165/217 762/166/218
f 763/167/219 762/166/218 764/168/220
f 765/169/221 763/167/219 764/168/220
f 765/169/221 764/168/220 766/170/222
f 765/169/221 766/170/222 767/171/223
f 765/169/221 767/171/223 768/172/224
f 768/172/224 767/171/223 769/173/225
f 768/172/224 769/173/225 770/174/226
f 770/174/226 769/173/225 771/175/227
f 770/174/226 771/175/227 772/176/228
f 773/177/229 772/176/228 771/175/227
f 773/177/229 774/178/230 772/176/228
f 775/179/231 774/178/230 773/177/229
f 775/179/231 776/180/232 774/178/230
f 777/181/233 776/180/232 775/179/231
f 777/181/233 775/179/231 778/182/234
f 777/181/233 778/182/234 779/183/235
f 779/183/235 778/182/234 780/184/236
f 779/183/235 780/184/236 781/185/237
f 781/185/237 780/184/236 782/186/238
f 781/185/237 782/186/238 783/187/239
f 783/187/239 782/186/238 784/188/240
f 783/187/239 784/188/240 785/189/241
f 786/190/242 785/189/241 784/188/240
f 786/190/242 787/191/243 785/189/241
f 788/192/244 787/191/243 786/190/242
f 788/192/244 786/190/242 789/193/245
f 788/192/244 789/193/245 790/194/246
f 788/192/244 790/194/246 791/195/247
f 792/196/248 791/195/247 790/194/246
f 792/196/248 790/194/246 793/197/249
s 0
f 794/203/11 795/202/11 796/201/11
f 794/203/11 796/201/11 797/199/11
f 796/201/11 798/200/11 797/199/11
f 794/203/11 797/199/11 799/198/11
f 794/203/11 799/198/11 800/204/11
f 801/211/11 799/198/11 797/199/11
f 801/211/11 797/199/11 802/209/11
f 803/212/11 801/211/11 802/209/11
f 797/199/11 804/210/11 802/209/11
f 797/199/11 805/207/11 804/210/11
f 806/205/11 797/199/11 798/200/11
f 805/207/11 797/199/11 806/205/11
f 806/205/11 798/200/11 807/206/11
f 805/207/11 806/205/11 808/208/11
f 809/215/11 810/214/11 811/213/11
f 809/215/11 811/213/11 812/216/11
f 809/215/11 812/216/11 813/217/11
f 809/215/11 813/217/11 814/218/11
f 815/219/11 809/215/11 814/218/11
f 810/214/11 809/215/11 815/219/11
f 814/218/250 816/228/250 817/227/250
f 815/219/11 814/218/11 817/227/11
f 818/229/11 815/219/11 817/227/11
f 818/229/11 817/227/11 819/230/11
f 818/229/250 819/230/250 820/231/250
f 818/229/11 821/232/11 815/219/11
f 821/232/11 822/235/11 815/219/11
f 821/232/11 823/236/11 822/235/11
f 822/235/11 824/237/11 815/219/11
s 1
f 822/235/251 825/238/251 824/237/251
s 0
f 824/237/11 826/239/11 815/219/11
f 815/219/11 827/241/11 828/240/11
f 815/219/11 828/240/11 829/234/11
f 830/242/11 829/234/11 828/240/11
f 810/214/11 815/219/11 829/234/11
f 829/234/11 831/233/11 832/226/11
s 1
f 829/234/11 832/226/11 810/214/11
s 0
f 833/225/11 810/214/11 832/226/11
f 833/225/11 834/222/11 810/214/11
f 833/225/11 835/223/11 834/222/11
f 833/225/11 836/224/11 835/223/11
f 837/221/11 810/214/11 834/222/11
f 837/221/252 838/220/252 810/214/252
f 839/231/11 840/230/11 841/227/11
f 839/231/11 841/227/11 842/243/11
f 841/227/11 843/228/11 842/243/11
f 839/231/11 842/243/11 844/238/11
f 842/243/11 845/237/11 844/238/11
f 842/243/11 846/239/11 845/237/11
f 839/231/11 844/238/11 847/236/11
f 844/238/11 848/235/11 847/236/11
f 849/229/11 839/231/11 847/236/11
f 849/229/11 847/236/11 850/232/11
f 851/221/11 852/222/11 853/223/11
f 851/221/253 854/244/253 855/220/253
f 851/221/11 856/241/11 854/244/11
f 851/221/253 853/223/253 856/241/253
f 853/223/253 857/233/253 856/241/253
s 1
f 853/223/250 858/224/254 857/233/11
s 0
f 858/224/253 859/226/253 857/233/253
f 858/224/254 860/225/250 859/226/250
f 857/233/11 861/242/11 856/241/11
f 857/233/11 862/234/11 861/242/11
f 861/242/11 863/240/11 856/241/11
f 864/245/255 865/248/255 866/247/255
f 864/245/255 866/247/255 867/246/255
f 866/247/255 865/248/255 868/249/255
f 866/247/255 868/249/255 869/250/255
f 870/251/255 868/249/255 865/248/255
f 870/251/255 871/252/255 868/249/255
f 872/253/10 873/256/10 874/255/10
f 872/253/10 874/255/10 875/254/10
f 874/255/10 873/256/10 876/257/10
f 874/255/10 876/257/10 877/258/10
f 878/259/10 876/257/10 873/256/10
f 878/259/10 879/260/10 876/257/10
f 880/261/10 878/259/10 873/256/10
f 880/261/10 881/262/10 878/259/10
s 1
f 882/265/256 883/264/256 884/263/257
f 882/265/256 884/263/257 885/266/258
f 885/266/258 884/263/257 886/267/259
f 885/266/258 886/267/259 887/268/259
f 888/271/260 889/270/261 890/269/262
f 888/271/260 890/269/262 891/272/262
f 892/275/263 893/274/263 894/273/264
f 892/275/263 894/273/264 895/276/264
s 0
f 896/279/265 897/278/265 898/277/265
f 896/279/265 898/277/265 899/280/265
f 900/283/266 901/282/266 902/281/266
f 900/283/266 902/281/266 903/284/266
f 904/287/267 905/286/267 906/285/267
f 904/287/267 906/285/267 907/288/267
f 908/291/268 909/290/268 910/289/268
f 908/291/268 910/289/268 911/292/268
f 912/295/269 913/294/269 914/293/269
f 912/295/269 914/293/269 915/296/269
s 1
f 916/263/270 917/266/271 918/265/272
f 916/263/270 918/265/272 919/264/273
f 920/299/274 921/298/275 922/297/276
f 920/299/274 922/297/276 923/300/276
f 924/271/277 925/270/277 926/269/278
f 924/271/277 926/269/278 927/272/278
f 928/303/279 929/302/279 930/301/280
f 928/303/279 930/301/280 931/304/280
s 0
f 932/307/17 933/306/17 934/305/17
f 932/307/17 934/305/17 935/308/17
f 936/309/17 933/306/17 932/307/17
f 936/309/17 937/310/17 933/306/17
f 938/313/281 939/312/281 940/311/281
f 938/313/281 940/311/281 941/314/281
f 942/315/281 939/312/281 938/313/281
f 942/315/281 943/316/281 939/312/281
f 944/317/281 942/315/281 938/313/281
f 944/317/281 945/318/281 942/315/281
s 1
f 946/321/282 947/320/282 948/319/283
f 946/321/282 948/319/283 949/322/283
f 950/323/284 947/320/282 946/321/282
f 950/323/284 951/324/284 947/320/282
f 952/325/285 951/324/284 950/323/284
f 952/325/285 953/326/285 951/324/284
s 0
f 954/328/286 955/327/286 956/326/286
f 954/328/286 956/326/286 957/325/286
s 1
f 958/330/287 959/329/287 960/327/287
s 0
f 958/330/287 960/327/287 961/328/287
f 962/332/288 963/331/288 964/329/288
f 962/332/288 964/329/288 965/330/288
f 966/334/289 967/333/289 968/331/289
f 966/334/289 968/331/289 969/332/289
f 970/268/290 971/267/290 972/333/290
f 970/268/290 972/333/290 973/334/290
f 974/337/17 975/336/17 976/335/17
f 974/337/17 976/335/17 977/338/17
f 978/339/17 975/336/17 974/337/17
f 978/339/17 979/340/17 975/336/17
f 980/342/291 981/341/291 982/340/291
f 980/342/291 982/340/291 983/339/291
s 1
f 984/343/292 981/341/291 980/342/291
f 984/343/292 985/344/293 981/341/291
f 986/345/294 985/344/293 984/343/292
f 986/345/294 987/346/294 985/344/293
f 988/347/295 987/346/294 986/345/294
f 988/347/295 989/348/295 987/346/294
f 990/351/296 991/350/296 992/349/297
f 990/351/296 992/349/297 993/352/297
f 994/353/298 991/350/296 990/351/296
f 994/353/298 995/354/298 991/350/296
f 996/356/299 997/355/299 998/354/300
f 996/356/299 998/354/300 999/353/300
f 1000/357/301 997/355/299 996/356/299
f 1000/357/301 1001/358/301 997/355/299
f 1002/359/302 1001/358/301 1000/357/301
f 1002/359/302 1003/360/302 1001/358/301
f 1004/361/303 1003/360/302 1002/359/302
f 1004/361/303 1005/362/303 1003/360/302
f 1006/363/304 1005/362/303 1004/361/303
f 1006/363/304 1007/364/304 1005/362/303
s 0
f 1008/338/304 1007/364/304 1006/363/304
f 1008/338/304 1009/335/304 1007/364/304
f 1010/367/10 1011/366/10 1012/365/10
f 1010/367/10 1012/365/10 1013/369/10
f 1013/369/10 1012/365/10 1014/368/10
f 1015/371/10 1013/369/10 1014/368/10
f 1015/371/10 1014/368/10 1016/370/10
f 1017/372/10 1015/371/10 1016/370/10
f 1018/375/149 1019/374/149 1020/373/149
f 1018/375/149 1020/373/149 1021/376/149
f 1021/376/149 1020/373/149 1022/377/149
f 1021/376/149 1022/377/149 1023/378/149
s 1
f 1023/378/149 1022/377/149 1024/379/305
f 1023/378/149 1024/379/305 1025/380/305
f 1025/380/305 1024/379/305 1026/381/306
f 1025/380/305 1026/381/306 1027/382/306
f 1027/382/306 1026/381/306 1028/383/307
f 1027/382/306 1028/383/307 1029/384/307
f 1030/387/308 1031/386/308 1032/385/7
f 1030/387/308 1032/385/7 1033/388/7
f 1034/389/309 1031/386/308 1030/387/308
f 1034/389/309 1035/390/309 1031/386/308
f 1036/391/310 1035/390/309 1034/389/309
f 1036/391/310 1037/392/311 1035/390/309
f 1038/393/312 1037/392/311 1036/391/310
f 1038/393/312 1039/394/312 1037/392/311
f 1040/395/313 1039/394/312 1038/393/312
f 1040/395/313 1041/396/313 1039/394/312
f 1042/397/314 1041/396/313 1040/395/313
f 1042/397/314 1043/398/314 1041/396/313
f 1044/399/315 1043/398/314 1042/397/314
f 1044/399/315 1045/400/316 1043/398/314
f 1046/401/317 1045/400/316 1044/399/315
f 1046/401/317 1047/402/317 1045/400/316
f 1048/403/318 1047/402/317 1046/401/317
f 1048/403/318 1049/404/318 1047/402/317
f 1050/405/319 1049/404/318 1048/403/318
f 1050/405/319 1051/406/319 1049/404/318
f 1052/407/320 1051/406/319 1050/405/319
f 1052/407/320 1053/408/320 1051/406/319
s 0
f 1054/411/7 1055/410/7 1056/409/7
f 1054/411/7 1056/409/7 1057/412/7
f 1058/413/7 1055/410/7 1054/411/7
f 1058/413/7 1059/414/7 1055/410/7
f 1060/213/11 1061/214/11 1062/162/11
f 1060/213/11 1062/162/11 1063/163/11
f 1061/214/11 1064/166/11 1062/162/11
f 1065/415/11 1060/213/11 1063/163/11
f 1065/415/11 1066/216/11 1060/213/11
f 1067/217/11 1066/216/11 1065/415/11
f 1067/217/11 1065/415/11 1068/197/11
f 1069/194/11 1067/217/11 1068/197/11
f 1069/194/11 1070/218/11 1067/217/11
f 1071/243/11 1070/218/11 1069/194/11
f 1061/214/11 1072/244/11 1064/166/11
f 1071/243/11 1069/194/11 1073/193/11
f 1064/166/11 1072/244/11 1074/206/11
f 1064/166/11 1074/206/11 1075/168/11
f 1076/219/11 1074/206/11 1072/244/11
f 1074/206/11 1077/200/11 1075/168/11
f 1076/219/11 1078/205/11 1074/206/11
f 1079/170/11 1075/168/11 1077/200/11
f 1079/170/11 1077/200/11 1080/201/11
f 1079/170/11 1080/201/11 1081/171/11
f 1081/171/11 1080/201/11 1082/202/11
f 1081/171/11 1082/202/11 1083/173/11
f 1083/173/11 1082/202/11 1084/203/11
f 1083/173/11 1084/203/11 1085/175/11
f 1085/175/11 1084/203/11 1086/204/11
f 1085/175/11 1086/204/11 1087/177/11
f 1087/177/11 1086/204/11 1088/198/11
f 1087/177/11 1088/198/11 1089/179/11
f 1090/182/11 1089/179/11 1088/198/11
f 1090/182/11 1088/198/11 1091/211/11
f 1092/184/11 1090/182/11 1091/211/11
f 1092/184/11 1091/211/11 1093/212/11
f 1094/186/11 1092/184/11 1093/212/11
f 1094/186/11 1093/212/11 1095/209/11
f 1096/188/11 1094/186/11 1095/209/11
f 1096/188/11 1095/209/11 1097/210/11
f 1097/210/11 1098/190/11 1096/188/11
f 1097/210/11 1099/207/11 1098/190/11
f 1098/190/11 1099/207/11 1100/208/11
f 1100/208/11 1073/193/11 1098/190/11
f 1100/208/11 1071/243/11 1073/193/11
f 1100/208/11 1076/219/11 1071/243/11
f 1100/208/11 1078/205/11 1076/219/11
